<?xml version="1.0" standalone="no"?>
<!DOCTYPE svg PUBLIC "-//W3C//DTD SVG 1.1//EN" "http://www.w3.org/Graphics/SVG/1.1/DTD/svg11.dtd" >
<svg xmlns="http://www.w3.org/2000/svg" xmlns:xlink="http://www.w3.org/1999/xlink" version="1.1">
<metadata>
Created by FontForge 20161116 at Tue Feb  4 22:12:52 2014
 By Jimmy Wärting
Circe is a geometric sans-serif with some humanist features in 6 weights from Thin to Extra Bold. Name of the font derives from both its geometric shapes and artificial, kinky nature. While being clean and simple in its basic form, Circe can become more intricate with its numerous decorative variations of characters, tempting and challenging the designer to use more and more of them and finally -- probably -- making him look foolish like the sailors who got to Circe's island. Its oversized character set not only allows using Circe for almost all European languages \(based on Latin and Cyrillic scripts\) but also contains a lot of alternates and swash variants organized in stylistic sets which make the font look in several completely different ways. Circe is good for both text setting in small point sizes and display purposes, such as magazine headlines, posters and so on. Designed by Alexandra Korolkova and released by ParaType in 2011.
</metadata>
<defs>
<font id="Circe-ExtraBold" horiz-adv-x="600" >
  <font-face 
    font-family="Circe ExtraBold"
    font-weight="800"
    font-stretch="normal"
    units-per-em="1000"
    panose-1="2 11 8 2 2 2 3 2 2 3"
    ascent="800"
    descent="-200"
    x-height="450"
    cap-height="700"
    bbox="-533 -454 1671 1020"
    underline-thickness="50"
    underline-position="-100"
    unicode-range="U+0020-FB02"
  />
<missing-glyph horiz-adv-x="200" 
 />
    <glyph glyph-name="uniF350.var.accented" unicode="&#xf350;`" horiz-adv-x="632" 
d="M161 0h-161l244 525h144l244 -525h-171l-33 75h-234zM362 225l-50 115l-51 -115h101zM361 786l92 -115l-162 -110l-71 83z" />
    <glyph glyph-name="uniF355.var.accented" unicode="&#xf355;`" horiz-adv-x="508" 
d="M460 0h-388v525h379v-150h-219v-37h194v-150h-194v-38h228v-150zM296 786l92 -115l-162 -110l-71 83z" />
    <glyph glyph-name="uniF358.var.accented" unicode="&#xf358;`" horiz-adv-x="671" 
d="M439 270l-227 -270h-140v525h160v-270l227 270h140v-525h-160v270zM376 786l92 -115l-162 -110l-71 83z" />
    <glyph glyph-name="uniF35E.var.accented" unicode="&#xf35e;`" horiz-adv-x="664" 
d="M31 261c0 78 28 143 83 194c55 52 128 78 218 78c89 0 161 -24 217 -73s84 -115 84 -199c0 -81 -28 -146 -85 -197s-129 -76 -216 -76c-89 0 -162 24 -218 73c-55 49 -83 115 -83 200zM201 261c0 -35 13 -64 38 -88c25 -23 56 -35 93 -35c89 0 131 50 131 123
c0 75 -55 122 -131 122c-79 0 -131 -46 -131 -122zM386 786l92 -115l-162 -110l-71 83z" />
    <glyph glyph-name="uniF363.var.accented" unicode="&#xf363;`" horiz-adv-x="587" 
d="M419 525h164l-197 -393c-43 -88 -106 -132 -188 -132c-32 0 -61 9 -86 26l56 136c14 -8 27 -12 39 -12c13 0 22 4 28 12l8 12l-236 351h201l117 -193zM371 786l92 -115l-162 -110l-71 83z" />
    <glyph glyph-name="uniF36B.var.accented" unicode="&#xf36b;`" horiz-adv-x="766" 
d="M694 0h-160v525h160v-525zM260 235c-11 0 -20 0 -28 -1v-84c8 -1 17 -2 28 -2c40 0 60 15 60 45c0 28 -20 42 -60 42zM72 525h160v-142c11 1 26 2 43 2c141 0 215 -71 215 -188s-92 -199 -249 -199c-24 0 -56 0 -96 1c-39 1 -64 1 -73 1v525zM418 786l92 -115l-162 -110
l-71 83z" />
    <glyph glyph-name="uniF36D.var.accented" unicode="&#xf36d;`" horiz-adv-x="567" 
d="M362 193h-212v150h201c-24 28 -65 42 -122 42c-66 0 -117 -12 -154 -35l-61 120c58 43 132 65 222 65c86 0 157 -26 214 -77s86 -116 86 -197c0 -173 -123 -271 -323 -271c-42 0 -82 5 -120 16c-37 11 -64 24 -81 39l68 135c37 -27 89 -40 154 -40c67 0 109 18 128 53z
M286 786l92 -115l-162 -110l-71 83z" />
    <glyph glyph-name="uniF36E.var.accented" unicode="&#xf36e;`" horiz-adv-x="884" 
d="M232 0h-160v525h160v-182h56c31 116 127 192 272 192c185 0 293 -100 293 -272c0 -82 -26 -148 -78 -198s-124 -75 -215 -75c-143 0 -248 75 -275 203h-53v-193zM448 263c0 -72 45 -123 117 -123c81 0 118 50 118 123c0 77 -43 122 -118 122c-71 0 -117 -46 -117 -122z
M417 786l92 -115l-162 -110l-71 83z" />
    <glyph glyph-name="uniF36F.var.accented" unicode="&#xf36f;`" horiz-adv-x="584" 
d="M512 0h-160v140h-71l-88 -140h-189l123 179c-50 34 -75 82 -75 144c0 57 21 106 62 146c42 40 106 60 192 60c29 0 69 -1 119 -2s79 -2 87 -2v-525zM268 290h84v85c-7 3 -27 4 -61 4c-46 0 -69 -15 -69 -45c0 -23 15 -38 46 -44zM356 786l92 -115l-162 -110l-71 83z" />
    <glyph glyph-name="uniF371.var.accented" unicode="&#xf371;`" horiz-adv-x="508" 
d="M74 637c0 45 35 75 82 75c39 0 74 -30 74 -75c0 -48 -35 -79 -74 -79c-47 0 -82 30 -82 79zM295 637c0 45 36 75 80 75c41 0 76 -30 76 -75c0 -48 -35 -79 -76 -79c-44 0 -80 30 -80 79zM460 0h-388v525h379v-150h-219v-37h194v-150h-194v-38h228v-150zM326 896l92 -115
l-162 -110l-71 83z" />
    <glyph glyph-name="afii10017.var.accented" unicode="&#x410;`" horiz-adv-x="725" 
d="M161 0h-161l291 700h143l291 -700h-171l-58 147h-277zM436 297l-78 198l-79 -198h157zM491 935l56 -129l-249 -78l-41 89z" />
    <glyph glyph-name="afii10022.var.accented" unicode="&#x415;`" horiz-adv-x="575" 
d="M515 0h-425v700h415v-150h-255v-123h225v-150h-225v-127h265v-150zM461 935l56 -129l-249 -78l-41 89z" />
    <glyph glyph-name="afii10026.var.accented" unicode="&#x418;`" horiz-adv-x="790" 
d="M540 435l-310 -435h-140v700h160v-435l310 435h140v-700h-160v435zM551 935l56 -129l-249 -78l-41 89z" />
    <glyph glyph-name="afii10032.var.accented" unicode="&#x41e;`" horiz-adv-x="824" 
d="M40 350c0 103 34 189 103 258s159 104 269 104c109 0 198 -33 267 -99c70 -66 105 -154 105 -263c0 -105 -35 -192 -106 -260c-70 -68 -159 -102 -266 -102c-109 0 -198 33 -268 99c-69 66 -104 154 -104 263zM210 350c0 -60 20 -110 59 -151s87 -61 143 -61
c64 0 114 20 149 59c35 40 53 91 53 153c0 63 -19 114 -58 153s-87 59 -144 59c-59 0 -107 -20 -145 -59s-57 -90 -57 -153zM561 935l56 -129l-249 -78l-41 89z" />
    <glyph glyph-name="afii10037.var.accented" unicode="&#x423;`" horiz-adv-x="701" 
d="M530 700h161l-235 -534c-49 -112 -112 -166 -205 -166c-39 0 -86 15 -106 31l56 136c17 -11 33 -17 49 -17c26 0 43 9 52 28l9 21l-301 501h181l197 -342zM511 935l56 -129l-249 -78l-41 89z" />
    <glyph glyph-name="afii10045.var.accented" unicode="&#x42b;`" horiz-adv-x="885" 
d="M795 0h-160v700h160v-700zM298 335c-10 0 -26 -2 -48 -5v-178c24 -3 40 -4 47 -4c67 0 100 32 100 97c0 60 -38 90 -99 90zM90 700h160v-219c22 3 43 4 62 4c168 0 255 -89 255 -236c0 -76 -25 -137 -76 -183c-51 -45 -122 -68 -213 -68c-27 0 -62 0 -106 1
c-43 1 -71 1 -82 1v700zM571 935l56 -129l-249 -78l-41 89z" />
    <glyph glyph-name="afii10047.var.accented" unicode="&#x42d;`" horiz-adv-x="670" 
d="M462 282h-281v150h275c-31 84 -110 130 -218 130c-56 0 -107 -17 -152 -51l-61 120c62 54 146 81 252 81c103 0 187 -33 253 -100c67 -67 100 -154 100 -262c0 -112 -34 -200 -101 -265s-158 -97 -273 -97c-97 0 -192 32 -236 73l68 135c47 -39 102 -58 165 -58
c100 0 184 47 209 144zM421 935l56 -129l-249 -78l-41 89z" />
    <glyph glyph-name="afii10048.var.accented" unicode="&#x42e;`" horiz-adv-x="1084" 
d="M250 0h-160v700h160v-268h88c17 83 56 151 117 202c61 52 137 78 227 78c108 0 195 -33 262 -99c67 -65 100 -153 100 -263c0 -106 -34 -193 -101 -261c-67 -67 -154 -101 -261 -101c-88 0 -164 26 -229 79s-104 125 -118 215h-85v-282zM500 350c0 -59 18 -110 55 -151
s81 -61 132 -61c127 0 187 85 187 212c0 128 -74 212 -187 212c-54 0 -99 -20 -134 -59s-53 -90 -53 -153zM711 935l56 -129l-249 -78l-41 89z" />
    <glyph glyph-name="afii10049.var.accented" unicode="&#x42f;`" horiz-adv-x="643" 
d="M553 0h-160v225h-71l-133 -225h-179l164 260c-72 43 -108 106 -108 191c0 73 25 133 74 181s125 72 227 72c15 0 46 -1 94 -2s79 -2 92 -2v-700zM309 375h84v175c-13 3 -33 4 -58 4c-55 0 -99 -36 -99 -92c0 -49 32 -78 73 -87zM501 935l56 -129l-249 -78l-41 89z" />
    <glyph glyph-name="afii10023.var.accented" unicode="&#x401;`" horiz-adv-x="575" 
d="M70 836c0 48 31 79 74 79c37 0 70 -31 70 -79c0 -53 -33 -85 -70 -85c-43 0 -74 32 -74 85zM395 836c0 48 34 79 75 79c37 0 69 -31 69 -79c0 -53 -30 -85 -69 -85c-43 0 -75 32 -75 85zM268 935l130 -34l-125 -161l-53 23zM515 0h-425v700h415v-150h-255v-123h225v-150
h-225v-127h265v-150z" />
    <glyph glyph-name="afii10065.var.accented" unicode="&#x430;`" horiz-adv-x="465" 
d="M103 309l-37 109c39 24 107 44 167 44c133 0 187 -64 187 -191v-271h-130v41c-22 -31 -61 -47 -118 -47c-84 0 -142 53 -142 142c0 97 67 149 162 149c37 0 67 -8 88 -25c3 51 -18 77 -62 77c-29 0 -68 -9 -115 -28zM223 119c27 0 46 8 57 23v28c-14 10 -33 15 -57 15
c-25 0 -43 -13 -43 -34c0 -20 18 -32 43 -32zM267 738l117 -89l-131 -146l-89 63z" />
    <glyph glyph-name="afii10070.var.accented" unicode="&#x435;`" horiz-adv-x="512" 
d="M408 145l41 -106c-45 -34 -104 -51 -175 -51c-74 0 -133 22 -178 65c-44 43 -66 101 -66 172c0 67 22 124 67 169s104 68 177 68c60 0 111 -20 154 -60c43 -39 64 -90 64 -152c0 -30 -3 -55 -9 -75h-298c13 -41 48 -62 105 -62c45 0 84 11 118 32zM269 337
c-45 0 -74 -21 -89 -62h162c0 33 -28 62 -73 62zM291 738l117 -89l-131 -146l-89 63z" />
    <glyph glyph-name="afii10074.var.accented" unicode="&#x438;`" horiz-adv-x="570" 
d="M365 235l-160 -235h-150v450h150v-235l160 235h150v-450h-150v235zM302 738l117 -89l-131 -146l-89 63z" />
    <glyph glyph-name="afii10080.var.accented" unicode="&#x43e;`" horiz-adv-x="560" 
d="M98 55c-45 45 -68 101 -68 170s23 125 68 170c46 45 107 67 182 67s136 -22 181 -67c46 -45 69 -101 69 -170s-23 -125 -69 -170c-45 -45 -106 -67 -181 -67s-136 22 -182 67zM190 225c0 -56 38 -97 90 -97s90 37 90 97c0 57 -39 97 -90 97s-90 -38 -90 -97zM307 738
l117 -89l-131 -146l-89 63z" />
    <glyph glyph-name="afii10085.var.accented" unicode="&#x443;`" horiz-adv-x="516" 
d="M345 450h171l-175 -450c-32 -79 -61 -132 -86 -159s-56 -41 -91 -41c-38 0 -74 14 -107 42l48 113c16 -11 30 -16 43 -16c19 0 33 12 43 37l10 24l-201 450h181l77 -206c4 -11 10 -31 17 -62c3 27 6 48 11 63zM277 738l117 -89l-131 -146l-89 63z" />
    <glyph glyph-name="afii10093.var.accented" unicode="&#x44b;`" horiz-adv-x="705" 
d="M241 0h-186v450h150v-105h47c73 0 125 -16 157 -47s48 -69 48 -115c0 -51 -18 -94 -53 -130c-35 -35 -90 -53 -163 -53zM650 0h-150v450h150v-450zM239 225h-34v-95h33c39 0 59 16 59 47c0 32 -19 48 -58 48zM347 738l117 -89l-131 -146l-89 63z" />
    <glyph glyph-name="afii10095.var.accented" unicode="&#x44d;`" horiz-adv-x="496" 
d="M309 177h-180v100h177c-15 37 -47 55 -94 55c-37 0 -77 -13 -120 -40l-61 104c43 43 117 66 178 66c160 0 257 -92 257 -237c0 -69 -22 -125 -66 -170c-43 -45 -104 -67 -182 -67c-83 0 -147 24 -193 72l70 98c30 -27 68 -40 114 -40c55 0 88 20 100 59zM238 738l117 -89
l-131 -146l-89 63z" />
    <glyph glyph-name="afii10096.var.accented" unicode="&#x44e;`" horiz-adv-x="785" 
d="M215 0h-160v450h160v-145h61c29 96 114 157 229 157c75 0 135 -22 181 -67s69 -101 69 -170c0 -68 -23 -125 -70 -170c-46 -45 -106 -67 -180 -67c-120 0 -205 66 -232 167h-58v-155zM435 225c0 -56 31 -87 75 -87c45 0 75 31 75 87c0 55 -27 87 -75 87
c-44 0 -75 -32 -75 -87zM422 738l117 -89l-131 -146l-89 63z" />
    <glyph glyph-name="afii10097.var.accented" unicode="&#x44f;`" horiz-adv-x="503" 
d="M293 450h155v-450h-150v115h-36l-71 -115h-171l107 148c-50 27 -75 71 -75 133c0 100 78 169 241 169zM212 269c0 -24 26 -44 59 -44h27v95h-29c-33 0 -57 -26 -57 -51zM294 738l117 -89l-131 -146l-89 63z" />
    <glyph glyph-name="afii10071.var.accented" unicode="&#x451;`" horiz-adv-x="512" 
d="M47 574c0 41 28 66 67 66c33 0 62 -26 62 -66c0 -44 -29 -70 -62 -70c-39 0 -67 26 -67 70zM361 574c0 40 30 66 67 66c33 0 62 -26 62 -66c0 -44 -27 -70 -62 -70c-37 0 -67 26 -67 70zM291 724l97 -75l-131 -146l-69 49zM408 145l41 -106c-45 -34 -104 -51 -175 -51
c-74 0 -133 22 -178 65c-44 43 -66 101 -66 172c0 67 22 124 67 169s104 68 177 68c60 0 111 -20 154 -60c43 -39 64 -90 64 -152c0 -30 -3 -55 -9 -75h-298c13 -41 48 -62 105 -62c45 0 84 11 118 32zM269 337c-45 0 -74 -21 -89 -62h162c0 33 -28 62 -73 62z" />
    <glyph glyph-name="fi" unicode="fi" horiz-adv-x="547" 
d="M492 0h-150v310h-137v-310h-150v500c0 143 82 212 214 212c103 0 177 -38 220 -113l-109 -84c-13 32 -45 57 -84 57c-63 0 -91 -21 -91 -82v-40h287v-450z" />
    <glyph glyph-name="fl" unicode="fl" horiz-adv-x="579" 
d="M325 129v421c-21 15 -42 22 -61 22c-39 0 -59 -19 -59 -58v-64h60v-140h-60v-310h-150v523c0 123 61 189 164 189c51 0 90 -9 119 -28h137v-498c0 -39 8 -58 25 -58c9 0 22 5 39 16l30 -114c-34 -28 -78 -42 -132 -42c-75 0 -112 47 -112 141z" />
    <glyph glyph-name=".notdef" horiz-adv-x="200" 
 />
    <glyph glyph-name="NULL" horiz-adv-x="0" 
 />
    <glyph glyph-name="CR" horiz-adv-x="333" 
 />
    <glyph glyph-name="space" unicode=" " horiz-adv-x="200" 
 />
    <glyph glyph-name="exclam" unicode="!" horiz-adv-x="310" 
d="M235 270h-160v430h160v-430zM57 96c0 48 41 94 102 94c53 0 94 -46 94 -94c0 -55 -39 -102 -94 -102c-61 0 -102 46 -102 102z" />
    <glyph glyph-name="quotedbl" unicode="&#x22;" horiz-adv-x="450" 
d="M400 440h-150v260h150v-260zM200 440h-150v260h150v-260z" />
    <glyph glyph-name="numbersign" unicode="#" horiz-adv-x="744" 
d="M424 -12l-115 41l50 136h-120l-66 -177l-116 40l51 137h-68v130h116l41 110h-157v130h205l66 177l116 -42l-50 -135h118l66 177l116 -40l-51 -137h78v-130h-126l-41 -110h167v-130h-215zM447 405h-119l-41 -110h120z" />
    <glyph glyph-name="dollar" unicode="$" 
d="M367 192c0 37 -46 66 -103 93c-83 36 -191 93 -189 225c0 85 60 162 155 190v90h150v-85c58 -11 104 -34 137 -70l-86 -120c-36 33 -58 47 -106 47c-53 0 -80 -17 -80 -52c0 -116 292 -88 292 -316c0 -99 -61 -173 -157 -197v-97h-150v97c-83 18 -136 53 -160 106l91 109
c37 -48 98 -74 150 -74c37 0 56 18 56 54z" />
    <glyph glyph-name="percent" unicode="%" horiz-adv-x="945" 
d="M89 389c-39 35 -59 80 -59 137s20 102 59 135c39 34 90 51 152 51s113 -17 152 -51c39 -33 59 -78 59 -135s-20 -102 -59 -137c-39 -34 -90 -51 -152 -51s-113 17 -152 51zM170 526c0 -43 30 -68 71 -68c44 0 71 25 71 68c0 40 -28 66 -71 66s-71 -26 -71 -66zM552 39
c-39 35 -59 80 -59 137s20 102 59 135c39 34 90 51 152 51s113 -17 152 -51c39 -33 59 -78 59 -135s-20 -102 -59 -137c-39 -34 -90 -51 -152 -51s-113 17 -152 51zM633 176c0 -43 30 -68 71 -68c44 0 71 25 71 68c0 40 -28 66 -71 66s-71 -26 -71 -66zM266 -12l-86 59
l497 665l84 -63z" />
    <glyph glyph-name="ampersand" unicode="&#x26;" horiz-adv-x="762" 
d="M722 0h-186l-45 55c-49 -45 -114 -67 -196 -67c-74 0 -133 19 -178 56c-45 38 -67 87 -67 146c0 37 7 70 20 99c14 29 30 51 48 68s44 37 77 60c-46 32 -69 77 -69 136c0 49 17 87 52 116s77 43 126 43s91 -14 126 -43s53 -67 53 -116c0 -57 -34 -114 -77 -137l101 -135
c25 54 37 110 37 169h149c0 -112 -32 -208 -96 -289zM300 138c47 0 80 12 101 37l-108 156c-59 -51 -73 -75 -73 -110c0 -44 35 -83 80 -83zM266 553c0 -32 41 -52 66 -27c23 23 6 66 -28 66c-23 0 -38 -16 -38 -39z" />
    <glyph glyph-name="quotesingle" unicode="'" horiz-adv-x="250" 
d="M200 440h-150v260h150v-260z" />
    <glyph glyph-name="parenleft" unicode="(" horiz-adv-x="337" 
d="M337 -124l-95 -82c-135 116 -202 260 -202 431c0 165 68 309 203 431l93 -82c-99 -101 -146 -206 -146 -349c0 -69 14 -135 42 -196s63 -112 105 -153z" />
    <glyph glyph-name="parenright" unicode=")" horiz-adv-x="337" 
d="M95 -206l-95 82c42 41 77 92 105 153s42 127 42 196c0 143 -47 248 -146 349l93 82c135 -122 203 -266 203 -431c0 -171 -67 -315 -202 -431z" />
    <glyph glyph-name="asterisk" unicode="*" horiz-adv-x="516" 
d="M207 587c-28 28 -28 74 0 102c28 29 74 29 102 0c29 -28 29 -74 0 -102c-28 -28 -74 -28 -102 0zM205 254c-28 28 -28 74 0 102c28 29 74 29 102 0c29 -28 29 -74 0 -102c-28 -28 -74 -28 -102 0zM352 506c-28 28 -28 74 0 102c28 29 74 29 102 0c29 -28 29 -74 0 -102
c-28 -28 -74 -28 -102 0zM352 340c-28 28 -28 74 0 102c28 29 74 29 102 0c29 -28 29 -74 0 -102c-28 -28 -74 -28 -102 0zM61 340c-28 28 -28 74 0 102c28 29 74 29 102 0c29 -28 29 -74 0 -102c-28 -28 -74 -28 -102 0zM61 506c-28 28 -28 74 0 102c28 29 74 29 102 0
c29 -28 29 -74 0 -102c-28 -28 -74 -28 -102 0z" />
    <glyph glyph-name="plus" unicode="+" 
d="M229 295h-166v130h166v171h140v-171h168v-130h-168v-173h-140v173z" />
    <glyph glyph-name="comma" unicode="," horiz-adv-x="281" 
d="M40 81c0 56 34 93 97 93c64 0 104 -53 104 -126c0 -95 -51 -164 -143 -192l-41 69c27 11 46 24 58 39c15 18 22 32 20 43c-5 -5 -15 -7 -31 -7c-33 0 -64 36 -64 81z" />
    <glyph glyph-name="hyphen" unicode="-" horiz-adv-x="364" 
d="M314 205h-264v140h264v-140z" />
    <glyph glyph-name="period" unicode="." horiz-adv-x="276" 
d="M40 96c0 48 41 94 102 94c53 0 94 -46 94 -94c0 -55 -39 -102 -94 -102c-61 0 -102 46 -102 102z" />
    <glyph glyph-name="slash" unicode="/" horiz-adv-x="382" 
d="M86 -208l-116 43l327 877l115 -43z" />
    <glyph glyph-name="zero" unicode="0" horiz-adv-x="544" 
d="M30 350c0 112 20 200 61 263s102 95 181 95s139 -32 180 -95s62 -151 62 -263c0 -224 -81 -358 -240 -358c-160 0 -244 135 -244 358zM190 350c0 -145 28 -218 84 -218c57 0 80 57 80 218s-23 218 -82 218c-57 0 -82 -61 -82 -218z" />
    <glyph glyph-name="one" unicode="1" horiz-adv-x="398" 
d="M88 438l-78 124l190 138h108v-700h-150v487z" />
    <glyph glyph-name="two" unicode="2" horiz-adv-x="522" 
d="M482 0h-452v120c6 5 22 21 49 47c27 27 46 45 55 55s25 27 48 50c23 24 39 43 48 57l33 51c27 41 35 74 35 109c0 46 -21 69 -64 69c-40 0 -60 -27 -77 -75l-125 57c23 103 100 168 220 168c65 0 115 -18 151 -55c37 -37 55 -81 55 -134c0 -133 -78 -259 -234 -379h258
v-140z" />
    <glyph glyph-name="three" unicode="3" horiz-adv-x="529" 
d="M241 -12c-111 0 -191 48 -231 116l83 111c45 -51 91 -77 138 -77c57 0 88 29 88 68c0 51 -40 77 -119 77h-44v150h40c56 0 96 25 96 70c0 33 -20 59 -64 59c-47 0 -87 -21 -121 -63l-82 108c43 70 116 105 217 105c62 0 112 -16 151 -49c39 -32 59 -75 59 -130
c0 -81 -33 -132 -104 -164v-3c84 -16 131 -81 131 -166c0 -65 -23 -116 -68 -155c-45 -38 -101 -57 -170 -57z" />
    <glyph glyph-name="four" unicode="4" horiz-adv-x="580" 
d="M478 0h-150v150h-318v112l250 438h172l-229 -400h125v150h150v-150h82v-150h-82v-150z" />
    <glyph glyph-name="five" unicode="5" horiz-adv-x="512" 
d="M63 308l48 392h346v-150h-214l-14 -89h24c63 0 115 -21 156 -62c42 -41 63 -97 63 -166c0 -76 -24 -136 -72 -180c-48 -43 -109 -65 -183 -65c-39 0 -78 8 -118 25c-39 17 -69 40 -89 69l84 115c28 -33 82 -59 127 -59c53 0 91 36 91 88c0 59 -48 100 -129 100
c-55 0 -95 -6 -120 -18z" />
    <glyph glyph-name="six" unicode="6" horiz-adv-x="564" 
d="M40 248c0 123 48 238 117 314c71 76 152 129 231 150l61 -113c-105 -36 -191 -108 -231 -201c27 25 68 38 123 38c52 0 97 -20 135 -60c39 -40 58 -91 58 -153c0 -73 -24 -131 -71 -173c-47 -41 -102 -62 -165 -62c-77 0 -139 25 -187 75c-47 50 -71 112 -71 185z
M200 247c0 -67 36 -109 99 -109c49 0 75 34 75 74c0 49 -30 84 -85 84c-37 0 -66 -16 -89 -49z" />
    <glyph glyph-name="seven" unicode="7" horiz-adv-x="510" 
d="M301 550h-281v150h460v-102l-237 -598h-164z" />
    <glyph glyph-name="eight" unicode="8" horiz-adv-x="605" 
d="M297 435h13c44 0 68 30 68 65c0 41 -26 62 -77 62c-49 0 -74 -26 -74 -62c0 -35 25 -65 70 -65zM310 285h-12c-48 0 -88 -27 -88 -74c0 -43 29 -73 92 -73s94 24 93 73c-1 48 -34 74 -85 74zM303 -12c-74 0 -135 17 -182 52s-71 82 -71 141c0 88 44 150 107 177v3
c-52 28 -90 85 -90 166c0 54 22 98 67 133s101 52 168 52s123 -17 168 -52s68 -79 68 -133c0 -69 -39 -134 -100 -165v-3c65 -17 117 -78 117 -165c0 -65 -23 -115 -70 -152c-47 -36 -107 -54 -182 -54z" />
    <glyph glyph-name="nine" unicode="9" horiz-adv-x="559" 
d="M519 442c0 -131 -35 -237 -104 -317s-157 -126 -264 -137l-49 119c126 27 206 89 239 185c-27 -25 -64 -38 -109 -38c-58 0 -108 21 -150 62c-41 41 -62 93 -62 156c0 73 24 132 73 175s105 65 168 65c78 0 140 -25 187 -74s71 -115 71 -196zM359 443
c0 68 -38 119 -99 119c-49 0 -80 -39 -80 -79c0 -49 35 -89 90 -89c37 0 66 16 89 49z" />
    <glyph glyph-name="colon" unicode=":" horiz-adv-x="316" 
d="M60 368c0 48 41 94 102 94c53 0 94 -46 94 -94c0 -55 -39 -102 -94 -102c-61 0 -102 46 -102 102zM60 96c0 48 41 94 102 94c53 0 94 -46 94 -94c0 -55 -39 -102 -94 -102c-61 0 -102 46 -102 102z" />
    <glyph glyph-name="semicolon" unicode=";" horiz-adv-x="323" 
d="M62 81c0 56 34 93 97 93c64 0 104 -53 104 -126c0 -95 -51 -164 -143 -192l-41 69c27 11 46 24 58 39c15 18 22 32 20 43c-5 -5 -15 -7 -31 -7c-33 0 -64 36 -64 81zM60 368c0 48 41 94 102 94c53 0 94 -46 94 -94c0 -55 -39 -102 -94 -102c-61 0 -102 46 -102 102z" />
    <glyph glyph-name="less" unicode="&#x3c;" 
d="M530 216v-162l-490 276v64l490 274v-162l-284 -144z" />
    <glyph glyph-name="equal" unicode="=" 
d="M537 395h-474v130h474v-130zM537 195h-474v130h474v-130z" />
    <glyph glyph-name="greater" unicode="&#x3e;" 
d="M560 394v-64l-490 -276v162l284 146l-284 144v162z" />
    <glyph glyph-name="question" unicode="?" horiz-adv-x="481" 
d="M300 500c0 32 -30 62 -66 62c-49 0 -75 -15 -106 -54l-88 101c37 61 111 103 202 103c67 0 120 -17 159 -52c40 -34 60 -76 60 -127c0 -72 -29 -129 -65 -162c-51 -47 -115 -83 -107 -139h-136c-8 61 11 107 42 134c44 40 105 71 105 134zM127 96c0 48 41 94 102 94
c53 0 94 -46 94 -94c0 -55 -39 -102 -94 -102c-61 0 -102 46 -102 102z" />
    <glyph glyph-name="at" unicode="@" horiz-adv-x="986" 
d="M719 0h-150v23c-30 -23 -66 -35 -107 -35c-67 0 -121 22 -161 65c-39 43 -59 101 -59 172c0 67 24 123 73 168c49 46 113 69 190 69c79 0 163 -24 214 -56v-266h19c31 0 58 49 58 136c0 70 -26 129 -79 178c-52 49 -123 74 -214 74c-88 0 -162 -27 -223 -80
c-60 -53 -90 -128 -90 -223c0 -89 31 -161 92 -218s135 -85 221 -85c38 0 74 4 108 12l5 -139c-39 -9 -76 -13 -113 -13c-131 0 -239 42 -325 125c-85 83 -128 189 -128 318c0 125 43 230 130 315s194 128 323 128c125 0 228 -36 310 -108s123 -167 123 -284
c0 -72 -19 -135 -58 -188s-92 -83 -159 -88zM489 128c30 0 57 11 80 33v145c-23 11 -44 16 -65 16c-71 0 -102 -44 -102 -104c0 -57 36 -90 87 -90z" />
    <glyph glyph-name="A" unicode="A" horiz-adv-x="725" 
d="M161 0h-161l291 700h143l291 -700h-171l-58 147h-277zM436 297l-78 198l-79 -198h157z" />
    <glyph glyph-name="B" unicode="B" horiz-adv-x="617" 
d="M90 2v696c78 4 149 6 212 6c159 0 235 -70 235 -174c0 -69 -27 -121 -80 -156v-2c57 -21 100 -76 100 -160c0 -71 -25 -124 -74 -161s-113 -55 -192 -55c-93 0 -160 2 -201 6zM312 283h-62v-131c15 -4 33 -6 54 -6c62 0 93 25 93 74c0 42 -28 63 -85 63zM300 554
c-9 0 -26 -1 -50 -4v-127h53c49 0 74 23 74 68c0 40 -34 63 -77 63z" />
    <glyph glyph-name="C" unicode="C" horiz-adv-x="655" 
d="M574 189l61 -120c-21 -24 -53 -44 -95 -59s-86 -22 -133 -22c-109 0 -197 33 -265 99c-68 67 -102 154 -102 263c0 105 32 192 96 260s154 102 270 102c89 0 170 -30 214 -73l-71 -120c-47 29 -95 43 -143 43c-57 0 -104 -19 -141 -56s-55 -89 -55 -156
c0 -62 20 -113 59 -153c39 -39 90 -59 153 -59c56 0 107 17 152 51z" />
    <glyph glyph-name="D" unicode="D" horiz-adv-x="744" 
d="M107 0h-17v700h14c11 0 45 0 100 1s91 2 107 2c132 0 230 -33 295 -98s98 -148 98 -249c0 -103 -35 -189 -105 -257c-69 -67 -168 -101 -296 -101c-10 0 -39 0 -87 1s-84 1 -109 1zM309 553c-26 0 -46 -1 -59 -3v-400c14 -1 33 -2 58 -2c140 0 226 76 226 208
c0 125 -90 197 -225 197z" />
    <glyph glyph-name="E" unicode="E" horiz-adv-x="575" 
d="M515 0h-425v700h415v-150h-255v-123h225v-150h-225v-127h265v-150z" />
    <glyph glyph-name="F" unicode="F" horiz-adv-x="535" 
d="M250 0h-160v700h405v-150h-245v-148h215v-150h-215v-252z" />
    <glyph glyph-name="G" unicode="G" horiz-adv-x="727" 
d="M527 249h-149v150h299v-312c-30 -30 -70 -54 -120 -72c-49 -18 -97 -27 -142 -27c-118 0 -210 33 -276 98s-99 153 -99 264c0 103 32 189 97 258s151 104 258 104c91 0 168 -24 229 -73l-67 -129c-28 29 -88 52 -143 52c-121 0 -204 -73 -204 -212
c0 -129 82 -212 207 -212c20 0 41 4 63 11c23 8 38 16 47 24v76z" />
    <glyph glyph-name="H" unicode="H" horiz-adv-x="755" 
d="M665 0h-160v282h-255v-282h-160v700h160v-268h255v268h160v-700z" />
    <glyph glyph-name="I" unicode="I" horiz-adv-x="360" 
d="M260 0h-160v700h160v-700z" />
    <glyph glyph-name="J" unicode="J" horiz-adv-x="407" 
d="M157 700h160v-529c0 -119 -66 -183 -185 -183c-56 0 -112 24 -132 49l52 122c19 -14 38 -21 58 -21c29 0 47 22 47 62v500z" />
    <glyph glyph-name="K" unicode="K" horiz-adv-x="692" 
d="M250 0h-160v700h160v-305l229 305h192l-263 -323l284 -377h-203l-239 333v-333z" />
    <glyph glyph-name="L" unicode="L" horiz-adv-x="545" 
d="M535 0h-445v700h160v-550h285v-150z" />
    <glyph glyph-name="M" unicode="M" horiz-adv-x="912" 
d="M250 0h-160v700h161l216 -295l204 295h151v-700h-160v446l-195 -273h-23l-194 270v-443z" />
    <glyph glyph-name="N" unicode="N" horiz-adv-x="790" 
d="M700 700v-700h-128l-332 420v-420h-150v700h128l332 -422v422h150z" />
    <glyph glyph-name="O" unicode="O" horiz-adv-x="824" 
d="M40 350c0 103 34 189 103 258s159 104 269 104c109 0 198 -33 267 -99c70 -66 105 -154 105 -263c0 -105 -35 -192 -106 -260c-70 -68 -159 -102 -266 -102c-109 0 -198 33 -268 99c-69 66 -104 154 -104 263zM210 350c0 -60 20 -110 59 -151s87 -61 143 -61
c64 0 114 20 149 59c35 40 53 91 53 153c0 63 -19 114 -58 153s-87 59 -144 59c-59 0 -107 -20 -145 -59s-57 -90 -57 -153z" />
    <glyph glyph-name="P" unicode="P" horiz-adv-x="627" 
d="M250 238v-238h-160v700c12 0 46 0 101 1c56 1 94 1 113 1c99 0 171 -22 216 -66c45 -43 67 -99 67 -166c0 -65 -24 -121 -71 -167c-47 -45 -110 -68 -188 -68c-35 0 -61 1 -78 3zM320 552c-3 0 -26 -1 -70 -2v-160c25 -3 50 -5 73 -5c51 0 94 25 94 86
c0 54 -32 81 -97 81z" />
    <glyph glyph-name="Q" unicode="Q" horiz-adv-x="824" 
d="M40 350c0 103 34 189 103 258s159 104 269 104c109 0 198 -33 267 -99c70 -66 105 -154 105 -263c0 -95 -29 -175 -87 -240l95 -110h-185l-22 25c-53 -25 -110 -37 -173 -37c-109 0 -198 33 -268 99c-69 66 -104 154 -104 263zM210 350c0 -60 20 -110 59 -151
s87 -61 143 -61c24 0 47 3 68 9l-55 64l105 94l58 -68c17 33 26 70 26 113c0 63 -19 114 -58 153s-87 59 -144 59c-59 0 -107 -20 -145 -59s-57 -90 -57 -153z" />
    <glyph glyph-name="R" unicode="R" horiz-adv-x="673" 
d="M250 245v-245h-160v700c15 0 57 0 126 1s107 1 112 1c181 0 259 -85 259 -224c0 -95 -39 -163 -118 -202l204 -276h-194l-170 245h-59zM320 552c-3 0 -26 -1 -70 -2v-155h58c73 0 109 27 109 81c0 51 -32 76 -97 76z" />
    <glyph glyph-name="S" unicode="S" horiz-adv-x="557" 
d="M347 192c0 37 -46 66 -103 93c-83 36 -191 93 -189 225c0 56 21 104 62 143s96 59 164 59c89 0 158 -26 206 -77l-86 -120c-36 33 -58 47 -106 47c-44 0 -70 -20 -70 -52c0 -116 292 -88 292 -316c0 -60 -23 -109 -69 -148c-45 -39 -102 -58 -171 -58
c-50 0 -98 10 -144 31s-77 49 -93 84l91 109c37 -48 98 -74 150 -74c41 0 66 21 66 54z" />
    <glyph glyph-name="T" unicode="T" 
d="M220 550h-210v150h580v-150h-210v-550h-160v550z" />
    <glyph glyph-name="U" unicode="U" horiz-adv-x="751" 
d="M511 700h160v-411c0 -101 -27 -176 -82 -226c-54 -50 -122 -75 -204 -75c-93 0 -167 26 -222 79s-83 129 -83 229v404h160v-370c0 -128 48 -192 145 -192c92 0 126 63 126 183v379z" />
    <glyph glyph-name="V" unicode="V" horiz-adv-x="656" 
d="M505 700h161l-273 -700h-123l-280 700h171l176 -462z" />
    <glyph glyph-name="W" unicode="W" horiz-adv-x="1000" 
d="M846 700h154l-197 -700h-153l-146 450l-144 -450h-153l-207 700h181l118 -442l131 442h161l135 -442z" />
    <glyph glyph-name="X" unicode="X" horiz-adv-x="674" 
d="M477 700h188l-224 -343l233 -357h-188l-150 235l-148 -235h-188l233 357l-222 343h188l142 -225z" />
    <glyph glyph-name="Y" unicode="Y" horiz-adv-x="654" 
d="M481 700h173l-248 -415v-285h-160v285l-246 415h183l150 -265z" />
    <glyph glyph-name="Z" unicode="Z" horiz-adv-x="650" 
d="M386 550h-326v150h540v-112l-347 -438h357v-150h-570v112z" />
    <glyph glyph-name="bracketleft" unicode="[" horiz-adv-x="380" 
d="M360 -200h-300v850h300v-140h-150v-570h150v-140z" />
    <glyph glyph-name="backslash" unicode="\" horiz-adv-x="382" 
d="M-30 669l115 43l327 -877l-116 -43z" />
    <glyph glyph-name="bracketright" unicode="]" horiz-adv-x="380" 
d="M20 650h300v-850h-300v140h150v570h-150v140z" />
    <glyph glyph-name="asciicircum" unicode="^" horiz-adv-x="522" 
d="M182 450h-162l190 258h104l188 -258h-162l-79 110z" />
    <glyph glyph-name="underscore" unicode="_" horiz-adv-x="375" 
d="M375 -200h-375v150h375v-150z" />
    <glyph glyph-name="grave" unicode="`" horiz-adv-x="342" 
d="M282 566l-89 -63l-133 144l119 89z" />
    <glyph glyph-name="a" unicode="a" horiz-adv-x="465" 
d="M103 309l-37 109c39 24 107 44 167 44c133 0 187 -64 187 -191v-271h-130v41c-22 -31 -61 -47 -118 -47c-84 0 -142 53 -142 142c0 97 67 149 162 149c37 0 67 -8 88 -25c3 51 -18 77 -62 77c-29 0 -68 -9 -115 -28zM223 119c27 0 46 8 57 23v28c-14 10 -33 15 -57 15
c-25 0 -43 -13 -43 -34c0 -20 18 -32 43 -32z" />
    <glyph glyph-name="b" unicode="b" horiz-adv-x="547" 
d="M55 36v664h150v-262c31 16 64 24 99 24c65 0 117 -21 155 -64c39 -43 58 -98 58 -166c0 -149 -99 -244 -263 -244c-35 0 -72 5 -109 14c-37 10 -67 21 -90 34zM268 322c-23 0 -44 -10 -63 -29v-152c16 -9 35 -13 56 -13c56 0 96 35 96 95c0 65 -41 99 -89 99z" />
    <glyph glyph-name="c" unicode="c" horiz-adv-x="485" 
d="M391 178l70 -110c-39 -53 -100 -80 -184 -80c-75 0 -135 22 -180 65s-67 101 -67 172c0 67 22 123 66 168c45 46 102 69 172 69c82 0 143 -21 184 -64l-69 -118c-28 28 -60 42 -96 42c-51 0 -97 -37 -97 -97c0 -29 10 -52 30 -70c21 -18 44 -27 69 -27c37 0 71 17 102 50
z" />
    <glyph glyph-name="d" unicode="d" horiz-adv-x="557" 
d="M502 0h-150v37c-31 -30 -69 -45 -114 -45c-63 0 -114 21 -152 62c-37 41 -56 96 -56 165c0 71 23 130 69 175s106 68 179 68c29 0 54 -5 74 -14v252h150v-700zM269 132c31 0 59 11 83 33v138c-22 13 -44 19 -67 19c-52 0 -95 -35 -95 -98c0 -57 38 -92 79 -92z" />
    <glyph glyph-name="e" unicode="e" horiz-adv-x="512" 
d="M408 145l41 -106c-45 -34 -104 -51 -175 -51c-74 0 -133 22 -178 65c-44 43 -66 101 -66 172c0 67 22 124 67 169s104 68 177 68c60 0 111 -20 154 -60c43 -39 64 -90 64 -152c0 -30 -3 -55 -9 -75h-298c13 -41 48 -62 105 -62c45 0 84 11 118 32zM269 337
c-45 0 -74 -21 -89 -62h162c0 33 -28 62 -73 62z" />
    <glyph glyph-name="f" unicode="f" horiz-adv-x="320" 
d="M205 0h-150v523c0 123 61 189 164 189c53 0 107 -17 131 -44l-50 -114c-11 12 -29 18 -54 18c-23 0 -41 -21 -41 -58v-64h95v-140h-95v-310z" />
    <glyph glyph-name="g" unicode="g" horiz-adv-x="504" 
d="M0 -58c0 75 57 123 149 142c-4 8 -6 16 -6 25c0 10 2 19 7 26c-69 28 -111 87 -111 154c0 47 18 88 54 122c37 34 85 51 145 51c44 0 82 -10 115 -30l141 28l5 -120l-67 -13c3 -15 5 -27 5 -38c0 -45 -17 -83 -51 -116c-33 -32 -77 -50 -132 -53c-1 -3 -1 -6 -1 -11
s1 -11 3 -17c65 -2 119 -16 160 -41s62 -62 62 -109c0 -49 -22 -87 -67 -112s-102 -38 -172 -38c-71 0 -128 12 -173 37c-44 25 -66 62 -66 113zM140 -58c0 -20 33 -30 99 -30s99 10 99 30c0 21 -33 31 -99 31s-99 -10 -99 -31zM238 240c35 0 59 18 59 49s-20 53 -59 53
c-77 3 -79 -109 0 -102z" />
    <glyph glyph-name="h" unicode="h" horiz-adv-x="544" 
d="M205 0h-150v700h150v-281c29 26 66 39 111 39c112 0 183 -61 183 -194v-264h-150v245c0 44 -29 73 -72 73c-29 0 -53 -10 -72 -29v-289z" />
    <glyph glyph-name="i" unicode="i" horiz-adv-x="286" 
d="M218 0h-150v450h150v-450zM55 605c0 52 40 85 91 85c45 0 85 -34 85 -85c0 -56 -40 -91 -85 -91c-52 0 -91 34 -91 91z" />
    <glyph glyph-name="j" unicode="j" horiz-adv-x="281" 
d="M76 450h150v-483c0 -117 -47 -175 -141 -175c-51 0 -100 15 -120 34l39 119c15 -9 30 -13 44 -13c19 0 28 16 28 49v469zM64 605c0 52 40 85 91 85c45 0 85 -34 85 -85c0 -56 -40 -91 -85 -91c-52 0 -91 34 -91 91z" />
    <glyph glyph-name="k" unicode="k" horiz-adv-x="537" 
d="M205 0h-150v700h150v-445l123 195h188l-146 -203l167 -247h-192l-140 215v-215z" />
    <glyph glyph-name="l" unicode="l" horiz-adv-x="309" 
d="M55 129v571h150v-514c0 -39 8 -58 25 -58c9 0 22 5 39 16l30 -114c-34 -28 -78 -42 -132 -42c-75 0 -112 47 -112 141z" />
    <glyph glyph-name="m" unicode="m" horiz-adv-x="798" 
d="M753 294v-294h-150v254c0 43 -19 64 -56 64c-31 0 -57 -16 -68 -39v-279h-150v255c0 42 -18 63 -53 63c-31 0 -54 -12 -71 -36v-282h-150v450h150v-42c33 33 78 50 133 50c65 0 111 -27 128 -66c36 44 84 66 145 66c95 0 142 -55 142 -164z" />
    <glyph glyph-name="n" unicode="n" horiz-adv-x="544" 
d="M205 0h-150v450h150v-35c30 29 67 43 111 43c122 0 183 -63 183 -190v-268h-150v242c0 51 -29 76 -74 76c-26 0 -49 -10 -70 -31v-287z" />
    <glyph glyph-name="o" unicode="o" horiz-adv-x="560" 
d="M98 55c-45 45 -68 101 -68 170s23 125 68 170c46 45 107 67 182 67s136 -22 181 -67c46 -45 69 -101 69 -170s-23 -125 -69 -170c-45 -45 -106 -67 -181 -67s-136 22 -182 67zM190 225c0 -56 38 -97 90 -97s90 37 90 97c0 57 -39 97 -90 97s-90 -38 -90 -97z" />
    <glyph glyph-name="p" unicode="p" horiz-adv-x="561" 
d="M205 -200h-150v650h150v-34c31 31 72 46 125 46c60 0 108 -22 145 -65s56 -98 56 -165c0 -70 -22 -128 -67 -175c-45 -46 -103 -69 -175 -69c-34 0 -62 5 -84 14v-202zM283 322c-28 0 -54 -13 -78 -40v-137c19 -11 43 -17 70 -17c63 0 96 42 96 101c0 55 -33 93 -88 93z
" />
    <glyph glyph-name="q" unicode="q" horiz-adv-x="562" 
d="M507 -200h-150v209c-31 -14 -61 -21 -90 -21c-73 0 -130 22 -173 65s-64 101 -64 172c0 67 24 123 73 168c49 46 113 69 190 69c79 0 163 -24 214 -56v-606zM357 154v152c-23 11 -44 16 -65 16c-71 0 -102 -44 -102 -104c0 -25 9 -46 27 -64c18 -17 41 -26 70 -26
s52 9 70 26z" />
    <glyph glyph-name="r" unicode="r" horiz-adv-x="368" 
d="M205 0h-150v450h150v-36c20 29 51 44 93 44c31 0 55 -6 70 -17l-53 -140c-19 11 -38 17 -55 17c-25 0 -43 -11 -55 -32v-286z" />
    <glyph glyph-name="s" unicode="s" horiz-adv-x="459" 
d="M279 133c0 17 -37 27 -84 38c-67 15 -155 47 -154 144c0 93 75 147 176 147c79 0 142 -20 189 -61l-56 -106c-41 28 -82 42 -124 42c-21 0 -35 -9 -35 -20c0 -46 238 -17 238 -177c0 -92 -75 -152 -194 -152c-44 0 -86 9 -127 27c-40 19 -66 37 -78 56l71 98
c14 -14 36 -27 66 -39c30 -11 56 -17 78 -17c23 0 34 7 34 20z" />
    <glyph glyph-name="t" unicode="t" horiz-adv-x="366" 
d="M45 171v404h150v-125h125v-140h-125v-132c0 -33 10 -50 29 -50c21 0 44 9 67 26l45 -115c-39 -34 -90 -51 -151 -51c-99 0 -140 63 -140 183z" />
    <glyph glyph-name="u" unicode="u" horiz-adv-x="530" 
d="M325 450h150v-450h-150v45c-30 -38 -73 -57 -129 -57c-41 0 -77 15 -107 46c-29 31 -44 75 -44 133v283h150v-251c0 -40 18 -71 58 -71c26 0 50 14 72 41v281z" />
    <glyph glyph-name="v" unicode="v" horiz-adv-x="486" 
d="M338 450h158l-189 -450h-113l-204 450h178l58 -142c13 -32 23 -67 30 -104c7 38 16 73 29 105z" />
    <glyph glyph-name="w" unicode="w" horiz-adv-x="736" 
d="M585 450h151l-139 -450h-137l-80 208c-1 3 -6 20 -13 51c-3 -20 -7 -38 -14 -53l-80 -206h-129l-144 450h161l55 -206c2 -7 5 -26 10 -57c4 25 8 44 13 57l68 206h134l70 -205c3 -9 8 -28 14 -59c4 29 8 49 11 61z" />
    <glyph glyph-name="x" unicode="x" horiz-adv-x="537" 
d="M344 450h173l-140 -214l150 -236h-183l-78 142l-83 -142h-173l149 228l-139 222h183l69 -128z" />
    <glyph glyph-name="y" unicode="y" horiz-adv-x="516" 
d="M345 450h171l-175 -450c-32 -79 -61 -132 -86 -159s-56 -41 -91 -41c-38 0 -74 14 -107 42l48 113c16 -11 30 -16 43 -16c19 0 33 12 43 37l10 24l-201 450h181l77 -206c4 -11 10 -31 17 -62c3 27 6 48 11 63z" />
    <glyph glyph-name="z" unicode="z" horiz-adv-x="495" 
d="M246 310h-191v140h400v-110l-207 -200h202v-140h-410v110z" />
    <glyph glyph-name="braceleft" unicode="{" horiz-adv-x="390" 
d="M110 -43v105c0 72 -42 99 -90 98v130c47 0 90 30 90 110v85c0 115 48 165 177 165h83v-140h-45c-51 0 -65 -15 -65 -78v-92c0 -64 -30 -107 -75 -114c50 -6 75 -44 75 -114v-92c0 -59 18 -80 71 -80h39v-140h-95c-109 0 -165 45 -165 157z" />
    <glyph glyph-name="bar" unicode="|" horiz-adv-x="350" 
d="M250 0h-150v700h150v-700z" />
    <glyph glyph-name="braceright" unicode="}" horiz-adv-x="390" 
d="M280 62v-105c0 -112 -56 -157 -165 -157h-95v140h39c53 0 71 21 71 80v92c0 70 25 108 75 114c-45 7 -75 50 -75 114v92c0 63 -14 78 -65 78h-45v140h83c129 0 177 -50 177 -165v-85c0 -80 43 -110 90 -110v-130c-48 1 -90 -26 -90 -98z" />
    <glyph glyph-name="asciitilde" unicode="~" 
d="M97 269l-64 96c44 53 104 90 157 90c27 0 67 -11 118 -33c52 -22 91 -33 116 -33c29 0 65 21 85 45l58 -103c-51 -48 -99 -72 -144 -72c-28 0 -67 11 -117 33c-49 22 -85 33 -106 33c-31 0 -66 -19 -103 -56z" />
    <glyph glyph-name="uni00A0" unicode="&#xa0;" horiz-adv-x="200" 
 />
    <glyph glyph-name="exclamdown" unicode="&#xa1;" horiz-adv-x="310" 
d="M75 186h160v-430h-160v430zM253 360c0 -48 -41 -94 -102 -94c-53 0 -94 46 -94 94c0 55 39 102 94 102c61 0 102 -46 102 -102z" />
    <glyph glyph-name="cent" unicode="&#xa2;" 
d="M446 178l70 -110c-28 -39 -68 -63 -121 -73v-115h-150v120c-100 31 -160 113 -160 225c0 105 63 194 160 225v113h150v-108c47 -9 85 -28 112 -57l-69 -118c-28 28 -60 42 -96 42c-51 0 -97 -37 -97 -97c0 -29 10 -52 30 -70c21 -18 44 -27 69 -27c37 0 71 17 102 50z
" />
    <glyph glyph-name="sterling" unicode="&#xa3;" 
d="M166 255h-105v120h80l-10 17l-19 37c-9 19 -10 25 -15 40c-4 16 -6 30 -6 46c0 57 22 104 66 139c45 36 101 54 170 54c83 0 150 -27 201 -82l-82 -118c-38 33 -75 50 -112 50c-44 0 -73 -20 -73 -55c0 -18 8 -41 25 -70c17 -28 28 -47 32 -58h137v-120h-138
c-11 -25 -27 -49 -50 -72c17 -5 55 -18 74 -25c20 -5 50 -12 73 -12c41 0 76 14 106 43l65 -117c-47 -51 -105 -76 -173 -76c-26 0 -64 9 -115 26c-50 17 -88 26 -113 26c-32 0 -66 -18 -101 -55l-59 120c31 38 65 63 104 75c21 27 33 49 38 67z" />
    <glyph glyph-name="currency" unicode="&#xa4;" 
d="M66 340c0 41 10 79 29 114l-71 72l92 92l73 -74c32 15 69 23 111 23c39 0 76 -8 110 -23l74 73l92 -92l-71 -71c19 -35 29 -73 29 -114c0 -40 -9 -78 -28 -113l70 -69l-92 -92l-72 71c-34 -16 -71 -24 -112 -24s-79 8 -112 24l-72 -72l-92 92l70 70
c-19 33 -28 71 -28 113zM206 340c0 -56 37 -97 94 -97c61 0 94 40 94 97c0 61 -35 97 -94 97c-57 0 -94 -37 -94 -97z" />
    <glyph glyph-name="yen" unicode="&#xa5;" 
d="M219 285h-156v120h93l-153 295h183l120 -265l118 265h173l-155 -295h95v-120h-158v-60h158v-120h-158v-105h-160v105h-156v120h156v60z" />
    <glyph glyph-name="brokenbar" unicode="&#xa6;" horiz-adv-x="350" 
d="M250 700v-260h-150v260h150zM100 0v260h150v-260h-150z" />
    <glyph glyph-name="section" unicode="&#xa7;" horiz-adv-x="524" 
d="M50 249c0 77 38 141 110 170c-40 30 -60 75 -60 136c0 81 65 145 181 145c63 0 113 -25 151 -75l-89 -100c-21 23 -40 35 -56 35c-19 0 -37 -17 -37 -36c0 -34 19 -64 57 -90c108 -16 167 -89 167 -185c0 -77 -39 -141 -111 -170c39 -31 59 -75 59 -134
c0 -81 -65 -145 -181 -145c-63 0 -113 25 -151 75l89 100c21 -23 40 -35 56 -35c19 0 37 17 37 36c0 35 -19 64 -58 88c-107 16 -164 90 -164 185zM200 249c0 -28 18 -58 62 -58c47 0 62 27 62 58c0 29 -18 59 -62 59c-43 0 -62 -30 -62 -59z" />
    <glyph glyph-name="dieresis" unicode="&#xa8;" horiz-adv-x="471" 
d="M60 589c0 49 35 81 82 81c40 0 76 -32 76 -81c0 -53 -35 -86 -76 -86c-47 0 -82 33 -82 86zM253 589c0 49 37 81 82 81c41 0 76 -32 76 -81c0 -53 -35 -86 -76 -86c-47 0 -82 33 -82 86z" />
    <glyph glyph-name="copyright" unicode="&#xa9;" horiz-adv-x="1018" 
d="M197 -91c-85 85 -127 189 -127 312s42 227 127 312s189 127 312 127s227 -42 312 -127s127 -189 127 -312s-42 -227 -127 -312s-189 -127 -312 -127s-227 42 -312 127zM200 220c0 -85 29 -158 88 -218s133 -90 222 -90c87 0 160 30 219 90s89 133 89 218
c0 87 -29 160 -88 220s-132 90 -220 90c-89 0 -163 -30 -222 -90s-88 -133 -88 -220zM630 178l70 -110c-39 -53 -100 -80 -184 -80c-75 0 -135 22 -180 65s-67 101 -67 172c0 67 22 123 66 168c45 46 102 69 172 69c82 0 143 -21 184 -64l-69 -118c-28 28 -60 42 -96 42
c-51 0 -97 -37 -97 -97c0 -29 10 -52 30 -70c21 -18 44 -27 69 -27c37 0 71 17 102 50z" />
    <glyph glyph-name="ordfeminine" unicode="&#xaa;" horiz-adv-x="465" 
d="M128 532l-51 88c47 25 101 38 163 38c44 0 82 -12 115 -37c33 -24 50 -59 50 -106v-225h-130v38c-26 -29 -67 -44 -124 -44c-67 0 -111 50 -111 115c0 81 47 123 132 123c39 0 72 -6 101 -17c-6 29 -26 43 -59 43c-37 0 -66 -5 -86 -16zM220 394c18 0 36 5 55 14v15
c-21 6 -40 9 -56 9c-26 0 -39 -6 -39 -19s13 -19 40 -19z" />
    <glyph glyph-name="guillemotleft" unicode="&#xab;" horiz-adv-x="592" 
d="M562 98l-102 -85l-200 235v4l205 235l97 -87l-129 -150zM332 98l-102 -85l-200 235v4l205 235l97 -87l-129 -150z" />
    <glyph glyph-name="logicalnot" unicode="&#xac;" 
d="M427 295h-384v130h514v-261h-130v131z" />
    <glyph glyph-name="uni00AD" unicode="&#xad;" horiz-adv-x="364" 
d="M314 205h-264v140h264v-140z" />
    <glyph glyph-name="registered" unicode="&#xae;" horiz-adv-x="708" 
d="M40 498c0 86 31 159 92 220s136 92 224 92c86 0 159 -31 220 -92s92 -134 92 -220c0 -88 -31 -163 -92 -225c-61 -61 -134 -92 -220 -92c-89 0 -164 31 -225 92s-91 136 -91 225zM217 633c-38 -38 -57 -84 -57 -137s19 -99 57 -137s84 -57 137 -57s99 19 137 57
s57 84 57 137s-19 99 -57 137s-84 57 -137 57s-99 -19 -137 -57zM331 436v-76h-100v280h136c79 0 120 -37 120 -98c0 -39 -22 -71 -46 -83l43 -99h-114l-23 76h-16zM352 570h-21v-64h19c25 0 37 11 37 34c0 20 -12 30 -35 30z" />
    <glyph glyph-name="overscore" unicode="&#xaf;" horiz-adv-x="414" 
d="M354 520h-294v120h294v-120z" />
    <glyph glyph-name="degree" unicode="&#xb0;" horiz-adv-x="440" 
d="M40 568c0 52 17 95 52 130s77 52 126 52c51 0 94 -16 129 -49s53 -75 53 -126s-18 -94 -54 -131c-35 -36 -78 -54 -128 -54c-49 0 -91 17 -126 51s-52 76 -52 127zM185 605c-20 -20 -20 -50 0 -70s50 -20 70 0s20 50 0 70s-50 20 -70 0z" />
    <glyph glyph-name="plusminus" unicode="&#xb1;" 
d="M229 395h-166v130h166v171h140v-171h168v-130h-168v-83h-140v83zM537 145h-474v130h474v-130z" />
    <glyph glyph-name="twosuperior" unicode="&#xb2;" horiz-adv-x="376" 
d="M351 350h-326v94c81 45 130 76 148 91c16 14 24 26 24 36c0 15 -9 23 -26 23c-20 0 -34 -23 -38 -43l-107 39c12 71 68 114 160 114c96 0 150 -43 150 -114c0 -37 -19 -69 -54 -90c-35 -20 -53 -28 -89 -40h158v-110z" />
    <glyph glyph-name="threesuperior" unicode="&#xb3;" horiz-adv-x="372" 
d="M181 343c-76 0 -142 29 -171 78l74 70c13 -21 43 -43 74 -43c29 0 44 6 44 18c0 10 -15 15 -45 15h-27v90h25c24 0 36 6 36 18c0 9 -10 13 -29 13c-28 0 -55 -12 -80 -36l-61 71c35 47 91 70 168 70c83 0 142 -35 142 -90c0 -44 -27 -71 -80 -81v-1c59 -3 91 -36 91 -81
c0 -33 -16 -60 -48 -81c-31 -20 -69 -30 -113 -30z" />
    <glyph glyph-name="acute" unicode="&#xb4;" horiz-adv-x="340" 
d="M163 738l117 -89l-131 -146l-89 63z" />
    <glyph glyph-name="mu" unicode="&#xb5;" horiz-adv-x="540" 
d="M335 450h150v-450h-150v45c-30 -38 -73 -57 -129 -57h-1v-188h-150v650h150v-251c0 -40 18 -71 58 -71c26 0 50 14 72 41v281z" />
    <glyph glyph-name="mu" unicode="&#x3bc;" horiz-adv-x="540" 
d="M335 450h150v-450h-150v45c-30 -38 -73 -57 -129 -57h-1v-188h-150v650h150v-251c0 -40 18 -71 58 -71c26 0 50 14 72 41v281z" />
    <glyph glyph-name="paragraph" unicode="&#xb6;" horiz-adv-x="521" 
d="M30 481c0 66 22 119 65 159c44 40 99 60 164 60h242v-140h-94v-532c0 -157 -74 -236 -209 -236c-57 0 -118 25 -147 57l59 108c22 -17 48 -25 77 -25c47 0 70 34 70 102v229c-61 1 -114 21 -159 60c-45 40 -68 93 -68 158z" />
    <glyph glyph-name="middot" unicode="&#xb7;" horiz-adv-x="200" 
d="M2 306c0 48 41 94 102 94c53 0 94 -46 94 -94c0 -55 -39 -102 -94 -102c-61 0 -102 46 -102 102z" />
    <glyph glyph-name="cedilla" unicode="&#xb8;" horiz-adv-x="404" 
d="M60 -161l44 69c19 -19 41 -28 68 -28c15 0 22 4 22 13c0 11 -8 17 -25 17h-6v90h75v-26c71 -6 106 -36 106 -90c0 -57 -52 -94 -151 -94c-53 0 -97 16 -133 49z" />
    <glyph glyph-name="onesuperior" unicode="&#xb9;" horiz-adv-x="285" 
d="M57 530l-47 88l121 80h94v-348h-130v200z" />
    <glyph glyph-name="ordmasculine" unicode="&#xba;" horiz-adv-x="522" 
d="M109 335c-39 35 -59 80 -59 137s20 102 59 135c39 34 90 51 152 51s113 -17 152 -51c39 -33 59 -78 59 -135s-20 -102 -59 -137c-39 -34 -90 -51 -152 -51s-113 17 -152 51zM190 472c0 -43 30 -68 71 -68c44 0 71 25 71 68c0 40 -28 66 -71 66s-71 -26 -71 -66z" />
    <glyph glyph-name="guillemotright" unicode="&#xbb;" horiz-adv-x="592" 
d="M562 252v-4l-200 -235l-102 85l129 152l-129 150l97 87zM332 252v-4l-200 -235l-102 85l129 152l-129 150l97 87z" />
    <glyph glyph-name="onequarter" unicode="&#xbc;" horiz-adv-x="713" 
d="M641 0h-120v61h-191v87l141 202h123l-134 -189h61v64h120v-64h52v-100h-52v-61zM126 -12l-86 59l497 665l84 -63zM57 530l-47 88l121 80h94v-348h-130v200z" />
    <glyph glyph-name="onehalf" unicode="&#xbd;" horiz-adv-x="731" 
d="M57 530l-47 88l121 80h94v-348h-130v200zM126 -12l-86 59l497 665l84 -63zM691 0h-326v94c81 45 130 76 148 91c15 14 23 26 24 36c0 15 -9 23 -26 23c-20 0 -34 -23 -38 -43l-107 39c12 71 68 114 160 114c96 0 150 -43 150 -114c0 -37 -19 -69 -54 -90
c-35 -20 -53 -28 -89 -40h158v-110z" />
    <glyph glyph-name="threequarters" unicode="&#xbe;" horiz-adv-x="783" 
d="M191 343c-76 0 -142 29 -171 78l74 70c13 -21 43 -43 74 -43c29 0 44 6 44 18c0 10 -15 15 -45 15h-27v90h25c24 0 36 6 36 18c0 9 -10 13 -29 13c-28 0 -55 -12 -80 -36l-61 71c35 47 91 70 168 70c83 0 142 -35 142 -90c0 -44 -27 -71 -80 -81v-1c59 -3 91 -36 91 -81
c0 -33 -16 -60 -48 -81c-31 -20 -69 -30 -113 -30zM711 0h-120v61h-191v87l141 202h123l-134 -189h61v64h120v-64h52v-100h-52v-61zM206 -12l-86 59l497 665l84 -63z" />
    <glyph glyph-name="questiondown" unicode="&#xbf;" horiz-adv-x="481" 
d="M181 -44c0 -32 30 -62 66 -62c49 0 75 15 106 54l88 -101c-37 -61 -111 -103 -202 -103c-67 0 -120 17 -160 52c-39 34 -59 76 -59 127c0 72 29 129 64 161c52 49 116 84 108 140h136c8 -61 -11 -107 -42 -135c-44 -38 -105 -70 -105 -133zM354 360
c0 -48 -41 -94 -102 -94c-53 0 -94 46 -94 94c0 55 39 102 94 102c61 0 102 -46 102 -102z" />
    <glyph glyph-name="Agrave" unicode="&#xc0;" horiz-adv-x="725" 
d="M161 0h-161l291 700h143l291 -700h-171l-58 147h-277zM436 297l-78 198l-79 -198h157zM467 817l-41 -89l-249 78l56 129z" />
    <glyph glyph-name="Aacute" unicode="&#xc1;" horiz-adv-x="725" 
d="M161 0h-161l291 700h143l291 -700h-171l-58 147h-277zM436 297l-78 198l-79 -198h157zM491 935l56 -129l-249 -78l-41 89z" />
    <glyph glyph-name="Acircumflex" unicode="&#xc2;" horiz-adv-x="725" 
d="M161 0h-161l291 700h143l291 -700h-171l-58 147h-277zM436 297l-78 198l-79 -198h157zM231 723l-52 83l178 119h4l184 -117l-58 -85l-128 66z" />
    <glyph glyph-name="Atilde" unicode="&#xc3;" horiz-adv-x="725" 
d="M161 0h-161l291 700h143l291 -700h-171l-58 147h-277zM436 297l-78 198l-79 -198h157zM220 746l-46 94c31 37 81 63 125 63c21 0 44 -5 70 -15s48 -15 65 -15c33 0 59 10 78 30l38 -94c-27 -44 -69 -66 -126 -66c-16 0 -38 5 -67 15c-28 10 -52 15 -71 15
c-22 0 -44 -9 -66 -27z" />
    <glyph glyph-name="Adieresis" unicode="&#xc4;" horiz-adv-x="725" 
d="M161 0h-161l291 700h143l291 -700h-171l-58 147h-277zM436 297l-78 198l-79 -198h157zM152 837c0 48 42 78 98 78c49 0 91 -31 91 -78c0 -52 -42 -84 -91 -84c-56 0 -98 31 -98 84zM383 837c0 48 43 78 98 78c49 0 91 -31 91 -78c0 -52 -40 -84 -91 -84
c-56 0 -98 31 -98 84z" />
    <glyph glyph-name="Aring" unicode="&#xc5;" horiz-adv-x="725" 
d="M205 809c0 79 64 118 155 118c95 0 160 -39 160 -118c0 -54 -29 -91 -86 -110l291 -699h-171l-58 147h-277l-58 -147h-161l290 698c-57 19 -85 56 -85 111zM436 297l-78 198l-79 -198h157zM315 809c0 -27 16 -41 47 -41c32 0 48 14 48 41c0 25 -16 38 -48 38
c-31 0 -47 -13 -47 -38z" />
    <glyph glyph-name="AE" unicode="&#xc6;" horiz-adv-x="946" 
d="M463 700h413v-150h-255v-123h225v-150h-225v-127h265v-150h-425v147h-215l-101 -147h-185zM461 297v160l-111 -160h111z" />
    <glyph glyph-name="Ccedilla" unicode="&#xc7;" horiz-adv-x="655" 
d="M233 -157l48 74c17 -17 50 -37 74 -37c15 0 22 4 22 13c0 11 -8 17 -25 17h-6v82c-93 12 -167 50 -223 114c-55 65 -83 146 -83 244c0 105 32 192 96 260s154 102 270 102c89 0 170 -30 214 -73l-71 -120c-47 29 -95 43 -143 43c-57 0 -104 -19 -141 -56
s-55 -89 -55 -156c0 -62 20 -113 59 -153c39 -39 90 -59 153 -59c56 0 107 17 152 51l61 -120c-40 -45 -125 -78 -214 -81v-14c77 -6 116 -36 116 -90c0 -56 -54 -94 -145 -94c-67 0 -120 18 -159 53z" />
    <glyph glyph-name="Egrave" unicode="&#xc8;" horiz-adv-x="575" 
d="M515 0h-425v700h415v-150h-255v-123h225v-150h-225v-127h265v-150zM407 817l-41 -89l-249 78l56 129z" />
    <glyph glyph-name="Eacute" unicode="&#xc9;" horiz-adv-x="575" 
d="M515 0h-425v700h415v-150h-255v-123h225v-150h-225v-127h265v-150zM441 935l56 -129l-249 -78l-41 89z" />
    <glyph glyph-name="Ecircumflex" unicode="&#xca;" horiz-adv-x="575" 
d="M515 0h-425v700h415v-150h-255v-123h225v-150h-225v-127h265v-150zM167 723l-52 83l178 119h4l184 -117l-58 -85l-128 66z" />
    <glyph glyph-name="Edieresis" unicode="&#xcb;" horiz-adv-x="575" 
d="M92 837c0 48 42 78 98 78c49 0 91 -31 91 -78c0 -52 -42 -84 -91 -84c-56 0 -98 31 -98 84zM323 837c0 48 43 78 98 78c49 0 91 -31 91 -78c0 -52 -40 -84 -91 -84c-56 0 -98 31 -98 84zM515 0h-425v700h415v-150h-255v-123h225v-150h-225v-127h265v-150z" />
    <glyph glyph-name="Igrave" unicode="&#xcc;" horiz-adv-x="360" 
d="M260 0h-160v700h160v-700zM277 817l-41 -89l-249 78l56 129z" />
    <glyph glyph-name="Iacute" unicode="&#xcd;" horiz-adv-x="360" 
d="M260 0h-160v700h160v-700zM321 935l56 -129l-249 -78l-41 89z" />
    <glyph glyph-name="Icircumflex" unicode="&#xce;" horiz-adv-x="360" 
d="M49 723l-52 83l178 119h4l184 -117l-58 -85l-128 66zM260 0h-160v700h160v-700z" />
    <glyph glyph-name="Idieresis" unicode="&#xcf;" horiz-adv-x="360" 
d="M-30 837c0 48 42 78 98 78c49 0 91 -31 91 -78c0 -52 -42 -84 -91 -84c-56 0 -98 31 -98 84zM201 837c0 48 43 78 98 78c49 0 91 -31 91 -78c0 -52 -40 -84 -91 -84c-56 0 -98 31 -98 84zM260 0h-160v700h160v-700z" />
    <glyph glyph-name="Eth" unicode="&#xd0;" horiz-adv-x="744" 
d="M90 278h-80v140h80v282h14c11 0 45 0 100 1s91 2 107 2c132 0 230 -33 295 -98s98 -148 98 -249c0 -103 -35 -189 -105 -257c-69 -67 -168 -101 -296 -101c-10 0 -39 0 -87 1s-84 1 -109 1h-17v278zM309 553c-26 0 -46 -1 -59 -3v-132h164v-140h-164v-128
c14 -1 33 -2 58 -2c140 0 226 76 226 208c0 125 -90 197 -225 197z" />
    <glyph glyph-name="Ntilde" unicode="&#xd1;" horiz-adv-x="790" 
d="M700 700v-700h-128l-332 420v-420h-150v700h128l332 -422v422h150zM261 746l-46 94c31 37 81 63 125 63c21 0 44 -5 70 -15s48 -15 65 -15c33 0 59 10 78 30l38 -94c-27 -44 -69 -66 -126 -66c-16 0 -38 5 -67 15c-28 10 -52 15 -71 15c-22 0 -44 -9 -66 -27z" />
    <glyph glyph-name="Ograve" unicode="&#xd2;" horiz-adv-x="824" 
d="M40 350c0 103 34 189 103 258s159 104 269 104c109 0 198 -33 267 -99c70 -66 105 -154 105 -263c0 -105 -35 -192 -106 -260c-70 -68 -159 -102 -266 -102c-109 0 -198 33 -268 99c-69 66 -104 154 -104 263zM210 350c0 -60 20 -110 59 -151s87 -61 143 -61
c64 0 114 20 149 59c35 40 53 91 53 153c0 63 -19 114 -58 153s-87 59 -144 59c-59 0 -107 -20 -145 -59s-57 -90 -57 -153zM527 817l-41 -89l-249 78l56 129z" />
    <glyph glyph-name="Oacute" unicode="&#xd3;" horiz-adv-x="824" 
d="M40 350c0 103 34 189 103 258s159 104 269 104c109 0 198 -33 267 -99c70 -66 105 -154 105 -263c0 -105 -35 -192 -106 -260c-70 -68 -159 -102 -266 -102c-109 0 -198 33 -268 99c-69 66 -104 154 -104 263zM210 350c0 -60 20 -110 59 -151s87 -61 143 -61
c64 0 114 20 149 59c35 40 53 91 53 153c0 63 -19 114 -58 153s-87 59 -144 59c-59 0 -107 -20 -145 -59s-57 -90 -57 -153zM561 935l56 -129l-249 -78l-41 89z" />
    <glyph glyph-name="Ocircumflex" unicode="&#xd4;" horiz-adv-x="824" 
d="M40 350c0 103 34 189 103 258s159 104 269 104c109 0 198 -33 267 -99c70 -66 105 -154 105 -263c0 -105 -35 -192 -106 -260c-70 -68 -159 -102 -266 -102c-109 0 -198 33 -268 99c-69 66 -104 154 -104 263zM210 350c0 -60 20 -110 59 -151s87 -61 143 -61
c64 0 114 20 149 59c35 40 53 91 53 153c0 63 -19 114 -58 153s-87 59 -144 59c-59 0 -107 -20 -145 -59s-57 -90 -57 -153zM284 723l-52 83l178 119h4l184 -117l-58 -85l-128 66z" />
    <glyph glyph-name="Otilde" unicode="&#xd5;" horiz-adv-x="824" 
d="M40 350c0 103 34 189 103 258s159 104 269 104c109 0 198 -33 267 -99c70 -66 105 -154 105 -263c0 -105 -35 -192 -106 -260c-70 -68 -159 -102 -266 -102c-109 0 -198 33 -268 99c-69 66 -104 154 -104 263zM210 350c0 -60 20 -110 59 -151s87 -61 143 -61
c64 0 114 20 149 59c35 40 53 91 53 153c0 63 -19 114 -58 153s-87 59 -144 59c-59 0 -107 -20 -145 -59s-57 -90 -57 -153zM263 746l-46 94c31 37 81 63 125 63c21 0 44 -5 70 -15s48 -15 65 -15c33 0 59 10 78 30l38 -94c-27 -44 -69 -66 -126 -66c-16 0 -38 5 -67 15
c-28 10 -52 15 -71 15c-22 0 -44 -9 -66 -27z" />
    <glyph glyph-name="Odieresis" unicode="&#xd6;" horiz-adv-x="824" 
d="M40 350c0 103 34 189 103 258s159 104 269 104c109 0 198 -33 267 -99c70 -66 105 -154 105 -263c0 -105 -35 -192 -106 -260c-70 -68 -159 -102 -266 -102c-109 0 -198 33 -268 99c-69 66 -104 154 -104 263zM210 350c0 -60 20 -110 59 -151s87 -61 143 -61
c64 0 114 20 149 59c35 40 53 91 53 153c0 63 -19 114 -58 153s-87 59 -144 59c-59 0 -107 -20 -145 -59s-57 -90 -57 -153zM197 837c0 48 42 78 98 78c49 0 91 -31 91 -78c0 -52 -42 -84 -91 -84c-56 0 -98 31 -98 84zM428 837c0 48 43 78 98 78c49 0 91 -31 91 -78
c0 -52 -40 -84 -91 -84c-56 0 -98 31 -98 84z" />
    <glyph glyph-name="multiply" unicode="&#xd7;" 
d="M208 360l-121 121l92 92l121 -121l121 121l92 -92l-121 -121l122 -122l-92 -92l-122 122l-122 -122l-92 92z" />
    <glyph glyph-name="Oslash" unicode="&#xd8;" horiz-adv-x="824" 
d="M40 350c0 103 34 189 103 258s159 104 269 104c79 0 150 -19 211 -56l37 36l86 -88l-31 -31c46 -61 69 -135 69 -223c0 -105 -35 -192 -106 -260c-70 -68 -159 -102 -266 -102c-89 0 -165 22 -228 66l-40 -39l-86 88l40 39c-39 59 -58 129 -58 208zM614 350
c0 38 -8 72 -23 103l-288 -282c33 -22 69 -33 109 -33c64 0 114 20 149 59c35 40 53 91 53 153zM210 350c0 -31 5 -58 15 -83l280 273c-29 15 -60 22 -93 22c-59 0 -107 -20 -145 -59s-57 -90 -57 -153z" />
    <glyph glyph-name="Ugrave" unicode="&#xd9;" horiz-adv-x="751" 
d="M511 700h160v-411c0 -101 -27 -176 -82 -226c-54 -50 -122 -75 -204 -75c-93 0 -167 26 -222 79s-83 129 -83 229v404h160v-370c0 -128 48 -192 145 -192c92 0 126 63 126 183v379zM477 817l-41 -89l-249 78l56 129z" />
    <glyph glyph-name="Uacute" unicode="&#xda;" horiz-adv-x="751" 
d="M511 700h160v-411c0 -101 -27 -176 -82 -226c-54 -50 -122 -75 -204 -75c-93 0 -167 26 -222 79s-83 129 -83 229v404h160v-370c0 -128 48 -192 145 -192c92 0 126 63 126 183v379zM521 935l56 -129l-249 -78l-41 89z" />
    <glyph glyph-name="Ucircumflex" unicode="&#xdb;" horiz-adv-x="751" 
d="M511 700h160v-411c0 -101 -27 -176 -82 -226c-54 -50 -122 -75 -204 -75c-93 0 -167 26 -222 79s-83 129 -83 229v404h160v-370c0 -128 48 -192 145 -192c92 0 126 63 126 183v379zM243 723l-52 83l178 119h4l184 -117l-58 -85l-128 66z" />
    <glyph glyph-name="Udieresis" unicode="&#xdc;" horiz-adv-x="751" 
d="M157 837c0 48 42 78 98 78c49 0 91 -31 91 -78c0 -52 -42 -84 -91 -84c-56 0 -98 31 -98 84zM388 837c0 48 43 78 98 78c49 0 91 -31 91 -78c0 -52 -40 -84 -91 -84c-56 0 -98 31 -98 84zM511 700h160v-411c0 -101 -27 -176 -82 -226c-54 -50 -122 -75 -204 -75
c-93 0 -167 26 -222 79s-83 129 -83 229v404h160v-370c0 -128 48 -192 145 -192c92 0 126 63 126 183v379z" />
    <glyph glyph-name="Yacute" unicode="&#xdd;" horiz-adv-x="654" 
d="M481 700h173l-248 -415v-285h-160v285l-246 415h183l150 -265zM471 935l56 -129l-249 -78l-41 89z" />
    <glyph glyph-name="Thorn" unicode="&#xde;" horiz-adv-x="627" 
d="M250 138v-138h-160v700h160v-100c3 0 11 0 26 1s24 1 28 1c99 0 171 -22 216 -66c45 -43 67 -99 67 -166c0 -65 -24 -121 -71 -167c-47 -45 -110 -68 -188 -68c-35 0 -61 1 -78 3zM306 452c-19 0 -37 -1 -56 -4v-158c25 -3 50 -5 73 -5c51 0 94 25 94 86
c0 54 -37 81 -111 81z" />
    <glyph glyph-name="germandbls" unicode="&#xdf;" horiz-adv-x="556" 
d="M376 167c0 31 -36 62 -72 83c-17 11 -34 27 -49 47c-29 40 -26 95 -11 132c15 39 32 51 47 72c22 33 10 71 -38 71c-39 0 -53 -27 -53 -90v-482h-150v493c0 146 75 219 225 219c53 0 98 -15 133 -44c36 -29 54 -64 54 -105c0 -45 -18 -81 -35 -97
c-16 -16 -34 -43 -34 -72c0 -31 22 -55 50 -75c41 -27 93 -65 93 -157c0 -47 -15 -88 -46 -123c-30 -34 -69 -51 -118 -51c-64 0 -114 18 -149 53l46 115c23 -19 45 -28 66 -28c27 0 41 13 41 39z" />
    <glyph glyph-name="agrave" unicode="&#xe0;" horiz-adv-x="465" 
d="M103 309l-37 109c39 24 107 44 167 44c133 0 187 -64 187 -191v-271h-130v41c-22 -31 -61 -47 -118 -47c-84 0 -142 53 -142 142c0 97 67 149 162 149c37 0 67 -8 88 -25c3 51 -18 77 -62 77c-29 0 -68 -9 -115 -28zM223 119c27 0 46 8 57 23v28c-14 10 -33 15 -57 15
c-25 0 -43 -13 -43 -34c0 -20 18 -32 43 -32zM333 566l-89 -63l-133 144l119 89z" />
    <glyph glyph-name="aacute" unicode="&#xe1;" horiz-adv-x="465" 
d="M103 309l-37 109c39 24 107 44 167 44c133 0 187 -64 187 -191v-271h-130v41c-22 -31 -61 -47 -118 -47c-84 0 -142 53 -142 142c0 97 67 149 162 149c37 0 67 -8 88 -25c3 51 -18 77 -62 77c-29 0 -68 -9 -115 -28zM223 119c27 0 46 8 57 23v28c-14 10 -33 15 -57 15
c-25 0 -43 -13 -43 -34c0 -20 18 -32 43 -32zM247 738l117 -89l-131 -146l-89 63z" />
    <glyph glyph-name="acircumflex" unicode="&#xe2;" horiz-adv-x="465" 
d="M103 309l-37 109c39 24 107 44 167 44c133 0 187 -64 187 -191v-271h-130v41c-22 -31 -61 -47 -118 -47c-84 0 -142 53 -142 142c0 97 67 149 162 149c37 0 67 -8 88 -25c3 51 -18 77 -62 77c-29 0 -68 -9 -115 -28zM223 119c27 0 46 8 57 23v28c-14 10 -33 15 -57 15
c-25 0 -43 -13 -43 -34c0 -20 18 -32 43 -32zM230 706h4l165 -136l-70 -88l-98 81l-100 -79l-67 87z" />
    <glyph glyph-name="atilde" unicode="&#xe3;" horiz-adv-x="465" 
d="M103 309l-37 109c39 24 107 44 167 44c133 0 187 -64 187 -191v-271h-130v41c-22 -31 -61 -47 -118 -47c-84 0 -142 53 -142 142c0 97 67 149 162 149c37 0 67 -8 88 -25c3 51 -18 77 -62 77c-29 0 -68 -9 -115 -28zM223 119c27 0 46 8 57 23v28c-14 10 -33 15 -57 15
c-25 0 -43 -13 -43 -34c0 -20 18 -32 43 -32zM104 519l-60 67c37 52 81 78 132 78c16 0 36 -7 61 -20s44 -19 57 -19s22 1 31 5c9 2 23 15 35 22l49 -75c-40 -48 -82 -72 -127 -72c-15 0 -34 6 -59 19s-45 20 -60 20c-10 0 -30 -8 -59 -25z" />
    <glyph glyph-name="adieresis" unicode="&#xe4;" horiz-adv-x="465" 
d="M103 309l-37 109c39 24 107 44 167 44c133 0 187 -64 187 -191v-271h-130v41c-22 -31 -61 -47 -118 -47c-84 0 -142 53 -142 142c0 97 67 149 162 149c37 0 67 -8 88 -25c3 51 -18 77 -62 77c-29 0 -68 -9 -115 -28zM223 119c27 0 46 8 57 23v28c-14 10 -33 15 -57 15
c-25 0 -43 -13 -43 -34c0 -20 18 -32 43 -32zM67 589c0 49 35 81 82 81c40 0 76 -32 76 -81c0 -53 -35 -86 -76 -86c-47 0 -82 33 -82 86zM260 589c0 49 37 81 82 81c41 0 76 -32 76 -81c0 -53 -35 -86 -76 -86c-47 0 -82 33 -82 86z" />
    <glyph glyph-name="aring" unicode="&#xe5;" horiz-adv-x="465" 
d="M103 309l-37 109c39 24 107 44 167 44c133 0 187 -64 187 -191v-271h-130v41c-22 -31 -61 -47 -118 -47c-84 0 -142 53 -142 142c0 97 67 149 162 149c37 0 67 -8 88 -25c3 51 -18 77 -62 77c-29 0 -68 -9 -115 -28zM223 119c27 0 46 8 57 23v28c-14 10 -33 15 -57 15
c-25 0 -43 -13 -43 -34c0 -20 18 -32 43 -32zM107 611c0 36 13 66 39 91s59 38 98 38c40 0 73 -13 99 -38c27 -25 40 -55 40 -91c0 -35 -13 -65 -40 -90c-26 -25 -59 -37 -99 -37c-39 0 -72 12 -98 37s-39 55 -39 90zM202 613c0 -28 17 -49 44 -49c25 0 42 21 42 49
c0 27 -17 47 -42 47c-27 0 -44 -20 -44 -47z" />
    <glyph glyph-name="ae" unicode="&#xe6;" horiz-adv-x="742" 
d="M233 462c59 0 103 -13 132 -38c40 25 86 38 139 38c60 0 111 -20 154 -60c43 -39 64 -90 64 -152c0 -30 -3 -55 -9 -75h-293v-14c13 -28 52 -48 100 -48c45 0 84 11 118 32l41 -106c-51 -34 -108 -51 -171 -51c-68 0 -123 17 -166 50c-45 -32 -93 -48 -144 -48
c-111 0 -168 54 -168 154c0 85 65 141 162 141c31 0 73 -13 88 -25c5 47 -23 78 -56 78c-23 0 -42 -2 -62 -7l-21 -7c-9 -3 -35 -14 -38 -15l-37 109c40 24 108 44 167 44zM419 295c0 -4 1 -15 1 -20h152c-4 36 -29 63 -78 62c-34 0 -59 -14 -75 -42zM223 119
c19 0 37 7 55 20l2 31c-14 10 -33 15 -57 15c-27 0 -43 -15 -43 -34c0 -16 14 -32 43 -32z" />
    <glyph glyph-name="ccedilla" unicode="&#xe7;" horiz-adv-x="485" 
d="M119 -161l44 69c19 -19 41 -28 68 -28c15 0 22 4 22 13c0 11 -8 17 -25 17h-6v83c-119 20 -192 108 -192 232c0 67 22 123 66 168c45 46 102 69 172 69c82 0 143 -21 184 -64l-69 -118c-28 28 -60 42 -96 42c-51 0 -97 -37 -97 -97c0 -29 10 -52 30 -70
c21 -18 44 -27 69 -27c37 0 71 17 102 50l70 -110c-35 -49 -90 -75 -164 -79v-15c71 -6 106 -36 106 -90c0 -57 -52 -94 -151 -94c-53 0 -97 16 -133 49z" />
    <glyph glyph-name="egrave" unicode="&#xe8;" horiz-adv-x="512" 
d="M408 145l41 -106c-45 -34 -104 -51 -175 -51c-74 0 -133 22 -178 65c-44 43 -66 101 -66 172c0 67 22 124 67 169s104 68 177 68c60 0 111 -20 154 -60c43 -39 64 -90 64 -152c0 -30 -3 -55 -9 -75h-298c13 -41 48 -62 105 -62c45 0 84 11 118 32zM269 337
c-45 0 -74 -21 -89 -62h162c0 33 -28 62 -73 62zM378 566l-89 -63l-133 144l119 89z" />
    <glyph glyph-name="eacute" unicode="&#xe9;" horiz-adv-x="512" 
d="M408 145l41 -106c-45 -34 -104 -51 -175 -51c-74 0 -133 22 -178 65c-44 43 -66 101 -66 172c0 67 22 124 67 169s104 68 177 68c60 0 111 -20 154 -60c43 -39 64 -90 64 -152c0 -30 -3 -55 -9 -75h-298c13 -41 48 -62 105 -62c45 0 84 11 118 32zM269 337
c-45 0 -74 -21 -89 -62h162c0 33 -28 62 -73 62zM292 738l117 -89l-131 -146l-89 63z" />
    <glyph glyph-name="ecircumflex" unicode="&#xea;" horiz-adv-x="512" 
d="M408 145l41 -106c-45 -34 -104 -51 -175 -51c-74 0 -133 22 -178 65c-44 43 -66 101 -66 172c0 67 22 124 67 169s104 68 177 68c60 0 111 -20 154 -60c43 -39 64 -90 64 -152c0 -30 -3 -55 -9 -75h-298c13 -41 48 -62 105 -62c45 0 84 11 118 32zM269 337
c-45 0 -74 -21 -89 -62h162c0 33 -28 62 -73 62zM265 706h4l165 -136l-70 -88l-98 81l-100 -79l-67 87z" />
    <glyph glyph-name="edieresis" unicode="&#xeb;" horiz-adv-x="512" 
d="M408 145l41 -106c-45 -34 -104 -51 -175 -51c-74 0 -133 22 -178 65c-44 43 -66 101 -66 172c0 67 22 124 67 169s104 68 177 68c60 0 111 -20 154 -60c43 -39 64 -90 64 -152c0 -30 -3 -55 -9 -75h-298c13 -41 48 -62 105 -62c45 0 84 11 118 32zM269 337
c-45 0 -74 -21 -89 -62h162c0 33 -28 62 -73 62zM95 589c0 49 35 81 82 81c40 0 76 -32 76 -81c0 -53 -35 -86 -76 -86c-47 0 -82 33 -82 86zM288 589c0 49 37 81 82 81c41 0 76 -32 76 -81c0 -53 -35 -86 -76 -86c-47 0 -82 33 -82 86z" />
    <glyph glyph-name="igrave" unicode="&#xec;" horiz-adv-x="286" 
d="M218 0h-150v450h150v-450zM208 566l-89 -63l-133 144l119 89z" />
    <glyph glyph-name="iacute" unicode="&#xed;" horiz-adv-x="286" 
d="M218 0h-150v450h150v-450zM152 738l117 -89l-131 -146l-89 63z" />
    <glyph glyph-name="icircumflex" unicode="&#xee;" horiz-adv-x="286" 
d="M142 706h4l165 -136l-70 -88l-98 81l-100 -79l-67 87zM218 0h-150v450h150v-450z" />
    <glyph glyph-name="idieresis" unicode="&#xef;" horiz-adv-x="286" 
d="M-32 589c0 49 35 81 82 81c40 0 76 -32 76 -81c0 -53 -35 -86 -76 -86c-47 0 -82 33 -82 86zM161 589c0 49 37 81 82 81c41 0 76 -32 76 -81c0 -53 -35 -86 -76 -86c-47 0 -82 33 -82 86zM218 0h-150v450h150v-450z" />
    <glyph glyph-name="eth" unicode="&#xf0;" horiz-adv-x="560" 
d="M302 510l-121 -37l-42 134l66 20c-21 20 -44 41 -71 63l169 22c19 -13 36 -26 51 -40l100 31l41 -134l-47 -15c55 -94 82 -190 82 -287c0 -176 -95 -279 -250 -279c-75 0 -136 22 -182 67c-45 45 -68 101 -68 170s23 125 68 170c46 45 107 67 182 67c19 0 37 -4 54 -12
c-8 19 -19 39 -32 60zM190 225c0 -56 38 -97 90 -97c60 0 99 56 90 145c-15 33 -45 49 -90 49c-51 0 -90 -38 -90 -97z" />
    <glyph glyph-name="ntilde" unicode="&#xf1;" horiz-adv-x="544" 
d="M205 0h-150v450h150v-35c30 29 67 43 111 43c122 0 183 -63 183 -190v-268h-150v242c0 51 -29 76 -74 76c-26 0 -49 -10 -70 -31v-287zM147 519l-60 67c37 52 81 78 132 78c16 0 36 -7 61 -20s44 -19 57 -19s22 1 31 5c9 2 23 15 35 22l49 -75c-40 -48 -82 -72 -127 -72
c-15 0 -34 6 -59 19s-45 20 -60 20c-10 0 -30 -8 -59 -25z" />
    <glyph glyph-name="ograve" unicode="&#xf2;" horiz-adv-x="560" 
d="M98 55c-45 45 -68 101 -68 170s23 125 68 170c46 45 107 67 182 67s136 -22 181 -67c46 -45 69 -101 69 -170s-23 -125 -69 -170c-45 -45 -106 -67 -181 -67s-136 22 -182 67zM190 225c0 -56 38 -97 90 -97s90 37 90 97c0 57 -39 97 -90 97s-90 -38 -90 -97zM365 566
l-89 -63l-133 144l119 89z" />
    <glyph glyph-name="oacute" unicode="&#xf3;" horiz-adv-x="560" 
d="M98 55c-45 45 -68 101 -68 170s23 125 68 170c46 45 107 67 182 67s136 -22 181 -67c46 -45 69 -101 69 -170s-23 -125 -69 -170c-45 -45 -106 -67 -181 -67s-136 22 -182 67zM190 225c0 -56 38 -97 90 -97s90 37 90 97c0 57 -39 97 -90 97s-90 -38 -90 -97zM299 738
l117 -89l-131 -146l-89 63z" />
    <glyph glyph-name="ocircumflex" unicode="&#xf4;" horiz-adv-x="560" 
d="M98 55c-45 45 -68 101 -68 170s23 125 68 170c46 45 107 67 182 67s136 -22 181 -67c46 -45 69 -101 69 -170s-23 -125 -69 -170c-45 -45 -106 -67 -181 -67s-136 22 -182 67zM190 225c0 -56 38 -97 90 -97s90 37 90 97c0 57 -39 97 -90 97s-90 -38 -90 -97zM281 706h4
l165 -136l-70 -88l-98 81l-100 -79l-67 87z" />
    <glyph glyph-name="otilde" unicode="&#xf5;" horiz-adv-x="560" 
d="M98 55c-45 45 -68 101 -68 170s23 125 68 170c46 45 107 67 182 67s136 -22 181 -67c46 -45 69 -101 69 -170s-23 -125 -69 -170c-45 -45 -106 -67 -181 -67s-136 22 -182 67zM190 225c0 -56 38 -97 90 -97s90 37 90 97c0 57 -39 97 -90 97s-90 -38 -90 -97zM155 519
l-60 67c37 52 81 78 132 78c16 0 36 -7 61 -20s44 -19 57 -19s22 1 31 5c9 2 23 15 35 22l49 -75c-40 -48 -82 -72 -127 -72c-15 0 -34 6 -59 19s-45 20 -60 20c-10 0 -30 -8 -59 -25z" />
    <glyph glyph-name="odieresis" unicode="&#xf6;" horiz-adv-x="560" 
d="M98 55c-45 45 -68 101 -68 170s23 125 68 170c46 45 107 67 182 67s136 -22 181 -67c46 -45 69 -101 69 -170s-23 -125 -69 -170c-45 -45 -106 -67 -181 -67s-136 22 -182 67zM190 225c0 -56 38 -97 90 -97s90 37 90 97c0 57 -39 97 -90 97s-90 -38 -90 -97zM113 589
c0 49 35 81 82 81c40 0 76 -32 76 -81c0 -53 -35 -86 -76 -86c-47 0 -82 33 -82 86zM306 589c0 49 37 81 82 81c41 0 76 -32 76 -81c0 -53 -35 -86 -76 -86c-47 0 -82 33 -82 86z" />
    <glyph glyph-name="divide" unicode="&#xf7;" 
d="M213 550c0 44 34 83 87 83c51 0 85 -40 85 -83c0 -48 -33 -89 -85 -89c-55 0 -87 41 -87 89zM213 172c0 43 34 83 87 83c49 0 85 -42 85 -83c0 -48 -33 -89 -85 -89c-55 0 -87 40 -87 89zM537 295h-474v130h474v-130z" />
    <glyph glyph-name="oslash" unicode="&#xf8;" horiz-adv-x="580" 
d="M98 4l-54 63l27 24c-27 37 -41 82 -41 134c0 68 24 124 73 169s111 68 187 68c58 0 109 -14 154 -43l34 30l53 -62l-26 -23c30 -41 45 -87 45 -139c0 -68 -24 -125 -73 -170s-111 -67 -187 -67c-63 0 -116 15 -159 45zM390 225c0 11 -2 22 -5 33l-138 -123
c11 -5 26 -7 43 -7c61 0 100 37 100 97zM190 225c0 -9 1 -18 3 -27l134 118c-11 4 -24 6 -37 6c-59 0 -100 -37 -100 -97z" />
    <glyph glyph-name="ugrave" unicode="&#xf9;" horiz-adv-x="530" 
d="M325 450h150v-450h-150v45c-30 -38 -73 -57 -129 -57c-41 0 -77 15 -107 46c-29 31 -44 75 -44 133v283h150v-251c0 -40 18 -71 58 -71c26 0 50 14 72 41v281zM345 566l-89 -63l-133 144l119 89z" />
    <glyph glyph-name="uacute" unicode="&#xfa;" horiz-adv-x="530" 
d="M325 450h150v-450h-150v45c-30 -38 -73 -57 -129 -57c-41 0 -77 15 -107 46c-29 31 -44 75 -44 133v283h150v-251c0 -40 18 -71 58 -71c26 0 50 14 72 41v281zM289 738l117 -89l-131 -146l-89 63z" />
    <glyph glyph-name="ucircumflex" unicode="&#xfb;" horiz-adv-x="530" 
d="M325 450h150v-450h-150v45c-30 -38 -73 -57 -129 -57c-41 0 -77 15 -107 46c-29 31 -44 75 -44 133v283h150v-251c0 -40 18 -71 58 -71c26 0 50 14 72 41v281zM264 706h4l165 -136l-70 -88l-98 81l-100 -79l-67 87z" />
    <glyph glyph-name="udieresis" unicode="&#xfc;" horiz-adv-x="530" 
d="M325 450h150v-450h-150v45c-30 -38 -73 -57 -129 -57c-41 0 -77 15 -107 46c-29 31 -44 75 -44 133v283h150v-251c0 -40 18 -71 58 -71c26 0 50 14 72 41v281zM86 589c0 49 35 81 82 81c40 0 76 -32 76 -81c0 -53 -35 -86 -76 -86c-47 0 -82 33 -82 86zM279 589
c0 49 37 81 82 81c41 0 76 -32 76 -81c0 -53 -35 -86 -76 -86c-47 0 -82 33 -82 86z" />
    <glyph glyph-name="yacute" unicode="&#xfd;" horiz-adv-x="516" 
d="M345 450h171l-175 -450c-32 -79 -61 -132 -86 -159s-56 -41 -91 -41c-38 0 -74 14 -107 42l48 113c16 -11 30 -16 43 -16c19 0 33 12 43 37l10 24l-201 450h181l77 -206c4 -11 10 -31 17 -62c3 27 6 48 11 63zM272 738l117 -89l-131 -146l-89 63z" />
    <glyph glyph-name="thorn" unicode="&#xfe;" horiz-adv-x="561" 
d="M205 -200h-150v900h150v-276c34 25 76 38 125 38c60 0 108 -22 145 -65s56 -98 56 -165c0 -70 -22 -128 -67 -175c-45 -46 -103 -69 -175 -69c-34 0 -62 5 -84 14v-202zM283 322c-28 0 -54 -13 -78 -40v-137c19 -11 43 -17 70 -17c63 0 96 42 96 101c0 55 -33 93 -88 93z
" />
    <glyph glyph-name="ydieresis" unicode="&#xff;" horiz-adv-x="516" 
d="M345 450h171l-175 -450c-32 -79 -61 -132 -86 -159s-56 -41 -91 -41c-38 0 -74 14 -107 42l48 113c16 -11 30 -16 43 -16c19 0 33 12 43 37l10 24l-201 450h181l77 -206c4 -11 10 -31 17 -62c3 27 6 48 11 63zM92 589c0 49 35 81 82 81c40 0 76 -32 76 -81
c0 -53 -35 -86 -76 -86c-47 0 -82 33 -82 86zM285 589c0 49 37 81 82 81c41 0 76 -32 76 -81c0 -53 -35 -86 -76 -86c-47 0 -82 33 -82 86z" />
    <glyph glyph-name="Amacron" unicode="&#x100;" horiz-adv-x="725" 
d="M161 0h-161l291 700h143l291 -700h-171l-58 147h-277zM436 297l-78 198l-79 -198h157zM519 750h-314v120h314v-120z" />
    <glyph glyph-name="amacron" unicode="&#x101;" horiz-adv-x="465" 
d="M103 309l-37 109c39 24 107 44 167 44c133 0 187 -64 187 -191v-271h-130v41c-22 -31 -61 -47 -118 -47c-84 0 -142 53 -142 142c0 97 67 149 162 149c37 0 67 -8 88 -25c3 51 -18 77 -62 77c-29 0 -68 -9 -115 -28zM223 119c27 0 46 8 57 23v28c-14 10 -33 15 -57 15
c-25 0 -43 -13 -43 -34c0 -20 18 -32 43 -32zM385 520h-294v120h294v-120z" />
    <glyph glyph-name="Abreve" unicode="&#x102;" horiz-adv-x="725" 
d="M161 0h-161l291 700h143l291 -700h-171l-58 147h-277zM436 297l-78 198l-79 -198h157zM161 843l64 77c39 -40 86 -60 143 -60s104 20 140 60l55 -78c-37 -63 -115 -112 -195 -112c-44 0 -85 11 -123 34c-37 23 -65 49 -84 79z" />
    <glyph glyph-name="abreve" unicode="&#x103;" horiz-adv-x="465" 
d="M103 309l-37 109c39 24 107 44 167 44c133 0 187 -64 187 -191v-271h-130v41c-22 -31 -61 -47 -118 -47c-84 0 -142 53 -142 142c0 97 67 149 162 149c37 0 67 -8 88 -25c3 51 -18 77 -62 77c-29 0 -68 -9 -115 -28zM223 119c27 0 46 8 57 23v28c-14 10 -33 15 -57 15
c-25 0 -43 -13 -43 -34c0 -20 18 -32 43 -32zM59 607l66 75c31 -35 66 -52 105 -52c45 0 82 17 110 50l51 -72c-43 -65 -99 -98 -167 -98c-41 0 -75 10 -103 31s-49 43 -62 66z" />
    <glyph glyph-name="Aogonek" unicode="&#x104;" horiz-adv-x="725" 
d="M677 -70l45 -90c-17 -21 -68 -40 -120 -40c-84 0 -145 32 -145 95c0 47 32 82 97 105l-58 147h-277l-58 -147h-161l291 700h143l291 -700h-19c-55 0 -99 -29 -99 -54c0 -17 10 -26 30 -26c13 0 26 3 40 10zM436 297l-78 198l-79 -198h157z" />
    <glyph glyph-name="aogonek" unicode="&#x105;" horiz-adv-x="465" 
d="M391 -70l45 -90c-17 -21 -68 -40 -120 -40c-84 0 -145 32 -145 95c0 53 40 91 119 112v34c-22 -31 -61 -47 -118 -47c-84 0 -142 53 -142 142c0 97 67 149 162 149c37 0 67 -8 88 -25c3 51 -18 77 -62 77c-29 0 -68 -9 -115 -28l-37 109c39 24 107 44 167 44
c133 0 187 -64 187 -191v-271h-9c-51 -3 -90 -30 -90 -54c0 -17 10 -26 30 -26c13 0 26 3 40 10zM223 119c27 0 46 8 57 23v28c-14 10 -33 15 -57 15c-25 0 -43 -13 -43 -34c0 -20 18 -32 43 -32z" />
    <glyph glyph-name="Cacute" unicode="&#x106;" horiz-adv-x="655" 
d="M574 189l61 -120c-21 -24 -53 -44 -95 -59s-86 -22 -133 -22c-109 0 -197 33 -265 99c-68 67 -102 154 -102 263c0 105 32 192 96 260s154 102 270 102c89 0 170 -30 214 -73l-71 -120c-47 29 -95 43 -143 43c-57 0 -104 -19 -141 -56s-55 -89 -55 -156
c0 -62 20 -113 59 -153c39 -39 90 -59 153 -59c56 0 107 17 152 51zM521 935l56 -129l-249 -78l-41 89z" />
    <glyph glyph-name="cacute" unicode="&#x107;" horiz-adv-x="485" 
d="M391 178l70 -110c-39 -53 -100 -80 -184 -80c-75 0 -135 22 -180 65s-67 101 -67 172c0 67 22 123 66 168c45 46 102 69 172 69c82 0 143 -21 184 -64l-69 -118c-28 28 -60 42 -96 42c-51 0 -97 -37 -97 -97c0 -29 10 -52 30 -70c21 -18 44 -27 69 -27c37 0 71 17 102 50
zM282 738l117 -89l-131 -146l-89 63z" />
    <glyph glyph-name="Ccircumflex" unicode="&#x108;" horiz-adv-x="655" 
d="M574 189l61 -120c-21 -24 -53 -44 -95 -59s-86 -22 -133 -22c-109 0 -197 33 -265 99c-68 67 -102 154 -102 263c0 105 32 192 96 260s154 102 270 102c89 0 170 -30 214 -73l-71 -120c-47 29 -95 43 -143 43c-57 0 -104 -19 -141 -56s-55 -89 -55 -156
c0 -62 20 -113 59 -153c39 -39 90 -59 153 -59c56 0 107 17 152 51zM254 723l-52 83l178 119h4l184 -117l-58 -85l-128 66z" />
    <glyph glyph-name="ccircumflex" unicode="&#x109;" horiz-adv-x="485" 
d="M391 178l70 -110c-39 -53 -100 -80 -184 -80c-75 0 -135 22 -180 65s-67 101 -67 172c0 67 22 123 66 168c45 46 102 69 172 69c82 0 143 -21 184 -64l-69 -118c-28 28 -60 42 -96 42c-51 0 -97 -37 -97 -97c0 -29 10 -52 30 -70c21 -18 44 -27 69 -27c37 0 71 17 102 50
zM275 706h4l165 -136l-70 -88l-98 81l-100 -79l-67 87z" />
    <glyph glyph-name="Cdotaccent" unicode="&#x10a;" horiz-adv-x="655" 
d="M574 189l61 -120c-21 -24 -53 -44 -95 -59s-86 -22 -133 -22c-109 0 -197 33 -265 99c-68 67 -102 154 -102 263c0 105 32 192 96 260s154 102 270 102c89 0 170 -30 214 -73l-71 -120c-47 29 -95 43 -143 43c-57 0 -104 -19 -141 -56s-55 -89 -55 -156
c0 -62 20 -113 59 -153c39 -39 90 -59 153 -59c56 0 107 17 152 51zM284 845c0 55 45 90 101 90c52 0 96 -37 96 -90c0 -59 -44 -96 -96 -96c-57 0 -101 36 -101 96z" />
    <glyph glyph-name="cdotaccent" unicode="&#x10b;" horiz-adv-x="485" 
d="M391 178l70 -110c-39 -53 -100 -80 -184 -80c-75 0 -135 22 -180 65s-67 101 -67 172c0 67 22 123 66 168c45 46 102 69 172 69c82 0 143 -21 184 -64l-69 -118c-28 28 -60 42 -96 42c-51 0 -97 -37 -97 -97c0 -29 10 -52 30 -70c21 -18 44 -27 69 -27c37 0 71 17 102 50
zM180 605c0 52 40 85 91 85c45 0 85 -34 85 -85c0 -56 -40 -91 -85 -91c-52 0 -91 34 -91 91z" />
    <glyph glyph-name="Ccaron" unicode="&#x10c;" horiz-adv-x="655" 
d="M574 189l61 -120c-21 -24 -53 -44 -95 -59s-86 -22 -133 -22c-109 0 -197 33 -265 99c-68 67 -102 154 -102 263c0 105 32 192 96 260s154 102 270 102c89 0 170 -30 214 -73l-71 -120c-47 29 -95 43 -143 43c-57 0 -104 -19 -141 -56s-55 -89 -55 -156
c0 -62 20 -113 59 -153c39 -39 90 -59 153 -59c56 0 107 17 152 51zM389 733h-4l-184 117l58 85l128 -76l128 76l52 -83z" />
    <glyph glyph-name="ccaron" unicode="&#x10d;" horiz-adv-x="485" 
d="M391 178l70 -110c-39 -53 -100 -80 -184 -80c-75 0 -135 22 -180 65s-67 101 -67 172c0 67 22 123 66 168c45 46 102 69 172 69c82 0 143 -21 184 -64l-69 -118c-28 28 -60 42 -96 42c-51 0 -97 -37 -97 -97c0 -29 10 -52 30 -70c21 -18 44 -27 69 -27c37 0 71 17 102 50
zM265 488h-4l-165 136l70 88l98 -81l100 79l67 -87z" />
    <glyph glyph-name="Dcaron" unicode="&#x10e;" horiz-adv-x="744" 
d="M107 0h-17v700h14c11 0 45 0 100 1s91 2 107 2c132 0 230 -33 295 -98s98 -148 98 -249c0 -103 -35 -189 -105 -257c-69 -67 -168 -101 -296 -101c-10 0 -39 0 -87 1s-84 1 -109 1zM309 553c-26 0 -46 -1 -59 -3v-400c14 -1 33 -2 58 -2c140 0 226 76 226 208
c0 125 -90 197 -225 197zM339 733h-4l-184 117l58 85l128 -76l128 76l52 -83z" />
    <glyph glyph-name="dcaron" unicode="&#x10f;" horiz-adv-x="557" 
d="M502 0h-150v37c-31 -30 -69 -45 -114 -45c-63 0 -114 21 -152 62c-37 41 -56 96 -56 165c0 71 23 130 69 175s106 68 179 68c29 0 54 -5 74 -14v252h150v-700zM269 132c31 0 59 11 83 33v138c-22 13 -44 19 -67 19c-52 0 -95 -35 -95 -98c0 -57 38 -92 79 -92zM556 700
h146c3 -8 5 -19 5 -32c0 -87 -38 -152 -113 -194l-70 63c29 33 43 70 43 113c0 17 -4 33 -11 50z" />
    <glyph glyph-name="Dcroat" unicode="&#x110;" horiz-adv-x="744" 
d="M90 278h-80v140h80v282h14c11 0 45 0 100 1s91 2 107 2c132 0 230 -33 295 -98s98 -148 98 -249c0 -103 -35 -189 -105 -257c-69 -67 -168 -101 -296 -101c-10 0 -39 0 -87 1s-84 1 -109 1h-17v278zM309 553c-26 0 -46 -1 -59 -3v-132h164v-140h-164v-128
c14 -1 33 -2 58 -2c140 0 226 76 226 208c0 125 -90 197 -225 197z" />
    <glyph glyph-name="dslash" unicode="&#x111;" horiz-adv-x="557" 
d="M352 507h-104v120h104v73h150v-73h65v-120h-65v-507h-150v37c-31 -30 -69 -45 -114 -45c-63 0 -114 21 -152 62c-37 41 -56 96 -56 165c0 71 23 130 69 175s106 68 179 68c29 0 54 -5 74 -14v59zM269 132c31 0 59 11 83 33v138c-22 13 -44 19 -67 19
c-52 0 -95 -35 -95 -98c0 -57 38 -92 79 -92z" />
    <glyph glyph-name="Emacron" unicode="&#x112;" horiz-adv-x="575" 
d="M515 0h-425v700h415v-150h-255v-123h225v-150h-225v-127h265v-150zM454 750h-314v120h314v-120z" />
    <glyph glyph-name="emacron" unicode="&#x113;" horiz-adv-x="512" 
d="M408 145l41 -106c-45 -34 -104 -51 -175 -51c-74 0 -133 22 -178 65c-44 43 -66 101 -66 172c0 67 22 124 67 169s104 68 177 68c60 0 111 -20 154 -60c43 -39 64 -90 64 -152c0 -30 -3 -55 -9 -75h-298c13 -41 48 -62 105 -62c45 0 84 11 118 32zM269 337
c-45 0 -74 -21 -89 -62h162c0 33 -28 62 -73 62zM411 520h-294v120h294v-120z" />
    <glyph glyph-name="Edotaccent" unicode="&#x116;" horiz-adv-x="575" 
d="M515 0h-425v700h415v-150h-255v-123h225v-150h-225v-127h265v-150zM204 845c0 55 45 90 101 90c52 0 96 -37 96 -90c0 -59 -44 -96 -96 -96c-57 0 -101 36 -101 96z" />
    <glyph glyph-name="edotaccent" unicode="&#x117;" horiz-adv-x="512" 
d="M408 145l41 -106c-45 -34 -104 -51 -175 -51c-74 0 -133 22 -178 65c-44 43 -66 101 -66 172c0 67 22 124 67 169s104 68 177 68c60 0 111 -20 154 -60c43 -39 64 -90 64 -152c0 -30 -3 -55 -9 -75h-298c13 -41 48 -62 105 -62c45 0 84 11 118 32zM269 337
c-45 0 -74 -21 -89 -62h162c0 33 -28 62 -73 62zM180 605c0 52 40 85 91 85c45 0 85 -34 85 -85c0 -56 -40 -91 -85 -91c-52 0 -91 34 -91 91z" />
    <glyph glyph-name="Eogonek" unicode="&#x118;" horiz-adv-x="575" 
d="M363 0h-273v700h415v-150h-255v-123h225v-150h-225v-127h265v-150c-55 0 -99 -29 -99 -54c0 -17 10 -26 30 -26c13 0 26 3 40 10l45 -90c-17 -21 -68 -40 -120 -40c-84 0 -145 32 -145 95c0 47 32 82 97 105z" />
    <glyph glyph-name="eogonek" unicode="&#x119;" horiz-adv-x="512" 
d="M408 145l41 -106c-15 -11 -31 -20 -48 -27c-40 -25 -60 -47 -60 -66c0 -17 10 -26 30 -26c13 0 26 3 40 10l45 -90c-17 -21 -68 -40 -120 -40c-84 0 -145 32 -145 95c0 36 27 67 81 93c-73 1 -132 22 -176 65s-66 101 -66 172c0 67 22 124 67 169s104 68 177 68
c60 0 111 -20 154 -60c43 -39 64 -90 64 -152c0 -30 -3 -55 -9 -75h-298c13 -41 48 -62 105 -62c45 0 84 11 118 32zM269 337c-45 0 -74 -21 -89 -62h162c0 33 -28 62 -73 62z" />
    <glyph glyph-name="Ecaron" unicode="&#x11a;" horiz-adv-x="575" 
d="M309 733h-4l-184 117l58 85l128 -76l128 76l52 -83zM515 0h-425v700h415v-150h-255v-123h225v-150h-225v-127h265v-150z" />
    <glyph glyph-name="ecaron" unicode="&#x11b;" horiz-adv-x="512" 
d="M408 145l41 -106c-45 -34 -104 -51 -175 -51c-74 0 -133 22 -178 65c-44 43 -66 101 -66 172c0 67 22 124 67 169s104 68 177 68c60 0 111 -20 154 -60c43 -39 64 -90 64 -152c0 -30 -3 -55 -9 -75h-298c13 -41 48 -62 105 -62c45 0 84 11 118 32zM269 337
c-45 0 -74 -21 -89 -62h162c0 33 -28 62 -73 62zM275 488h-4l-165 136l70 88l98 -81l100 79l67 -87z" />
    <glyph glyph-name="Gcircumflex" unicode="&#x11c;" horiz-adv-x="727" 
d="M527 249h-149v150h299v-312c-30 -30 -70 -54 -120 -72c-49 -18 -97 -27 -142 -27c-118 0 -210 33 -276 98s-99 153 -99 264c0 103 32 189 97 258s151 104 258 104c91 0 168 -24 229 -73l-67 -129c-28 29 -88 52 -143 52c-121 0 -204 -73 -204 -212
c0 -129 82 -212 207 -212c20 0 41 4 63 11c23 8 38 16 47 24v76zM254 723l-52 83l178 119h4l184 -117l-58 -85l-128 66z" />
    <glyph glyph-name="gcircumflex" unicode="&#x11d;" horiz-adv-x="504" 
d="M0 -58c0 75 57 123 149 142c-4 8 -6 16 -6 25c0 10 2 19 7 26c-69 28 -111 87 -111 154c0 47 18 88 54 122c37 34 85 51 145 51c44 0 82 -10 115 -30l141 28l5 -120l-67 -13c3 -15 5 -27 5 -38c0 -45 -17 -83 -51 -116c-33 -32 -77 -50 -132 -53c-1 -3 -1 -6 -1 -11
s1 -11 3 -17c65 -2 119 -16 160 -41s62 -62 62 -109c0 -49 -22 -87 -67 -112s-102 -38 -172 -38c-71 0 -128 12 -173 37c-44 25 -66 62 -66 113zM140 -58c0 -20 33 -30 99 -30s99 10 99 30c0 21 -33 31 -99 31s-99 -10 -99 -31zM238 240c35 0 59 18 59 49s-20 53 -59 53
c-77 3 -79 -109 0 -102zM243 706h4l165 -136l-70 -88l-98 81l-100 -79l-67 87z" />
    <glyph glyph-name="Gbreve" unicode="&#x11e;" horiz-adv-x="727" 
d="M527 249h-149v150h299v-312c-30 -30 -70 -54 -120 -72c-49 -18 -97 -27 -142 -27c-118 0 -210 33 -276 98s-99 153 -99 264c0 103 32 189 97 258s151 104 258 104c91 0 168 -24 229 -73l-67 -129c-28 29 -88 52 -143 52c-121 0 -204 -73 -204 -212
c0 -129 82 -212 207 -212c20 0 41 4 63 11c23 8 38 16 47 24v76zM203 843l64 77c39 -40 86 -60 143 -60s104 20 140 60l55 -78c-37 -63 -115 -112 -195 -112c-44 0 -85 11 -123 34c-37 23 -65 49 -84 79z" />
    <glyph glyph-name="gbreve" unicode="&#x11f;" horiz-adv-x="504" 
d="M0 -58c0 75 57 123 149 142c-4 8 -6 16 -6 25c0 10 2 19 7 26c-69 28 -111 87 -111 154c0 47 18 88 54 122c37 34 85 51 145 51c44 0 82 -10 115 -30l141 28l5 -120l-67 -13c3 -15 5 -27 5 -38c0 -45 -17 -83 -51 -116c-33 -32 -77 -50 -132 -53c-1 -3 -1 -6 -1 -11
s1 -11 3 -17c65 -2 119 -16 160 -41s62 -62 62 -109c0 -49 -22 -87 -67 -112s-102 -38 -172 -38c-71 0 -128 12 -173 37c-44 25 -66 62 -66 113zM140 -58c0 -20 33 -30 99 -30s99 10 99 30c0 21 -33 31 -99 31s-99 -10 -99 -31zM238 240c35 0 59 18 59 49s-20 53 -59 53
c-77 3 -79 -109 0 -102zM72 607l66 75c31 -35 66 -52 105 -52c45 0 82 17 110 50l51 -72c-43 -65 -99 -98 -167 -98c-41 0 -75 10 -103 31s-49 43 -62 66z" />
    <glyph glyph-name="Gdotaccent" unicode="&#x120;" horiz-adv-x="727" 
d="M527 249h-149v150h299v-312c-30 -30 -70 -54 -120 -72c-49 -18 -97 -27 -142 -27c-118 0 -210 33 -276 98s-99 153 -99 264c0 103 32 189 97 258s151 104 258 104c91 0 168 -24 229 -73l-67 -129c-28 29 -88 52 -143 52c-121 0 -204 -73 -204 -212
c0 -129 82 -212 207 -212c20 0 41 4 63 11c23 8 38 16 47 24v76zM274 845c0 55 45 90 101 90c52 0 96 -37 96 -90c0 -59 -44 -96 -96 -96c-57 0 -101 36 -101 96z" />
    <glyph glyph-name="gdotaccent" unicode="&#x121;" horiz-adv-x="504" 
d="M0 -58c0 75 57 123 149 142c-4 8 -6 16 -6 25c0 10 2 19 7 26c-69 28 -111 87 -111 154c0 47 18 88 54 122c37 34 85 51 145 51c44 0 82 -10 115 -30l141 28l5 -120l-67 -13c3 -15 5 -27 5 -38c0 -45 -17 -83 -51 -116c-33 -32 -77 -50 -132 -53c-1 -3 -1 -6 -1 -11
s1 -11 3 -17c65 -2 119 -16 160 -41s62 -62 62 -109c0 -49 -22 -87 -67 -112s-102 -38 -172 -38c-71 0 -128 12 -173 37c-44 25 -66 62 -66 113zM140 -58c0 -20 33 -30 99 -30s99 10 99 30c0 21 -33 31 -99 31s-99 -10 -99 -31zM238 240c35 0 59 18 59 49s-20 53 -59 53
c-77 3 -79 -109 0 -102zM150 605c0 52 40 85 91 85c45 0 85 -34 85 -85c0 -56 -40 -91 -85 -91c-52 0 -91 34 -91 91z" />
    <glyph glyph-name="Gcommaaccent" unicode="&#x122;" horiz-adv-x="727" 
d="M527 249h-149v150h299v-312c-30 -30 -70 -54 -120 -72c-49 -18 -97 -27 -142 -27c-118 0 -210 33 -276 98s-99 153 -99 264c0 103 32 189 97 258s151 104 258 104c91 0 168 -24 229 -73l-67 -129c-28 29 -88 52 -143 52c-121 0 -204 -73 -204 -212
c0 -129 82 -212 207 -212c20 0 41 4 63 11c23 8 38 16 47 24v76zM326 -50l149 29c9 -12 13 -28 13 -48c0 -37 -16 -68 -47 -93c-31 -26 -64 -41 -100 -46l-44 64c27 12 41 31 41 58c0 14 -4 26 -12 36z" />
    <glyph glyph-name="gcommaaccent" unicode="&#x123;" horiz-adv-x="504" 
d="M0 -58c0 75 57 123 149 142c-4 8 -6 16 -6 25c0 10 2 19 7 26c-69 28 -111 87 -111 154c0 47 18 88 54 122c37 34 85 51 145 51c44 0 82 -10 115 -30l141 28l5 -120l-67 -13c3 -15 5 -27 5 -38c0 -45 -17 -83 -51 -116c-33 -32 -77 -50 -132 -53c-1 -3 -1 -6 -1 -11
s1 -11 3 -17c65 -2 119 -16 160 -41s62 -62 62 -109c0 -49 -22 -87 -67 -112s-102 -38 -172 -38c-71 0 -128 12 -173 37c-44 25 -66 62 -66 113zM140 -58c0 -20 33 -30 99 -30s99 10 99 30c0 21 -33 31 -99 31s-99 -10 -99 -31zM238 240c35 0 59 18 59 49s-20 53 -59 53
c-77 3 -79 -109 0 -102zM316 547l-149 -29c-9 12 -13 28 -13 48c0 37 15 68 46 93c31 26 65 41 101 46l44 -64c-27 -12 -41 -31 -41 -58c0 -14 4 -26 12 -36z" />
    <glyph glyph-name="Hcircumflex" unicode="&#x124;" horiz-adv-x="755" 
d="M665 0h-160v282h-255v-282h-160v700h160v-268h255v268h160v-700zM249 723l-52 83l178 119h4l184 -117l-58 -85l-128 66z" />
    <glyph glyph-name="hcircumflex" unicode="&#x125;" horiz-adv-x="544" 
d="M205 0h-150v700h150v-281c29 26 66 39 111 39c112 0 183 -61 183 -194v-264h-150v245c0 44 -29 73 -72 73c-29 0 -53 -10 -72 -29v-289zM19 723l-52 83l178 119h4l184 -117l-58 -85l-128 66z" />
    <glyph glyph-name="Hbar" unicode="&#x126;" horiz-adv-x="765" 
d="M95 497h-75v140h75v63h160v-63h255v63h160v-63h75v-140h-75v-497h-160v282h-255v-282h-160v497zM255 497v-65h255v65h-255z" />
    <glyph glyph-name="hbar" unicode="&#x127;" horiz-adv-x="594" 
d="M105 490h-95v140h95v70h150v-70h134v-140h-134v-71c29 26 66 39 111 39c112 0 183 -61 183 -194v-264h-150v245c0 44 -29 73 -72 73c-29 0 -53 -10 -72 -29v-289h-150v490z" />
    <glyph glyph-name="Imacron" unicode="&#x12a;" horiz-adv-x="360" 
d="M260 0h-160v700h160v-700zM342 750h-314v120h314v-120z" />
    <glyph glyph-name="imacron" unicode="&#x12b;" horiz-adv-x="286" 
d="M218 0h-150v450h150v-450zM290 520h-294v120h294v-120z" />
    <glyph glyph-name="Iogonek" unicode="&#x12e;" horiz-adv-x="360" 
d="M108 0h-8v700h160v-700c-55 0 -99 -29 -99 -54c0 -17 10 -26 30 -26c13 0 26 3 40 10l45 -90c-17 -21 -68 -40 -120 -40c-84 0 -145 32 -145 95c0 47 32 82 97 105z" />
    <glyph glyph-name="iogonek" unicode="&#x12f;" horiz-adv-x="286" 
d="M189 -70l45 -90c-17 -21 -68 -40 -120 -40c-84 0 -145 32 -145 95c0 48 33 83 99 105v450h150v-450h-9c-51 -3 -90 -30 -90 -54c0 -17 10 -26 30 -26c13 0 26 3 40 10zM51 605c0 52 40 85 91 85c45 0 85 -34 85 -85c0 -56 -40 -91 -85 -91c-52 0 -91 34 -91 91z" />
    <glyph glyph-name="Idot" unicode="&#x130;" horiz-adv-x="360" 
d="M82 845c0 55 45 90 101 90c52 0 96 -37 96 -90c0 -59 -44 -96 -96 -96c-57 0 -101 36 -101 96zM260 0h-160v700h160v-700z" />
    <glyph glyph-name="dotlessi" unicode="&#x131;" horiz-adv-x="286" 
d="M218 0h-150v450h150v-450z" />
    <glyph glyph-name="Jcircumflex" unicode="&#x134;" horiz-adv-x="407" 
d="M157 700h160v-529c0 -119 -66 -183 -185 -183c-56 0 -112 24 -132 49l52 122c19 -14 38 -21 58 -21c29 0 47 22 47 62v500zM107 723l-52 83l178 119h4l184 -117l-58 -85l-128 66z" />
    <glyph glyph-name="jcircumflex" unicode="&#x135;" horiz-adv-x="281" 
d="M76 450h150v-483c0 -117 -47 -175 -141 -175c-51 0 -100 15 -120 34l39 119c15 -9 30 -13 44 -13c19 0 28 16 28 49v469zM150 706h4l165 -136l-70 -88l-98 81l-100 -79l-67 87z" />
    <glyph glyph-name="Kcommaaccent" unicode="&#x136;" horiz-adv-x="692" 
d="M250 0h-160v700h160v-305l229 305h192l-263 -323l284 -377h-203l-239 333v-333zM266 -50l149 29c9 -12 13 -28 13 -48c0 -37 -16 -68 -47 -93c-31 -26 -64 -41 -100 -46l-44 64c27 12 41 31 41 58c0 14 -4 26 -12 36z" />
    <glyph glyph-name="kcommaaccent" unicode="&#x137;" horiz-adv-x="537" 
d="M205 0h-150v700h150v-445l123 195h188l-146 -203l167 -247h-192l-140 215v-215zM173 -50l149 29c9 -12 13 -28 13 -48c0 -37 -16 -68 -47 -93c-31 -26 -64 -41 -100 -46l-44 64c27 12 41 31 41 58c0 14 -4 26 -12 36z" />
    <glyph glyph-name="Lacute" unicode="&#x139;" horiz-adv-x="545" 
d="M535 0h-445v700h160v-550h285v-150zM411 935l56 -129l-249 -78l-41 89z" />
    <glyph glyph-name="lacute" unicode="&#x13a;" horiz-adv-x="309" 
d="M55 129v571h150v-514c0 -39 8 -58 25 -58c9 0 22 5 39 16l30 -114c-34 -28 -78 -42 -132 -42c-75 0 -112 47 -112 141zM306 935l56 -129l-249 -78l-41 89z" />
    <glyph glyph-name="Lcommaaccent" unicode="&#x13b;" horiz-adv-x="545" 
d="M226 -50l149 29c9 -12 13 -28 13 -48c0 -37 -16 -68 -47 -93c-31 -26 -64 -41 -100 -46l-44 64c27 12 41 31 41 58c0 14 -4 26 -12 36zM535 0h-445v700h160v-550h285v-150z" />
    <glyph glyph-name="lcommaaccent" unicode="&#x13c;" horiz-adv-x="309" 
d="M55 129v571h150v-514c0 -39 8 -58 25 -58c9 0 22 5 39 16l30 -114c-34 -28 -78 -42 -132 -42c-75 0 -112 47 -112 141zM101 -50l149 29c9 -12 13 -28 13 -48c0 -37 -16 -68 -47 -93c-31 -26 -64 -41 -100 -46l-44 64c27 12 41 31 41 58c0 14 -4 26 -12 36z" />
    <glyph glyph-name="Lcaron" unicode="&#x13d;" horiz-adv-x="545" 
d="M356 700h146c3 -8 5 -19 5 -32c0 -87 -38 -152 -113 -194l-70 63c29 33 43 70 43 113c0 17 -4 33 -11 50zM535 0h-445v700h160v-550h285v-150z" />
    <glyph glyph-name="lcaron" unicode="&#x13e;" horiz-adv-x="309" 
d="M55 129v571h150v-514c0 -39 8 -58 25 -58c9 0 22 5 39 16l30 -114c-34 -28 -78 -42 -132 -42c-75 0 -112 47 -112 141zM266 700h146c3 -8 5 -19 5 -32c0 -87 -38 -152 -113 -194l-70 63c29 33 43 70 43 113c0 17 -4 33 -11 50z" />
    <glyph glyph-name="Ldot" unicode="&#x13f;" horiz-adv-x="545" 
d="M344 376c0 48 41 94 102 94c53 0 94 -46 94 -94c0 -55 -39 -102 -94 -102c-61 0 -102 46 -102 102zM535 0h-445v700h160v-550h285v-150z" />
    <glyph glyph-name="ldot" unicode="&#x140;" horiz-adv-x="377" 
d="M55 129v571h150v-514c0 -39 8 -58 25 -58c9 0 22 5 39 16l30 -114c-34 -28 -78 -42 -132 -42c-75 0 -112 47 -112 141zM231 350c0 52 40 85 91 85c45 0 85 -34 85 -85c0 -56 -40 -91 -85 -91c-52 0 -91 34 -91 91z" />
    <glyph glyph-name="Lslash" unicode="&#x141;" horiz-adv-x="555" 
d="M100 224l-80 -35v154l80 35v322h160v-251l149 66v-153l-149 -67v-145h285v-150h-445v224z" />
    <glyph glyph-name="lslash" unicode="&#x142;" horiz-adv-x="339" 
d="M75 210l-65 -28v154l65 28v336h150v-270l84 37v-153l-84 -37v-91c0 -39 8 -58 25 -58c9 0 22 5 39 16l30 -114c-34 -28 -78 -42 -132 -42c-75 0 -112 47 -112 141v81z" />
    <glyph glyph-name="Nacute" unicode="&#x143;" horiz-adv-x="790" 
d="M700 700v-700h-128l-332 420v-420h-150v700h128l332 -422v422h150zM541 935l56 -129l-249 -78l-41 89z" />
    <glyph glyph-name="nacute" unicode="&#x144;" horiz-adv-x="544" 
d="M205 0h-150v450h150v-35c30 29 67 43 111 43c122 0 183 -63 183 -190v-268h-150v242c0 51 -29 76 -74 76c-26 0 -49 -10 -70 -31v-287zM301 738l117 -89l-131 -146l-89 63z" />
    <glyph glyph-name="Ncommaaccent" unicode="&#x145;" horiz-adv-x="790" 
d="M700 700v-700h-128l-332 420v-420h-150v700h128l332 -422v422h150zM316 -50l149 29c9 -12 13 -28 13 -48c0 -37 -16 -68 -47 -93c-31 -26 -64 -41 -100 -46l-44 64c27 12 41 31 41 58c0 14 -4 26 -12 36z" />
    <glyph glyph-name="ncommaaccent" unicode="&#x146;" horiz-adv-x="544" 
d="M205 0h-150v450h150v-35c30 29 67 43 111 43c122 0 183 -63 183 -190v-268h-150v242c0 51 -29 76 -74 76c-26 0 -49 -10 -70 -31v-287zM187 -50l149 29c9 -12 13 -28 13 -48c0 -37 -16 -68 -47 -93c-31 -26 -64 -41 -100 -46l-44 64c27 12 41 31 41 58c0 14 -4 26 -12 36
z" />
    <glyph glyph-name="Ncaron" unicode="&#x147;" horiz-adv-x="790" 
d="M700 700v-700h-128l-332 420v-420h-150v700h128l332 -422v422h150zM401 733h-4l-184 117l58 85l128 -76l128 76l52 -83z" />
    <glyph glyph-name="ncaron" unicode="&#x148;" horiz-adv-x="544" 
d="M205 0h-150v450h150v-35c30 29 67 43 111 43c122 0 183 -63 183 -190v-268h-150v242c0 51 -29 76 -74 76c-26 0 -49 -10 -70 -31v-287zM273 488h-4l-165 136l70 88l98 -81l100 79l67 -87z" />
    <glyph glyph-name="Omacron" unicode="&#x14c;" horiz-adv-x="824" 
d="M40 350c0 103 34 189 103 258s159 104 269 104c109 0 198 -33 267 -99c70 -66 105 -154 105 -263c0 -105 -35 -192 -106 -260c-70 -68 -159 -102 -266 -102c-109 0 -198 33 -268 99c-69 66 -104 154 -104 263zM210 350c0 -60 20 -110 59 -151s87 -61 143 -61
c64 0 114 20 149 59c35 40 53 91 53 153c0 63 -19 114 -58 153s-87 59 -144 59c-59 0 -107 -20 -145 -59s-57 -90 -57 -153zM579 750h-314v120h314v-120z" />
    <glyph glyph-name="omacron" unicode="&#x14d;" horiz-adv-x="560" 
d="M98 55c-45 45 -68 101 -68 170s23 125 68 170c46 45 107 67 182 67s136 -22 181 -67c46 -45 69 -101 69 -170s-23 -125 -69 -170c-45 -45 -106 -67 -181 -67s-136 22 -182 67zM190 225c0 -56 38 -97 90 -97s90 37 90 97c0 57 -39 97 -90 97s-90 -38 -90 -97zM437 520
h-294v120h294v-120z" />
    <glyph glyph-name="Ohungarumlaut" unicode="&#x150;" horiz-adv-x="824" 
d="M40 350c0 103 34 189 103 258s159 104 269 104c109 0 198 -33 267 -99c70 -66 105 -154 105 -263c0 -105 -35 -192 -106 -260c-70 -68 -159 -102 -266 -102c-109 0 -198 33 -268 99c-69 66 -104 154 -104 263zM210 350c0 -60 20 -110 59 -151s87 -61 143 -61
c64 0 114 20 149 59c35 40 53 91 53 153c0 63 -19 114 -58 153s-87 59 -144 59c-59 0 -107 -20 -145 -59s-57 -90 -57 -153zM589 935l106 -94l-204 -113l-61 63zM345 935l130 -65l-167 -142l-64 58z" />
    <glyph glyph-name="ohungarumlaut" unicode="&#x151;" horiz-adv-x="560" 
d="M98 55c-45 45 -68 101 -68 170s23 125 68 170c46 45 107 67 182 67s136 -22 181 -67c46 -45 69 -101 69 -170s-23 -125 -69 -170c-45 -45 -106 -67 -181 -67s-136 22 -182 67zM190 225c0 -56 38 -97 90 -97s90 37 90 97c0 57 -39 97 -90 97s-90 -38 -90 -97zM402 726
l111 -84l-140 -139l-89 63zM211 740l108 -80l-116 -157l-89 63z" />
    <glyph glyph-name="OE" unicode="&#x152;" horiz-adv-x="1034" 
d="M974 0h-425v14c-45 -17 -93 -26 -142 -26c-109 0 -197 33 -265 99c-68 67 -102 154 -102 263c0 105 32 192 96 260s154 102 270 102c51 0 99 -9 143 -28v16h415v-150h-255v-123h225v-150h-225v-127h265v-150zM422 138c44 0 86 11 127 34v347c-47 29 -95 43 -143 43
c-57 0 -104 -19 -141 -56s-55 -89 -55 -156c0 -62 20 -113 59 -153c39 -39 90 -59 153 -59z" />
    <glyph glyph-name="oe" unicode="&#x153;" horiz-adv-x="828" 
d="M724 145l41 -106c-45 -34 -104 -51 -175 -51c-61 0 -113 15 -154 45c-43 -30 -95 -45 -156 -45c-75 0 -136 22 -182 67c-45 45 -68 101 -68 170s23 125 68 170c46 45 107 67 182 67c63 0 115 -16 158 -47c43 31 94 47 152 47c60 0 111 -20 154 -60c43 -39 64 -90 64 -152
c0 -30 -3 -55 -9 -75h-298c13 -41 48 -62 105 -62c45 0 84 11 118 32zM280 128c31 0 55 9 74 28c-5 19 -8 42 -8 69c0 25 3 48 9 70c-21 18 -46 27 -75 27c-51 0 -90 -38 -90 -97c0 -56 38 -97 90 -97zM585 337c-45 0 -74 -21 -89 -62h162c0 33 -28 62 -73 62z" />
    <glyph glyph-name="Racute" unicode="&#x154;" horiz-adv-x="673" 
d="M250 245v-245h-160v700c15 0 57 0 126 1s107 1 112 1c181 0 259 -85 259 -224c0 -95 -39 -163 -118 -202l204 -276h-194l-170 245h-59zM320 552c-3 0 -26 -1 -70 -2v-155h58c73 0 109 27 109 81c0 51 -32 76 -97 76zM441 935l56 -129l-249 -78l-41 89z" />
    <glyph glyph-name="racute" unicode="&#x155;" horiz-adv-x="368" 
d="M205 0h-150v450h150v-36c20 29 51 44 93 44c31 0 55 -6 70 -17l-53 -140c-19 11 -38 17 -55 17c-25 0 -43 -11 -55 -32v-286zM210 738l117 -89l-131 -146l-89 63z" />
    <glyph glyph-name="Rcommaaccent" unicode="&#x156;" horiz-adv-x="673" 
d="M250 245v-245h-160v700c15 0 57 0 126 1s107 1 112 1c181 0 259 -85 259 -224c0 -95 -39 -163 -118 -202l204 -276h-194l-170 245h-59zM320 552c-3 0 -26 -1 -70 -2v-155h58c73 0 109 27 109 81c0 51 -32 76 -97 76zM256 -50l149 29c9 -12 13 -28 13 -48
c0 -37 -16 -68 -47 -93c-31 -26 -64 -41 -100 -46l-44 64c27 12 41 31 41 58c0 14 -4 26 -12 36z" />
    <glyph glyph-name="rcommaaccent" unicode="&#x157;" horiz-adv-x="368" 
d="M205 0h-150v450h150v-36c20 29 51 44 93 44c31 0 55 -6 70 -17l-53 -140c-19 11 -38 17 -55 17c-25 0 -43 -11 -55 -32v-286zM97 -50l149 29c9 -12 13 -28 13 -48c0 -37 -16 -68 -47 -93c-31 -26 -64 -41 -100 -46l-44 64c27 12 41 31 41 58c0 14 -4 26 -12 36z" />
    <glyph glyph-name="Rcaron" unicode="&#x158;" horiz-adv-x="673" 
d="M250 245v-245h-160v700c15 0 57 0 126 1s107 1 112 1c181 0 259 -85 259 -224c0 -95 -39 -163 -118 -202l204 -276h-194l-170 245h-59zM320 552c-3 0 -26 -1 -70 -2v-155h58c73 0 109 27 109 81c0 51 -32 76 -97 76zM319 733h-4l-184 117l58 85l128 -76l128 76l52 -83z
" />
    <glyph glyph-name="rcaron" unicode="&#x159;" horiz-adv-x="368" 
d="M205 0h-150v450h150v-36c20 29 51 44 93 44c31 0 55 -6 70 -17l-53 -140c-19 11 -38 17 -55 17c-25 0 -43 -11 -55 -32v-286zM203 488h-4l-165 136l70 88l98 -81l100 79l67 -87z" />
    <glyph glyph-name="Sacute" unicode="&#x15a;" horiz-adv-x="557" 
d="M347 192c0 37 -46 66 -103 93c-83 36 -191 93 -189 225c0 56 21 104 62 143s96 59 164 59c89 0 158 -26 206 -77l-86 -120c-36 33 -58 47 -106 47c-44 0 -70 -20 -70 -52c0 -116 292 -88 292 -316c0 -60 -23 -109 -69 -148c-45 -39 -102 -58 -171 -58
c-50 0 -98 10 -144 31s-77 49 -93 84l91 109c37 -48 98 -74 150 -74c41 0 66 21 66 54zM437 935l56 -129l-249 -78l-41 89z" />
    <glyph glyph-name="sacute" unicode="&#x15b;" horiz-adv-x="459" 
d="M279 133c0 17 -37 27 -84 38c-67 15 -155 47 -154 144c0 93 75 147 176 147c79 0 142 -20 189 -61l-56 -106c-41 28 -82 42 -124 42c-21 0 -35 -9 -35 -20c0 -46 238 -17 238 -177c0 -92 -75 -152 -194 -152c-44 0 -86 9 -127 27c-40 19 -66 37 -78 56l71 98
c14 -14 36 -27 66 -39c30 -11 56 -17 78 -17c23 0 34 7 34 20zM237 738l117 -89l-131 -146l-89 63z" />
    <glyph glyph-name="Scircumflex" unicode="&#x15c;" horiz-adv-x="557" 
d="M347 192c0 37 -46 66 -103 93c-83 36 -191 93 -189 225c0 56 21 104 62 143s96 59 164 59c89 0 158 -26 206 -77l-86 -120c-36 33 -58 47 -106 47c-44 0 -70 -20 -70 -52c0 -116 292 -88 292 -316c0 -60 -23 -109 -69 -148c-45 -39 -102 -58 -171 -58
c-50 0 -98 10 -144 31s-77 49 -93 84l91 109c37 -48 98 -74 150 -74c41 0 66 21 66 54zM147 723l-52 83l178 119h4l184 -117l-58 -85l-128 66z" />
    <glyph glyph-name="scircumflex" unicode="&#x15d;" horiz-adv-x="459" 
d="M279 133c0 17 -37 27 -84 38c-67 15 -155 47 -154 144c0 93 75 147 176 147c79 0 142 -20 189 -61l-56 -106c-41 28 -82 42 -124 42c-21 0 -35 -9 -35 -20c0 -46 238 -17 238 -177c0 -92 -75 -152 -194 -152c-44 0 -86 9 -127 27c-40 19 -66 37 -78 56l71 98
c14 -14 36 -27 66 -39c30 -11 56 -17 78 -17c23 0 34 7 34 20zM228 706h4l165 -136l-70 -88l-98 81l-100 -79l-67 87z" />
    <glyph glyph-name="Scedilla" unicode="&#x15e;" horiz-adv-x="557" 
d="M120 -157l48 74c17 -17 50 -37 74 -37c15 0 22 4 22 13c0 11 -8 17 -25 17h-6v81c-87 11 -165 51 -193 112l91 109c37 -48 98 -74 150 -74c41 0 66 21 66 54c0 37 -46 66 -103 93c-83 36 -191 93 -189 225c0 56 21 104 62 143s96 59 164 59c89 0 158 -26 206 -77
l-86 -120c-36 33 -58 47 -106 47c-44 0 -70 -20 -70 -52c0 -116 292 -88 292 -316c0 -56 -20 -103 -59 -140s-89 -59 -150 -64v-16c77 -6 116 -36 116 -90c0 -56 -54 -94 -145 -94c-67 0 -120 18 -159 53z" />
    <glyph glyph-name="scedilla" unicode="&#x15f;" horiz-adv-x="459" 
d="M74 -161l44 69c19 -19 41 -28 68 -28c15 0 22 4 22 13c0 11 -8 17 -25 17h-6v84c-33 7 -64 18 -92 33s-46 30 -55 44l71 98c14 -14 36 -27 66 -39c30 -11 56 -17 78 -17c23 0 34 7 34 20c0 17 -37 27 -84 38c-67 15 -155 47 -154 144c0 93 75 147 176 147
c79 0 142 -20 189 -61l-56 -106c-41 28 -82 42 -124 42c-21 0 -35 -9 -35 -20c0 -46 238 -17 238 -177c0 -88 -68 -146 -177 -151v-15c71 -6 106 -36 106 -90c0 -57 -52 -94 -151 -94c-53 0 -97 16 -133 49z" />
    <glyph glyph-name="Scaron" unicode="&#x160;" horiz-adv-x="557" 
d="M347 192c0 37 -46 66 -103 93c-83 36 -191 93 -189 225c0 56 21 104 62 143s96 59 164 59c89 0 158 -26 206 -77l-86 -120c-36 33 -58 47 -106 47c-44 0 -70 -20 -70 -52c0 -116 292 -88 292 -316c0 -60 -23 -109 -69 -148c-45 -39 -102 -58 -171 -58
c-50 0 -98 10 -144 31s-77 49 -93 84l91 109c37 -48 98 -74 150 -74c41 0 66 21 66 54zM285 733h-4l-184 117l58 85l128 -76l128 76l52 -83z" />
    <glyph glyph-name="scaron" unicode="&#x161;" horiz-adv-x="459" 
d="M279 133c0 17 -37 27 -84 38c-67 15 -155 47 -154 144c0 93 75 147 176 147c79 0 142 -20 189 -61l-56 -106c-41 28 -82 42 -124 42c-21 0 -35 -9 -35 -20c0 -46 238 -17 238 -177c0 -92 -75 -152 -194 -152c-44 0 -86 9 -127 27c-40 19 -66 37 -78 56l71 98
c14 -14 36 -27 66 -39c30 -11 56 -17 78 -17c23 0 34 7 34 20zM230 488h-4l-165 136l70 88l98 -81l100 79l67 -87z" />
    <glyph glyph-name="Tcedilla" unicode="&#x162;" 
d="M151 -157l48 74c17 -17 50 -37 74 -37c15 0 22 4 22 13c0 11 -8 17 -25 17h-6v90h-44v550h-210v150h580v-150h-210v-550h-41v-26c77 -6 116 -36 116 -90c0 -56 -54 -94 -145 -94c-67 0 -120 18 -159 53z" />
    <glyph glyph-name="tcedilla" unicode="&#x163;" horiz-adv-x="366" 
d="M30 -161l44 69c19 -19 41 -28 68 -28c15 0 22 4 22 13c0 11 -8 17 -25 17h-6v86c-59 19 -88 77 -88 175v404h150v-125h125v-140h-125v-132c0 -33 10 -50 29 -50c21 0 44 9 67 26l45 -115c-34 -29 -77 -45 -128 -50v-15c71 -6 106 -36 106 -90c0 -57 -52 -94 -151 -94
c-53 0 -97 16 -133 49z" />
    <glyph glyph-name="Tcaron" unicode="&#x164;" 
d="M298 733h-4l-184 117l58 85l128 -76l128 76l52 -83zM220 550h-210v150h580v-150h-210v-550h-160v550z" />
    <glyph glyph-name="tcaron" unicode="&#x165;" horiz-adv-x="366" 
d="M45 171v404h150v-125h125v-140h-125v-132c0 -33 10 -50 29 -50c21 0 44 9 67 26l45 -115c-39 -34 -90 -51 -151 -51c-99 0 -140 63 -140 183zM256 700h146c3 -8 5 -19 5 -32c0 -87 -38 -152 -113 -194l-70 63c29 33 43 70 43 113c0 17 -4 33 -11 50z" />
    <glyph glyph-name="Umacron" unicode="&#x16a;" horiz-adv-x="751" 
d="M511 700h160v-411c0 -101 -27 -176 -82 -226c-54 -50 -122 -75 -204 -75c-93 0 -167 26 -222 79s-83 129 -83 229v404h160v-370c0 -128 48 -192 145 -192c92 0 126 63 126 183v379zM542 750h-314v120h314v-120z" />
    <glyph glyph-name="umacron" unicode="&#x16b;" horiz-adv-x="530" 
d="M325 450h150v-450h-150v45c-30 -38 -73 -57 -129 -57c-41 0 -77 15 -107 46c-29 31 -44 75 -44 133v283h150v-251c0 -40 18 -71 58 -71c26 0 50 14 72 41v281zM407 520h-294v120h294v-120z" />
    <glyph glyph-name="Ubreve" unicode="&#x16c;" horiz-adv-x="751" 
d="M511 700h160v-411c0 -101 -27 -176 -82 -226c-54 -50 -122 -75 -204 -75c-93 0 -167 26 -222 79s-83 129 -83 229v404h160v-370c0 -128 48 -192 145 -192c92 0 126 63 126 183v379zM170 843l64 77c39 -40 86 -60 143 -60s104 20 140 60l55 -78
c-37 -63 -115 -112 -195 -112c-44 0 -85 11 -123 34c-37 23 -65 49 -84 79z" />
    <glyph glyph-name="ubreve" unicode="&#x16d;" horiz-adv-x="530" 
d="M325 450h150v-450h-150v45c-30 -38 -73 -57 -129 -57c-41 0 -77 15 -107 46c-29 31 -44 75 -44 133v283h150v-251c0 -40 18 -71 58 -71c26 0 50 14 72 41v281zM93 607l66 75c31 -35 66 -52 105 -52c45 0 82 17 110 50l51 -72c-43 -65 -99 -98 -167 -98
c-41 0 -75 10 -103 31s-49 43 -62 66z" />
    <glyph glyph-name="Uring" unicode="&#x16e;" horiz-adv-x="751" 
d="M220 809c0 79 64 118 155 118c95 0 160 -39 160 -118c0 -77 -67 -121 -160 -121c-89 0 -155 44 -155 121zM330 809c0 -27 16 -41 47 -41c32 0 48 14 48 41c0 25 -16 38 -48 38c-31 0 -47 -13 -47 -38zM511 700h160v-411c0 -101 -27 -176 -82 -226
c-54 -50 -122 -75 -204 -75c-93 0 -167 26 -222 79s-83 129 -83 229v404h160v-370c0 -128 48 -192 145 -192c92 0 126 63 126 183v379z" />
    <glyph glyph-name="uring" unicode="&#x16f;" horiz-adv-x="530" 
d="M123 611c0 36 13 66 39 91s59 38 98 38c40 0 73 -13 99 -38c27 -25 40 -55 40 -91c0 -35 -13 -65 -40 -90c-26 -25 -59 -37 -99 -37c-39 0 -72 12 -98 37s-39 55 -39 90zM218 613c0 -28 17 -49 44 -49c25 0 42 21 42 49c0 27 -17 47 -42 47c-27 0 -44 -20 -44 -47z
M325 450h150v-450h-150v45c-30 -38 -73 -57 -129 -57c-41 0 -77 15 -107 46c-29 31 -44 75 -44 133v283h150v-251c0 -40 18 -71 58 -71c26 0 50 14 72 41v281z" />
    <glyph glyph-name="Uhungarumlaut" unicode="&#x170;" horiz-adv-x="751" 
d="M511 700h160v-411c0 -101 -27 -176 -82 -226c-54 -50 -122 -75 -204 -75c-93 0 -167 26 -222 79s-83 129 -83 229v404h160v-370c0 -128 48 -192 145 -192c92 0 126 63 126 183v379zM539 935l106 -94l-204 -113l-61 63zM295 935l130 -65l-167 -142l-64 58z" />
    <glyph glyph-name="uhungarumlaut" unicode="&#x171;" horiz-adv-x="530" 
d="M325 450h150v-450h-150v45c-30 -38 -73 -57 -129 -57c-41 0 -77 15 -107 46c-29 31 -44 75 -44 133v283h150v-251c0 -40 18 -71 58 -71c26 0 50 14 72 41v281zM382 726l111 -84l-140 -139l-89 63zM191 740l108 -80l-116 -157l-89 63z" />
    <glyph glyph-name="Uogonek" unicode="&#x172;" horiz-adv-x="751" 
d="M511 700h160v-411c0 -155 -72 -250 -183 -286c-43 -21 -64 -40 -64 -57s10 -26 30 -26c13 0 26 3 40 10l45 -90c-17 -21 -68 -40 -120 -40c-84 0 -145 32 -145 95c0 39 26 70 78 94c-167 12 -272 119 -272 307v404h160v-370c0 -128 48 -192 145 -192c92 0 126 63 126 183
v379z" />
    <glyph glyph-name="uogonek" unicode="&#x173;" horiz-adv-x="530" 
d="M446 -70l45 -90c-17 -21 -68 -40 -120 -40c-84 0 -145 32 -145 95c0 48 33 83 99 105v45c-30 -38 -73 -57 -129 -57c-41 0 -77 15 -107 46c-29 31 -44 75 -44 133v283h150v-251c0 -40 18 -71 58 -71c26 0 50 14 72 41v281h150v-450c-55 0 -99 -29 -99 -54
c0 -17 10 -26 30 -26c13 0 26 3 40 10z" />
    <glyph glyph-name="Ydieresis" unicode="&#x178;" horiz-adv-x="654" 
d="M481 700h173l-248 -415v-285h-160v285l-246 415h183l150 -265zM117 837c0 48 42 78 98 78c49 0 91 -31 91 -78c0 -52 -42 -84 -91 -84c-56 0 -98 31 -98 84zM348 837c0 48 43 78 98 78c49 0 91 -31 91 -78c0 -52 -40 -84 -91 -84c-56 0 -98 31 -98 84z" />
    <glyph glyph-name="Zacute" unicode="&#x179;" horiz-adv-x="650" 
d="M386 550h-326v150h540v-112l-347 -438h357v-150h-570v112zM471 935l56 -129l-249 -78l-41 89z" />
    <glyph glyph-name="zacute" unicode="&#x17a;" horiz-adv-x="495" 
d="M246 310h-191v140h400v-110l-207 -200h202v-140h-410v110zM266 738l117 -89l-131 -146l-89 63z" />
    <glyph glyph-name="Zdotaccent" unicode="&#x17b;" horiz-adv-x="650" 
d="M386 550h-326v150h540v-112l-347 -438h357v-150h-570v112zM234 845c0 55 45 90 101 90c52 0 96 -37 96 -90c0 -59 -44 -96 -96 -96c-57 0 -101 36 -101 96z" />
    <glyph glyph-name="zdotaccent" unicode="&#x17c;" horiz-adv-x="495" 
d="M246 310h-191v140h400v-110l-207 -200h202v-140h-410v110zM156 605c0 52 40 85 91 85c45 0 85 -34 85 -85c0 -56 -40 -91 -85 -91c-52 0 -91 34 -91 91z" />
    <glyph glyph-name="Zcaron" unicode="&#x17d;" horiz-adv-x="650" 
d="M339 733h-4l-184 117l58 85l128 -76l128 76l52 -83zM386 550h-326v150h540v-112l-347 -438h357v-150h-570v112z" />
    <glyph glyph-name="zcaron" unicode="&#x17e;" horiz-adv-x="495" 
d="M246 310h-191v140h400v-110l-207 -200h202v-140h-410v110zM259 488h-4l-165 136l70 88l98 -81l100 79l67 -87z" />
    <glyph glyph-name="longs" unicode="&#x17f;" horiz-adv-x="260" 
d="M205 0h-150v523c0 123 61 189 164 189c53 0 107 -17 131 -44l-50 -114c-11 12 -29 18 -54 18c-23 0 -41 -21 -41 -58v-514z" />
    <glyph glyph-name="uni018F" unicode="&#x18f;" horiz-adv-x="783" 
d="M73 432h523c-31 84 -110 130 -218 130c-56 0 -107 -17 -152 -51l-61 120c62 54 146 81 252 81c103 0 187 -33 253 -100c67 -67 100 -154 100 -262c0 -111 -33 -200 -99 -265c-65 -65 -153 -97 -262 -97c-113 0 -201 40 -266 119c-65 80 -88 188 -70 325zM407 138
c105 0 170 48 195 144h-363c11 -80 72 -144 168 -144z" />
    <glyph glyph-name="florin" unicode="&#x192;" 
d="M428 514l-11 -64h89v-140h-113l-59 -343c-23 -120 -59 -175 -154 -175c-51 0 -100 15 -120 34l39 119c15 -9 30 -13 44 -13c20 0 36 21 41 49l57 329h-95v140h119l13 73c25 133 70 189 167 189c53 0 107 -17 131 -44l-50 -114c-11 12 -29 18 -54 18
c-23 0 -37 -19 -44 -58z" />
    <glyph glyph-name="uni01DD" unicode="&#x1dd;" horiz-adv-x="512" 
d="M110 305l-41 106c45 34 104 51 175 51c73 0 131 -22 174 -65s64 -101 64 -172c0 -69 -20 -125 -61 -170s-98 -67 -172 -67c-65 0 -119 20 -163 59s-66 90 -66 153c0 30 3 55 9 75h304c-13 41 -48 62 -105 62c-45 0 -84 -11 -118 -32zM249 113c45 0 74 21 89 62h-162
c0 -33 28 -62 73 -62z" />
    <glyph glyph-name="Scommaaccent" unicode="&#x218;" horiz-adv-x="557" 
d="M347 192c0 37 -46 66 -103 93c-83 36 -191 93 -189 225c0 56 21 104 62 143s96 59 164 59c89 0 158 -26 206 -77l-86 -120c-36 33 -58 47 -106 47c-44 0 -70 -20 -70 -52c0 -116 292 -88 292 -316c0 -60 -23 -109 -69 -148c-45 -39 -102 -58 -171 -58
c-50 0 -98 10 -144 31s-77 49 -93 84l91 109c37 -48 98 -74 150 -74c41 0 66 21 66 54zM212 -50l149 29c9 -12 13 -28 13 -48c0 -37 -16 -68 -47 -93c-31 -26 -64 -41 -100 -46l-44 64c27 12 41 31 41 58c0 14 -4 26 -12 36z" />
    <glyph glyph-name="scommaaccent" unicode="&#x219;" horiz-adv-x="459" 
d="M279 133c0 17 -37 27 -84 38c-67 15 -155 47 -154 144c0 93 75 147 176 147c79 0 142 -20 189 -61l-56 -106c-41 28 -82 42 -124 42c-21 0 -35 -9 -35 -20c0 -46 238 -17 238 -177c0 -92 -75 -152 -194 -152c-44 0 -86 9 -127 27c-40 19 -66 37 -78 56l71 98
c14 -14 36 -27 66 -39c30 -11 56 -17 78 -17c23 0 34 7 34 20zM154 -50l149 29c9 -12 13 -28 13 -48c0 -37 -16 -68 -47 -93c-31 -26 -64 -41 -100 -46l-44 64c27 12 41 31 41 58c0 14 -4 26 -12 36z" />
    <glyph glyph-name="Tcommaaccent" unicode="&#x21a;" 
d="M220 550h-210v150h580v-150h-210v-550h-160v550zM211 -50l149 29c9 -12 13 -28 13 -48c0 -37 -16 -68 -47 -93c-31 -26 -64 -41 -100 -46l-44 64c27 12 41 31 41 58c0 14 -4 26 -12 36z" />
    <glyph glyph-name="tcommaaccent" unicode="&#x21b;" horiz-adv-x="366" 
d="M45 171v404h150v-125h125v-140h-125v-132c0 -33 10 -50 29 -50c21 0 44 9 67 26l45 -115c-39 -34 -90 -51 -151 -51c-99 0 -140 63 -140 183zM86 -50l149 29c9 -12 13 -28 13 -48c0 -37 -16 -68 -47 -93c-31 -26 -64 -41 -100 -46l-44 64c27 12 41 31 41 58
c0 14 -4 26 -12 36z" />
    <glyph glyph-name="uni0237" unicode="&#x237;" horiz-adv-x="281" 
d="M76 450h150v-483c0 -117 -47 -175 -141 -175c-51 0 -100 15 -120 34l39 119c15 -9 30 -13 44 -13c19 0 28 16 28 49v469z" />
    <glyph glyph-name="uni0259" unicode="&#x259;" horiz-adv-x="512" 
d="M110 305l-41 106c45 34 104 51 175 51c73 0 131 -22 174 -65s64 -101 64 -172c0 -69 -20 -125 -61 -170s-98 -67 -172 -67c-65 0 -119 20 -163 59s-66 90 -66 153c0 30 3 55 9 75h304c-13 41 -48 62 -105 62c-45 0 -84 -11 -118 -32zM249 113c45 0 74 21 89 62h-162
c0 -33 28 -62 73 -62z" />
    <glyph glyph-name="afii57929" unicode="&#x2bc;" horiz-adv-x="303" 
d="M79 627l126 73c25 -27 38 -62 38 -105c0 -95 -54 -159 -113 -194l-70 63c29 27 43 59 43 98c0 27 -8 49 -24 65z" />
    <glyph glyph-name="circumflex" unicode="&#x2c6;" horiz-adv-x="455" 
d="M226 706h4l165 -136l-70 -88l-98 81l-100 -79l-67 87z" />
    <glyph glyph-name="caron" unicode="&#x2c7;" horiz-adv-x="455" 
d="M229 488h-4l-165 136l70 88l98 -81l100 79l67 -87z" />
    <glyph glyph-name="breve" unicode="&#x2d8;" horiz-adv-x="452" 
d="M60 607l66 75c31 -35 66 -52 105 -52c45 0 82 17 110 50l51 -72c-43 -65 -99 -98 -167 -98c-41 0 -75 10 -103 31s-49 43 -62 66z" />
    <glyph glyph-name="dotaccent" unicode="&#x2d9;" horiz-adv-x="296" 
d="M60 605c0 52 40 85 91 85c45 0 85 -34 85 -85c0 -56 -40 -91 -85 -91c-52 0 -91 34 -91 91z" />
    <glyph glyph-name="ring" unicode="&#x2da;" horiz-adv-x="396" 
d="M60 611c0 36 13 66 39 91s59 38 98 38c40 0 73 -13 99 -38c27 -25 40 -55 40 -91c0 -35 -13 -65 -40 -90c-26 -25 -59 -37 -99 -37c-39 0 -72 12 -98 37s-39 55 -39 90zM155 613c0 -28 17 -49 44 -49c25 0 42 21 42 49c0 27 -17 47 -42 47c-27 0 -44 -20 -44 -47z" />
    <glyph glyph-name="ogonek" unicode="&#x2db;" horiz-adv-x="385" 
d="M280 -70l45 -90c-17 -21 -68 -40 -120 -40c-84 0 -145 32 -145 95c0 29 13 54 40 75c53 40 129 54 209 53v-23c-55 0 -99 -29 -99 -54c0 -17 10 -26 30 -26c13 0 26 3 40 10z" />
    <glyph glyph-name="tilde" unicode="&#x2dc;" horiz-adv-x="485" 
d="M120 519l-60 67c37 52 81 78 132 78c16 0 36 -7 61 -20s44 -19 57 -19s22 1 31 5c9 2 23 15 35 22l49 -75c-40 -48 -82 -72 -127 -72c-15 0 -34 6 -59 19s-45 20 -60 20c-10 0 -30 -8 -59 -25z" />
    <glyph glyph-name="hungarumlaut" unicode="&#x2dd;" horiz-adv-x="519" 
d="M348 726l111 -84l-140 -139l-89 63zM157 740l108 -80l-116 -157l-89 63z" />
    <glyph glyph-name="gravecomb" unicode="&#x300;" horiz-adv-x="0" 
d="M-207 566l-89 -63l-133 144l119 89z" />
    <glyph glyph-name="acutecomb" unicode="&#x301;" horiz-adv-x="0" 
d="M-240 738l117 -89l-131 -146l-89 63z" />
    <glyph glyph-name="uni0394" unicode="&#x394;" horiz-adv-x="756" 
d="M736 0h-716l303 708h103zM498 150l-127 290l-119 -290h246z" />
    <glyph glyph-name="uni0394" unicode="&#x2206;" horiz-adv-x="756" 
d="M736 0h-716l303 708h103zM498 150l-127 290l-119 -290h246z" />
    <glyph glyph-name="uni03A9" unicode="&#x3a9;" horiz-adv-x="829" 
d="M381 0h-341v150h144c-29 9 -59 37 -88 82c-29 46 -43 99 -43 158c0 99 34 177 103 235s155 87 259 87c106 0 193 -29 260 -87c68 -57 102 -136 102 -235c0 -63 -15 -117 -44 -160s-58 -69 -88 -80h144v-150h-341v150c49 15 87 42 116 83s43 85 43 130
c0 53 -17 100 -51 139c-34 40 -81 60 -141 60c-63 0 -111 -20 -144 -59c-32 -39 -48 -87 -48 -143c0 -40 14 -82 43 -126c29 -43 67 -71 115 -84v-150z" />
    <glyph glyph-name="uni03A9" unicode="&#x2126;" horiz-adv-x="829" 
d="M381 0h-341v150h144c-29 9 -59 37 -88 82c-29 46 -43 99 -43 158c0 99 34 177 103 235s155 87 259 87c106 0 193 -29 260 -87c68 -57 102 -136 102 -235c0 -63 -15 -117 -44 -160s-58 -69 -88 -80h144v-150h-341v150c49 15 87 42 116 83s43 85 43 130
c0 53 -17 100 -51 139c-34 40 -81 60 -141 60c-63 0 -111 -20 -144 -59c-32 -39 -48 -87 -48 -143c0 -40 14 -82 43 -126c29 -43 67 -71 115 -84v-150z" />
    <glyph glyph-name="pi" unicode="&#x3c0;" horiz-adv-x="619" 
d="M110 310h-73v140h533v-140h-65v-124c0 -39 8 -58 25 -58c9 0 22 5 39 16l30 -114c-34 -28 -78 -42 -132 -42c-75 0 -112 47 -112 141v181h-96v-30c0 -235 -75 -292 -226 -292l-13 146c47 -5 84 23 88 126z" />
    <glyph glyph-name="afii10023" unicode="&#x401;" horiz-adv-x="575" 
d="M515 0h-425v700h415v-150h-255v-123h225v-150h-225v-127h265v-150zM100 837c0 48 42 78 98 78c49 0 91 -31 91 -78c0 -52 -42 -84 -91 -84c-56 0 -98 31 -98 84zM331 837c0 48 43 78 98 78c49 0 91 -31 91 -78c0 -52 -40 -84 -91 -84c-56 0 -98 31 -98 84z" />
    <glyph glyph-name="afii10051" unicode="&#x402;" horiz-adv-x="767" 
d="M727 203c0 -140 -68 -215 -185 -215c-56 0 -112 24 -132 49l52 122c19 -14 38 -21 58 -21c31 0 47 21 47 62c0 49 -27 73 -82 73c-41 0 -76 -9 -105 -26v-247h-160v550h-210v150h580v-150h-210v-157c35 20 80 30 135 30c141 0 212 -73 212 -220z" />
    <glyph glyph-name="afii10052" unicode="&#x403;" horiz-adv-x="510" 
d="M250 0h-160v700h400v-150h-240v-550zM481 935l56 -129l-249 -78l-41 89z" />
    <glyph glyph-name="afii10053" unicode="&#x404;" horiz-adv-x="670" 
d="M212 432h277v-150h-280c27 -97 115 -144 218 -144c63 0 118 19 165 58l58 -135c-44 -41 -139 -73 -236 -73c-115 0 -206 32 -273 97s-101 153 -101 265c0 108 33 195 99 262c67 67 151 100 254 100c106 0 190 -27 252 -81l-71 -120c-45 34 -96 51 -152 51
c-107 0 -182 -46 -210 -130z" />
    <glyph glyph-name="afii10054" unicode="&#x405;" horiz-adv-x="557" 
d="M347 192c0 37 -46 66 -103 93c-83 36 -191 93 -189 225c0 56 21 104 62 143s96 59 164 59c89 0 158 -26 206 -77l-86 -120c-36 33 -58 47 -106 47c-44 0 -70 -20 -70 -52c0 -116 292 -88 292 -316c0 -60 -23 -109 -69 -148c-45 -39 -102 -58 -171 -58
c-50 0 -98 10 -144 31s-77 49 -93 84l91 109c37 -48 98 -74 150 -74c41 0 66 21 66 54z" />
    <glyph glyph-name="afii10055" unicode="&#x406;" horiz-adv-x="360" 
d="M260 0h-160v700h160v-700z" />
    <glyph glyph-name="afii10056" unicode="&#x407;" horiz-adv-x="360" 
d="M10 837c0 48 36 78 83 78c44 0 80 -31 80 -78c0 -52 -36 -84 -80 -84c-47 0 -83 31 -83 84zM188 837c0 48 36 78 84 78c43 0 79 -31 79 -78c0 -52 -35 -84 -79 -84c-48 0 -84 31 -84 84zM260 0h-160v700h160v-700z" />
    <glyph glyph-name="afii10057" unicode="&#x408;" horiz-adv-x="407" 
d="M157 700h160v-529c0 -119 -66 -183 -185 -183c-56 0 -112 24 -132 49l52 122c19 -14 38 -21 58 -21c29 0 47 22 47 62v500z" />
    <glyph glyph-name="afii10058" unicode="&#x409;" horiz-adv-x="999" 
d="M483 0v550h-154l-15 -132c-43 -368 -128 -446 -294 -418l3 160c27 -5 44 -3 68 25c12 15 22 36 31 63c19 56 36 163 47 312l10 140h464v-219c21 3 42 4 61 4c168 0 255 -89 255 -236c0 -155 -106 -251 -289 -251c-27 0 -62 0 -106 1c-43 1 -70 1 -81 1zM690 335
c-10 0 -26 -2 -47 -5v-178c23 -3 38 -4 46 -4c67 0 100 32 100 97c0 60 -38 90 -99 90z" />
    <glyph glyph-name="afii10059" unicode="&#x40a;" horiz-adv-x="1012" 
d="M250 0h-160v700h160v-246h245v246h160v-239c22 3 43 4 62 4c167 0 255 -89 255 -226c0 -72 -26 -130 -77 -175c-51 -44 -121 -66 -212 -66c-21 0 -49 0 -86 1c-36 1 -60 1 -73 1h-29v304h-245v-304zM655 310v-158c24 -3 40 -4 47 -4c65 0 100 31 100 87
c0 51 -39 80 -99 80c-10 0 -26 -2 -48 -5z" />
    <glyph glyph-name="afii10060" unicode="&#x40b;" horiz-adv-x="768" 
d="M220 550h-210v150h580v-150h-210v-157c35 20 80 30 133 30c101 0 215 -54 215 -223v-200h-160v152c0 93 -38 121 -98 121c-31 0 -61 -9 -90 -27v-246h-160v550z" />
    <glyph glyph-name="afii10061" unicode="&#x40c;" horiz-adv-x="692" 
d="M250 0h-160v700h160v-305l229 305h192l-263 -323l284 -377h-203l-239 333v-333zM541 935l56 -129l-249 -78l-41 89z" />
    <glyph glyph-name="afii10062" unicode="&#x40e;" horiz-adv-x="701" 
d="M530 700h161l-235 -534c-49 -112 -112 -166 -205 -166c-39 0 -86 15 -106 31l56 136c17 -11 33 -17 49 -17c26 0 43 9 52 28l9 21l-301 501h181l197 -342zM154 880h150c0 -37 17 -50 62 -50c41 0 58 10 58 50h150c1 -48 -18 -87 -57 -116c-38 -29 -88 -44 -151 -44
c-133 0 -212 63 -212 160z" />
    <glyph glyph-name="afii10145" unicode="&#x40f;" horiz-adv-x="735" 
d="M292 0h-202v700h160v-550h235v550h160v-700h-203v-150h-150v150z" />
    <glyph glyph-name="afii10017" unicode="&#x410;" horiz-adv-x="725" 
d="M161 0h-161l291 700h143l291 -700h-171l-58 147h-277zM436 297l-78 198l-79 -198h157z" />
    <glyph glyph-name="afii10018" unicode="&#x411;" horiz-adv-x="617" 
d="M90 0v700h422v-150h-262v-111c19 4 46 6 80 6c68 0 123 -20 164 -59c42 -39 63 -92 63 -157c0 -147 -99 -234 -272 -234c-35 0 -74 1 -117 3c-43 1 -69 2 -78 2zM317 295c-21 0 -43 -2 -67 -6v-139c29 -3 49 -5 60 -5c58 0 87 24 87 72c0 45 -25 78 -80 78z" />
    <glyph glyph-name="afii10019" unicode="&#x412;" horiz-adv-x="617" 
d="M90 2v696c78 4 149 6 212 6c159 0 235 -70 235 -174c0 -69 -27 -121 -80 -156v-2c57 -21 100 -76 100 -160c0 -71 -25 -124 -74 -161s-113 -55 -192 -55c-93 0 -160 2 -201 6zM312 283h-62v-131c15 -4 33 -6 54 -6c62 0 93 25 93 74c0 42 -28 63 -85 63zM300 554
c-9 0 -26 -1 -50 -4v-127h53c49 0 74 23 74 68c0 40 -34 63 -77 63z" />
    <glyph glyph-name="afii10020" unicode="&#x413;" horiz-adv-x="510" 
d="M250 0h-160v700h400v-150h-240v-550z" />
    <glyph glyph-name="afii10021" unicode="&#x414;" horiz-adv-x="764" 
d="M160 -120h-150v270h75c19 25 40 74 61 147c22 74 35 162 40 263l6 140h457v-550h95v-270h-150v120h-434v-120zM347 550l-11 -118c-5 -57 -16 -115 -32 -172s-30 -93 -43 -110h228v400h-142z" />
    <glyph glyph-name="afii10022" unicode="&#x415;" horiz-adv-x="575" 
d="M515 0h-425v700h415v-150h-255v-123h225v-150h-225v-127h265v-150z" />
    <glyph glyph-name="afii10024" unicode="&#x416;" horiz-adv-x="974" 
d="M0 0l254 365l-243 335h184l212 -306v306h160v-306l212 306h184l-243 -334l254 -366h-184l-223 335v-335h-160v335l-223 -335h-184z" />
    <glyph glyph-name="afii10025" unicode="&#x417;" horiz-adv-x="592" 
d="M281 -12c-112 0 -196 42 -251 126l87 109c51 -57 103 -85 157 -85c52 0 98 22 98 74c0 43 -36 71 -109 71h-64v150h60c49 0 86 23 86 64c0 43 -30 65 -77 65c-48 0 -89 -24 -124 -73l-92 108c47 68 137 115 237 115c129 0 216 -72 216 -197c0 -60 -29 -110 -88 -149v-3
c77 -24 115 -80 115 -167c0 -62 -25 -112 -76 -151c-51 -38 -109 -57 -175 -57z" />
    <glyph glyph-name="afii10026" unicode="&#x418;" horiz-adv-x="790" 
d="M540 435l-310 -435h-140v700h160v-435l310 435h140v-700h-160v435z" />
    <glyph glyph-name="afii10027" unicode="&#x419;" horiz-adv-x="790" 
d="M540 435l-310 -435h-140v700h160v-435l310 435h140v-700h-160v435zM200 880h150c0 -37 17 -50 62 -50c41 0 58 10 58 50h150c1 -48 -18 -87 -57 -116c-38 -29 -88 -44 -151 -44c-133 0 -212 63 -212 160z" />
    <glyph glyph-name="afii10028" unicode="&#x41a;" horiz-adv-x="692" 
d="M250 0h-160v700h160v-305l229 305h192l-263 -323l284 -377h-203l-239 333v-333z" />
    <glyph glyph-name="afii10029" unicode="&#x41b;" horiz-adv-x="733" 
d="M643 0h-160v550h-154l-15 -132c-43 -368 -128 -446 -294 -418l3 160c27 -5 44 -3 68 25c12 15 22 36 31 63c19 56 36 163 47 312l10 140h464v-700z" />
    <glyph glyph-name="afii10030" unicode="&#x41c;" horiz-adv-x="912" 
d="M250 0h-160v700h161l216 -295l204 295h151v-700h-160v446l-195 -273h-23l-194 270v-443z" />
    <glyph glyph-name="afii10031" unicode="&#x41d;" horiz-adv-x="755" 
d="M665 0h-160v282h-255v-282h-160v700h160v-268h255v268h160v-700z" />
    <glyph glyph-name="afii10032" unicode="&#x41e;" horiz-adv-x="824" 
d="M40 350c0 103 34 189 103 258s159 104 269 104c109 0 198 -33 267 -99c70 -66 105 -154 105 -263c0 -105 -35 -192 -106 -260c-70 -68 -159 -102 -266 -102c-109 0 -198 33 -268 99c-69 66 -104 154 -104 263zM210 350c0 -60 20 -110 59 -151s87 -61 143 -61
c64 0 114 20 149 59c35 40 53 91 53 153c0 63 -19 114 -58 153s-87 59 -144 59c-59 0 -107 -20 -145 -59s-57 -90 -57 -153z" />
    <glyph glyph-name="afii10033" unicode="&#x41f;" horiz-adv-x="745" 
d="M655 0h-160v550h-245v-550h-160v700h565v-700z" />
    <glyph glyph-name="afii10034" unicode="&#x420;" horiz-adv-x="627" 
d="M250 238v-238h-160v700c12 0 46 0 101 1c56 1 94 1 113 1c99 0 171 -22 216 -66c45 -43 67 -99 67 -166c0 -65 -24 -121 -71 -167c-47 -45 -110 -68 -188 -68c-35 0 -61 1 -78 3zM320 552c-3 0 -26 -1 -70 -2v-160c25 -3 50 -5 73 -5c51 0 94 25 94 86
c0 54 -32 81 -97 81z" />
    <glyph glyph-name="afii10035" unicode="&#x421;" horiz-adv-x="655" 
d="M574 189l61 -120c-21 -24 -53 -44 -95 -59s-86 -22 -133 -22c-109 0 -197 33 -265 99c-68 67 -102 154 -102 263c0 105 32 192 96 260s154 102 270 102c89 0 170 -30 214 -73l-71 -120c-47 29 -95 43 -143 43c-57 0 -104 -19 -141 -56s-55 -89 -55 -156
c0 -62 20 -113 59 -153c39 -39 90 -59 153 -59c56 0 107 17 152 51z" />
    <glyph glyph-name="afii10036" unicode="&#x422;" 
d="M220 550h-210v150h580v-150h-210v-550h-160v550z" />
    <glyph glyph-name="afii10037" unicode="&#x423;" horiz-adv-x="701" 
d="M530 700h161l-235 -534c-49 -112 -112 -166 -205 -166c-39 0 -86 15 -106 31l56 136c17 -11 33 -17 49 -17c26 0 43 9 52 28l9 21l-301 501h181l197 -342z" />
    <glyph glyph-name="afii10038" unicode="&#x424;" horiz-adv-x="844" 
d="M501 -8h-160v94c-95 1 -171 26 -227 73c-56 48 -84 115 -84 201c0 85 28 151 85 198c57 48 132 73 226 76v74h160v-74c93 -2 169 -27 226 -76c58 -49 87 -115 87 -198c0 -85 -29 -152 -86 -200s-132 -73 -227 -74v-94zM644 360c0 73 -43 124 -143 127v-254
c103 1 143 43 143 127zM200 360c0 -83 47 -125 141 -127v254c-96 -3 -141 -54 -141 -127z" />
    <glyph glyph-name="afii10039" unicode="&#x425;" horiz-adv-x="674" 
d="M477 700h188l-224 -343l233 -357h-188l-150 235l-148 -235h-188l233 357l-222 343h188l142 -225z" />
    <glyph glyph-name="afii10040" unicode="&#x426;" horiz-adv-x="765" 
d="M595 0h-505v700h160v-550h240v550h160v-550h95v-270h-150v120z" />
    <glyph glyph-name="afii10041" unicode="&#x427;" horiz-adv-x="685" 
d="M435 700h160v-700h-160v268c-35 -27 -85 -41 -150 -41c-101 0 -215 54 -215 223v250h160v-202c0 -93 38 -121 98 -121c37 0 73 12 107 37v286z" />
    <glyph glyph-name="afii10042" unicode="&#x428;" horiz-adv-x="1000" 
d="M910 0h-820v700h160v-550h170v550h160v-550h170v550h160v-700z" />
    <glyph glyph-name="afii10043" unicode="&#x429;" horiz-adv-x="1025" 
d="M855 0h-765v700h160v-550h170v550h160v-550h170v550h160v-550h95v-270h-150v120z" />
    <glyph glyph-name="afii10044" unicode="&#x42a;" horiz-adv-x="677" 
d="M150 550h-140v150h300v-219c22 3 43 4 62 4c177 0 265 -88 265 -236c0 -153 -108 -251 -299 -251c-27 0 -62 0 -106 1c-43 1 -71 1 -82 1v550zM358 335c-10 0 -26 -2 -48 -5v-178c24 -3 40 -4 47 -4c73 0 110 32 110 97c0 60 -36 90 -109 90z" />
    <glyph glyph-name="afii10045" unicode="&#x42b;" horiz-adv-x="885" 
d="M795 0h-160v700h160v-700zM298 335c-10 0 -26 -2 -48 -5v-178c24 -3 40 -4 47 -4c67 0 100 32 100 97c0 60 -38 90 -99 90zM90 700h160v-219c22 3 43 4 62 4c168 0 255 -89 255 -236c0 -76 -25 -137 -76 -183c-51 -45 -122 -68 -213 -68c-27 0 -62 0 -106 1
c-43 1 -71 1 -82 1v700z" />
    <glyph glyph-name="afii10046" unicode="&#x42c;" horiz-adv-x="617" 
d="M298 335c-10 0 -26 -2 -48 -5v-178c24 -3 40 -4 47 -4c73 0 110 32 110 97c0 60 -36 90 -109 90zM90 700h160v-219c22 3 43 4 62 4c177 0 265 -88 265 -236c0 -153 -108 -251 -299 -251c-27 0 -62 0 -106 1c-43 1 -71 1 -82 1v700z" />
    <glyph glyph-name="afii10047" unicode="&#x42d;" horiz-adv-x="670" 
d="M462 282h-281v150h275c-31 84 -110 130 -218 130c-56 0 -107 -17 -152 -51l-61 120c62 54 146 81 252 81c103 0 187 -33 253 -100c67 -67 100 -154 100 -262c0 -112 -34 -200 -101 -265s-158 -97 -273 -97c-97 0 -192 32 -236 73l68 135c47 -39 102 -58 165 -58
c100 0 184 47 209 144z" />
    <glyph glyph-name="afii10048" unicode="&#x42e;" horiz-adv-x="1084" 
d="M250 0h-160v700h160v-268h88c17 83 56 151 117 202c61 52 137 78 227 78c108 0 195 -33 262 -99c67 -65 100 -153 100 -263c0 -106 -34 -193 -101 -261c-67 -67 -154 -101 -261 -101c-88 0 -164 26 -229 79s-104 125 -118 215h-85v-282zM500 350c0 -59 18 -110 55 -151
s81 -61 132 -61c127 0 187 85 187 212c0 128 -74 212 -187 212c-54 0 -99 -20 -134 -59s-53 -90 -53 -153z" />
    <glyph glyph-name="afii10049" unicode="&#x42f;" horiz-adv-x="643" 
d="M553 0h-160v225h-71l-133 -225h-179l164 260c-72 43 -108 106 -108 191c0 73 25 133 74 181s125 72 227 72c15 0 46 -1 94 -2s79 -2 92 -2v-700zM309 375h84v175c-13 3 -33 4 -58 4c-55 0 -99 -36 -99 -92c0 -49 32 -78 73 -87z" />
    <glyph glyph-name="afii10065" unicode="&#x430;" horiz-adv-x="465" 
d="M103 309l-37 109c39 24 107 44 167 44c133 0 187 -64 187 -191v-271h-130v41c-22 -31 -61 -47 -118 -47c-84 0 -142 53 -142 142c0 97 67 149 162 149c37 0 67 -8 88 -25c3 51 -18 77 -62 77c-29 0 -68 -9 -115 -28zM223 119c27 0 46 8 57 23v28c-14 10 -33 15 -57 15
c-25 0 -43 -13 -43 -34c0 -20 18 -32 43 -32z" />
    <glyph glyph-name="afii10066" unicode="&#x431;" horiz-adv-x="544" 
d="M383 712l78 -124c-19 -20 -39 -35 -62 -44c-45 -17 -109 -28 -146 -48c-45 -24 -71 -64 -78 -119h2c27 36 83 63 138 63c59 0 107 -20 144 -60c37 -39 55 -92 55 -159c0 -65 -22 -121 -66 -166s-102 -67 -174 -67c-78 0 -139 26 -183 78s-66 122 -66 211
c0 191 58 311 173 362c23 10 48 18 75 24c53 13 82 21 110 49zM185 245c1 -64 32 -117 85 -117c112 -8 109 180 6 172c-44 0 -74 -18 -91 -55z" />
    <glyph glyph-name="afii10067" unicode="&#x432;" horiz-adv-x="511" 
d="M55 0v450c25 0 130 6 193 6c142 0 213 -40 213 -120c0 -52 -38 -91 -79 -98v-2c56 -16 89 -53 89 -101c0 -94 -74 -141 -222 -141c-20 0 -54 1 -103 3c-48 2 -78 3 -91 3zM253 180h-48v-62c29 -3 50 -4 61 -4c27 0 46 15 46 32c0 23 -20 34 -59 34zM262 336
c-26 0 -45 -1 -57 -3v-63h50c31 0 47 11 47 34c0 17 -15 32 -40 32z" />
    <glyph glyph-name="afii10068" unicode="&#x433;" horiz-adv-x="385" 
d="M205 0h-150v450h320v-140h-170v-310z" />
    <glyph glyph-name="afii10069" unicode="&#x434;" horiz-adv-x="574" 
d="M150 -100h-140v240h58c33 43 52 114 58 213l6 97h357v-310h75v-240h-140v100h-274v-100zM272 310l-2 -18c-8 -67 -23 -118 -45 -152h114v170h-67z" />
    <glyph glyph-name="afii10070" unicode="&#x435;" horiz-adv-x="512" 
d="M408 145l41 -106c-45 -34 -104 -51 -175 -51c-74 0 -133 22 -178 65c-44 43 -66 101 -66 172c0 67 22 124 67 169s104 68 177 68c60 0 111 -20 154 -60c43 -39 64 -90 64 -152c0 -30 -3 -55 -9 -75h-298c13 -41 48 -62 105 -62c45 0 84 11 118 32zM269 337
c-45 0 -74 -21 -89 -62h162c0 33 -28 62 -73 62z" />
    <glyph glyph-name="afii10072" unicode="&#x436;" horiz-adv-x="739" 
d="M0 0l141 231l-132 219h181l103 -200v200h150v-201l107 201h177l-132 -219l144 -231h-177l-119 213v-213h-150v212l-116 -212h-177z" />
    <glyph glyph-name="afii10073" unicode="&#x437;" horiz-adv-x="479" 
d="M226 -12c-43 0 -84 8 -123 23c-39 16 -66 35 -83 58l76 92c24 -28 77 -53 118 -53c43 0 65 11 65 32c0 23 -16 34 -48 34h-86v100h81c29 0 43 16 43 36c0 21 -19 32 -58 32c-36 0 -74 -17 -115 -52l-62 90c45 55 114 82 206 82c123 0 189 -49 189 -132
c0 -43 -33 -81 -82 -97v-2c61 -14 92 -49 92 -106c0 -84 -84 -137 -213 -137z" />
    <glyph glyph-name="afii10074" unicode="&#x438;" horiz-adv-x="570" 
d="M365 235l-160 -235h-150v450h150v-235l160 235h150v-450h-150v235z" />
    <glyph glyph-name="afii10075" unicode="&#x439;" horiz-adv-x="570" 
d="M365 235l-160 -235h-150v450h150v-235l160 235h150v-450h-150v235zM117 670h130c0 -39 14 -58 42 -58c25 0 38 19 38 58h130c0 -99 -60 -170 -168 -170c-117 0 -172 69 -172 170z" />
    <glyph glyph-name="afii10076" unicode="&#x43a;" horiz-adv-x="533" 
d="M205 0h-150v450h150v-208l122 208h188l-146 -214l168 -236h-194l-138 210v-210z" />
    <glyph glyph-name="afii10077" unicode="&#x43b;" horiz-adv-x="545" 
d="M490 0h-150v300h-79l-2 -20c-28 -238 -70 -288 -226 -292l-13 146c49 -5 87 47 94 176l7 140h369v-450z" />
    <glyph glyph-name="afii10078" unicode="&#x43c;" horiz-adv-x="636" 
d="M205 0h-150v450h135l135 -153l125 153h131v-450h-150v221l-109 -125h-3l-114 125v-221z" />
    <glyph glyph-name="afii10079" unicode="&#x43d;" horiz-adv-x="555" 
d="M500 0h-150v155h-145v-155h-150v450h150v-155h145v155h150v-450z" />
    <glyph glyph-name="afii10080" unicode="&#x43e;" horiz-adv-x="560" 
d="M98 55c-45 45 -68 101 -68 170s23 125 68 170c46 45 107 67 182 67s136 -22 181 -67c46 -45 69 -101 69 -170s-23 -125 -69 -170c-45 -45 -106 -67 -181 -67s-136 22 -182 67zM190 225c0 -56 38 -97 90 -97s90 37 90 97c0 57 -39 97 -90 97s-90 -38 -90 -97z" />
    <glyph glyph-name="afii10081" unicode="&#x43f;" horiz-adv-x="550" 
d="M495 0h-150v310h-140v-310h-150v450h440v-450z" />
    <glyph glyph-name="afii10082" unicode="&#x440;" horiz-adv-x="561" 
d="M205 -200h-150v650h150v-34c31 31 72 46 125 46c60 0 108 -22 145 -65s56 -98 56 -165c0 -70 -22 -128 -67 -175c-45 -46 -103 -69 -175 -69c-34 0 -62 5 -84 14v-202zM283 322c-28 0 -54 -13 -78 -40v-137c19 -11 43 -17 70 -17c63 0 96 42 96 101c0 55 -33 93 -88 93z
" />
    <glyph glyph-name="afii10083" unicode="&#x441;" horiz-adv-x="485" 
d="M391 178l70 -110c-39 -53 -100 -80 -184 -80c-75 0 -135 22 -180 65s-67 101 -67 172c0 67 22 123 66 168c45 46 102 69 172 69c82 0 143 -21 184 -64l-69 -118c-28 28 -60 42 -96 42c-51 0 -97 -37 -97 -97c0 -29 10 -52 30 -70c21 -18 44 -27 69 -27c37 0 71 17 102 50
z" />
    <glyph glyph-name="afii10084" unicode="&#x442;" horiz-adv-x="450" 
d="M150 300h-130v150h410v-150h-130v-300h-150v300z" />
    <glyph glyph-name="afii10085" unicode="&#x443;" horiz-adv-x="516" 
d="M345 450h171l-175 -450c-32 -79 -61 -132 -86 -159s-56 -41 -91 -41c-38 0 -74 14 -107 42l48 113c16 -11 30 -16 43 -16c19 0 33 12 43 37l10 24l-201 450h181l77 -206c4 -11 10 -31 17 -62c3 27 6 48 11 63z" />
    <glyph glyph-name="afii10086" unicode="&#x444;" horiz-adv-x="700" 
d="M425 -200h-150v188h-1c-77 0 -137 22 -180 66c-43 45 -64 102 -64 171c0 65 21 121 64 167c43 47 103 70 179 70h2v238h150v-238h3c77 0 137 -22 179 -67c42 -44 63 -101 63 -170c0 -141 -81 -237 -242 -237h-3v-188zM190 225c0 -64 28 -96 85 -97v194h-3
c-55 0 -82 -32 -82 -97zM428 322h-3v-194c57 0 85 32 85 97c0 56 -26 97 -82 97z" />
    <glyph glyph-name="afii10087" unicode="&#x445;" horiz-adv-x="537" 
d="M344 450h173l-140 -214l150 -236h-183l-78 142l-83 -142h-173l149 228l-139 222h183l69 -128z" />
    <glyph glyph-name="afii10088" unicode="&#x446;" horiz-adv-x="570" 
d="M420 0h-365v450h150v-310h130v310h150v-310h75v-240h-140v100z" />
    <glyph glyph-name="afii10089" unicode="&#x447;" horiz-adv-x="500" 
d="M295 450h150v-450h-150v136c-29 -13 -62 -19 -100 -19c-117 0 -165 62 -165 181v152h160v-132c0 -41 16 -61 48 -61c25 0 44 3 57 10v183z" />
    <glyph glyph-name="afii10090" unicode="&#x448;" horiz-adv-x="740" 
d="M685 0h-630v450h150v-310h90v310h150v-310h90v310h150v-450z" />
    <glyph glyph-name="afii10091" unicode="&#x449;" horiz-adv-x="770" 
d="M620 0h-565v450h150v-310h90v310h150v-310h90v310h150v-310h75v-240h-140v100z" />
    <glyph glyph-name="afii10092" unicode="&#x44a;" horiz-adv-x="552" 
d="M125 310h-105v140h255v-105h52c73 0 125 -16 157 -47s48 -69 48 -115c0 -51 -18 -94 -53 -130c-35 -35 -90 -53 -163 -53h-191v310zM314 225h-39v-95h38c39 0 59 16 59 47c0 32 -19 48 -58 48z" />
    <glyph glyph-name="afii10093" unicode="&#x44b;" horiz-adv-x="705" 
d="M241 0h-186v450h150v-105h47c73 0 125 -16 157 -47s48 -69 48 -115c0 -51 -18 -94 -53 -130c-35 -35 -90 -53 -163 -53zM650 0h-150v450h150v-450zM239 225h-34v-95h33c39 0 59 16 59 47c0 32 -19 48 -58 48z" />
    <glyph glyph-name="afii10094" unicode="&#x44c;" horiz-adv-x="482" 
d="M246 0h-191v450h150v-105h52c73 0 125 -16 157 -47s48 -69 48 -115c0 -51 -18 -94 -53 -130c-35 -35 -90 -53 -163 -53zM244 225h-39v-95h38c39 0 59 16 59 47c0 32 -19 48 -58 48z" />
    <glyph glyph-name="afii10095" unicode="&#x44d;" horiz-adv-x="496" 
d="M309 177h-180v100h177c-15 37 -47 55 -94 55c-37 0 -77 -13 -120 -40l-61 104c43 43 117 66 178 66c160 0 257 -92 257 -237c0 -69 -22 -125 -66 -170c-43 -45 -104 -67 -182 -67c-83 0 -147 24 -193 72l70 98c30 -27 68 -40 114 -40c55 0 88 20 100 59z" />
    <glyph glyph-name="afii10096" unicode="&#x44e;" horiz-adv-x="785" 
d="M215 0h-160v450h160v-145h61c29 96 114 157 229 157c75 0 135 -22 181 -67s69 -101 69 -170c0 -68 -23 -125 -70 -170c-46 -45 -106 -67 -180 -67c-120 0 -205 66 -232 167h-58v-155zM435 225c0 -56 31 -87 75 -87c45 0 75 31 75 87c0 55 -27 87 -75 87
c-44 0 -75 -32 -75 -87z" />
    <glyph glyph-name="afii10097" unicode="&#x44f;" horiz-adv-x="503" 
d="M293 450h155v-450h-150v115h-36l-71 -115h-171l107 148c-50 27 -75 71 -75 133c0 100 78 169 241 169zM212 269c0 -24 26 -44 59 -44h27v95h-29c-33 0 -57 -26 -57 -51z" />
    <glyph glyph-name="afii10071" unicode="&#x451;" horiz-adv-x="512" 
d="M408 145l41 -106c-45 -34 -104 -51 -175 -51c-74 0 -133 22 -178 65c-44 43 -66 101 -66 172c0 67 22 124 67 169s104 68 177 68c60 0 111 -20 154 -60c43 -39 64 -90 64 -152c0 -30 -3 -55 -9 -75h-298c13 -41 48 -62 105 -62c45 0 84 11 118 32zM269 337
c-45 0 -74 -21 -89 -62h162c0 33 -28 62 -73 62zM97 589c0 49 35 81 82 81c40 0 76 -32 76 -81c0 -53 -35 -86 -76 -86c-47 0 -82 33 -82 86zM290 589c0 49 37 81 82 81c41 0 76 -32 76 -81c0 -53 -35 -86 -76 -86c-47 0 -82 33 -82 86z" />
    <glyph glyph-name="afii10099" unicode="&#x452;" horiz-adv-x="584" 
d="M115 405h-105v120h105v175h150v-175h136v-120h-136v-86c29 26 66 39 111 39c111 0 183 -60 183 -188c0 -175 -69 -299 -158 -370h-158c110 103 165 214 165 333c0 56 -27 85 -71 85c-29 0 -53 -10 -72 -29v-189h-150v405z" />
    <glyph glyph-name="afii10100" unicode="&#x453;" horiz-adv-x="385" 
d="M205 0h-150v450h320v-140h-170v-310zM259 738l117 -89l-131 -146l-89 63z" />
    <glyph glyph-name="afii10101" unicode="&#x454;" horiz-adv-x="496" 
d="M189 277h178v-100h-179c15 -39 51 -59 109 -59c39 0 74 13 104 40l70 -98c-45 -48 -95 -72 -183 -72c-81 0 -145 22 -190 67s-68 101 -68 170c0 145 97 237 257 237c61 0 135 -23 178 -66l-61 -104c-35 27 -75 40 -120 40c-48 0 -80 -18 -95 -55z" />
    <glyph glyph-name="afii10102" unicode="&#x455;" horiz-adv-x="459" 
d="M279 133c0 17 -37 27 -84 38c-67 15 -155 47 -154 144c0 93 75 147 176 147c79 0 142 -20 189 -61l-56 -106c-41 28 -82 42 -124 42c-21 0 -35 -9 -35 -20c0 -46 238 -17 238 -177c0 -92 -75 -152 -194 -152c-44 0 -86 9 -127 27c-40 19 -66 37 -78 56l71 98
c14 -14 36 -27 66 -39c30 -11 56 -17 78 -17c23 0 34 7 34 20z" />
    <glyph glyph-name="afii10103" unicode="&#x456;" horiz-adv-x="286" 
d="M218 0h-150v450h150v-450zM55 605c0 52 40 85 91 85c45 0 85 -34 85 -85c0 -56 -40 -91 -85 -91c-52 0 -91 34 -91 91z" />
    <glyph glyph-name="afii10104" unicode="&#x457;" horiz-adv-x="337" 
d="M15 586c0 43 31 71 74 71c36 0 68 -28 68 -71c0 -45 -32 -75 -68 -75c-43 0 -74 28 -74 75zM180 586c0 43 33 71 74 71c37 0 68 -28 68 -71c0 -45 -31 -75 -68 -75c-41 0 -74 28 -74 75zM243 0h-150v450h150v-450z" />
    <glyph glyph-name="afii10105" unicode="&#x458;" horiz-adv-x="281" 
d="M76 450h150v-483c0 -117 -47 -175 -141 -175c-51 0 -100 15 -120 34l39 119c15 -9 30 -13 44 -13c19 0 28 16 28 49v469zM64 605c0 52 40 85 91 85c45 0 85 -34 85 -85c0 -56 -40 -91 -85 -91c-52 0 -91 34 -91 91z" />
    <glyph glyph-name="afii10106" unicode="&#x459;" horiz-adv-x="743" 
d="M507 0h-167v300h-79l-2 -20c-28 -238 -70 -288 -226 -292l-13 146c49 -5 87 47 94 176l7 140h369v-105h28c73 0 125 -16 157 -47s48 -69 48 -115c0 -51 -18 -94 -53 -130c-35 -35 -90 -53 -163 -53zM505 225h-15v-95h14c39 0 59 16 59 47c0 32 -19 48 -58 48z" />
    <glyph glyph-name="afii10107" unicode="&#x45a;" horiz-adv-x="753" 
d="M517 0h-167v155h-145v-155h-150v450h150v-155h145v155h150v-105h28c73 0 125 -16 157 -47s48 -69 48 -115c0 -51 -18 -94 -53 -130c-35 -35 -90 -53 -163 -53zM515 225h-15v-95h14c39 0 59 16 59 47c0 32 -19 48 -58 48z" />
    <glyph glyph-name="afii10108" unicode="&#x45b;" horiz-adv-x="584" 
d="M115 405h-105v120h105v175h150v-175h136v-120h-136v-86c29 26 66 39 111 39c112 0 183 -61 183 -194v-164h-150v145c0 44 -29 73 -72 73c-29 0 -53 -10 -72 -29v-189h-150v405z" />
    <glyph glyph-name="afii10109" unicode="&#x45c;" horiz-adv-x="533" 
d="M205 0h-150v450h150v-208l122 208h188l-146 -214l168 -236h-194l-138 210v-210zM285 738l117 -89l-131 -146l-89 63z" />
    <glyph glyph-name="afii10110" unicode="&#x45e;" horiz-adv-x="516" 
d="M345 450h171l-175 -450c-32 -79 -61 -132 -86 -159s-56 -41 -91 -41c-38 0 -74 14 -107 42l48 113c16 -11 30 -16 43 -16c19 0 33 12 43 37l10 24l-201 450h181l77 -206c4 -11 10 -31 17 -62c3 27 6 48 11 63zM95 670h130c0 -39 14 -58 42 -58c25 0 38 19 38 58h130
c0 -99 -60 -170 -168 -170c-117 0 -172 69 -172 170z" />
    <glyph glyph-name="afii10193" unicode="&#x45f;" horiz-adv-x="540" 
d="M200 0h-145v450h150v-310h130v310h150v-450h-145v-110h-140v110z" />
    <glyph glyph-name="afii10146" unicode="&#x462;" horiz-adv-x="657" 
d="M130 700h160v-60h137v-150h-137v-49c22 3 43 4 62 4c180 0 265 -72 265 -216c0 -151 -104 -231 -299 -231c-27 0 -62 0 -106 1c-43 1 -71 1 -82 1v490h-110v150h110v60zM338 295c-10 0 -26 -2 -48 -5v-138c24 -3 40 -4 47 -4c76 0 110 12 110 77c0 21 -6 37 -17 48
c-21 21 -44 22 -92 22z" />
    <glyph glyph-name="afii10194" unicode="&#x463;" horiz-adv-x="527" 
d="M115 330h-105v120h105v250h150v-250h124v-120h-124v-25h37c137 0 205 -47 205 -142c0 -97 -67 -163 -216 -163h-176v330zM289 195h-24v-75h23c41 0 59 9 59 37s-17 38 -58 38z" />
    <glyph glyph-name="afii10147" unicode="&#x472;" horiz-adv-x="824" 
d="M40 350c0 103 34 189 103 258s159 104 269 104c109 0 198 -33 267 -99c70 -66 105 -154 105 -263c0 -105 -35 -192 -106 -260c-70 -68 -159 -102 -266 -102c-109 0 -198 33 -268 99c-69 66 -104 154 -104 263zM320 320c-31 0 -63 -14 -98 -43c28 -83 103 -139 190 -139
c100 0 168 55 192 140c-35 -16 -66 -24 -91 -24c-28 0 -62 11 -102 33c-39 22 -70 33 -91 33zM524 394c27 0 53 10 79 30c-27 84 -102 138 -191 138s-160 -49 -189 -130c36 19 68 28 97 28c28 0 62 -11 103 -33s75 -33 101 -33z" />
    <glyph glyph-name="afii10195" unicode="&#x473;" horiz-adv-x="580" 
d="M100 54c-47 45 -70 102 -70 171s23 126 70 170c47 45 110 67 190 67s143 -22 190 -67c47 -44 70 -101 70 -170s-23 -126 -70 -171c-47 -44 -110 -66 -190 -66s-143 22 -190 66zM353 254c17 0 31 5 40 16c-16 49 -58 72 -103 72c-51 0 -85 -22 -102 -66c19 13 35 19 50 19
c21 0 43 -7 67 -21c24 -13 40 -20 48 -20zM232 195c-16 0 -31 -7 -44 -20c16 -45 58 -67 102 -67c53 0 87 22 102 67c-18 -14 -37 -21 -58 -21c-20 0 -40 7 -59 20c-19 14 -34 21 -43 21z" />
    <glyph glyph-name="afii10148" unicode="&#x474;" horiz-adv-x="664" 
d="M578 495l-185 -495h-123l-280 700h171l176 -462l112 330c37 105 82 169 235 132l-21 -140c-48 16 -62 -4 -85 -65z" />
    <glyph glyph-name="afii10196" unicode="&#x475;" horiz-adv-x="499" 
d="M411 248l-104 -248h-113l-204 450h178l58 -142c13 -32 23 -67 30 -104c5 31 15 66 29 105l11 30c15 40 25 62 48 86c33 33 84 46 175 23l-21 -140c-48 16 -62 -1 -87 -60z" />
    <glyph glyph-name="afii10050" unicode="&#x490;" horiz-adv-x="510" 
d="M250 0h-160v700h250v110h150v-260h-240v-550z" />
    <glyph glyph-name="afii10098" unicode="&#x491;" horiz-adv-x="385" 
d="M205 0h-150v450h180v90h140v-230h-170v-310z" />
    <glyph glyph-name="uni1E9E" unicode="&#x1e9e;" horiz-adv-x="704" 
d="M484 195c0 55 -87 100 -178 148l-22 11l130 171c-11 21 -45 37 -78 37c-57 0 -86 -33 -86 -100v-462h-160v449c0 181 94 263 253 263c47 0 95 -13 144 -39s89 -63 120 -111l-133 -159c50 -22 92 -53 127 -94s53 -87 53 -139c0 -54 -20 -98 -59 -132
c-39 -33 -82 -50 -129 -50c-75 0 -137 22 -185 66l68 126c33 -28 60 -42 81 -42c33 0 54 21 54 57z" />
    <glyph glyph-name="uni2010" unicode="&#x2010;" horiz-adv-x="364" 
d="M314 205h-264v140h264v-140z" />
    <glyph glyph-name="uni2011" unicode="&#x2011;" horiz-adv-x="364" 
d="M314 205h-264v140h264v-140z" />
    <glyph glyph-name="figuredash" unicode="&#x2012;" horiz-adv-x="604" 
d="M524 289h-444v130h444v-130z" />
    <glyph glyph-name="endash" unicode="&#x2013;" horiz-adv-x="604" 
d="M524 205h-444v130h444v-130z" />
    <glyph glyph-name="emdash" unicode="&#x2014;" horiz-adv-x="824" 
d="M744 205h-664v130h664v-130z" />
    <glyph glyph-name="afii00208" unicode="&#x2015;" horiz-adv-x="824" 
d="M744 205h-664v130h664v-130z" />
    <glyph glyph-name="quoteleft" unicode="&#x2018;" horiz-adv-x="243" 
d="M194 549l-126 -73c-25 27 -38 62 -38 105c0 95 54 159 113 194l70 -63c-29 -27 -43 -59 -43 -98c0 -27 8 -49 24 -65z" />
    <glyph glyph-name="quoteright" unicode="&#x2019;" horiz-adv-x="243" 
d="M49 697l126 73c25 -27 38 -62 38 -105c0 -95 -54 -159 -113 -194l-70 63c29 27 43 59 43 98c0 27 -8 49 -24 65z" />
    <glyph glyph-name="quotesinglbase" unicode="&#x201a;" horiz-adv-x="243" 
d="M49 32l126 73c25 -27 38 -62 38 -105c0 -95 -54 -159 -113 -194l-70 63c29 27 43 59 43 98c0 27 -8 49 -24 65z" />
    <glyph glyph-name="quotedblleft" unicode="&#x201c;" horiz-adv-x="423" 
d="M374 549l-126 -73c-25 27 -38 62 -38 105c0 95 54 159 113 194l70 -63c-29 -27 -43 -59 -43 -98c0 -27 8 -49 24 -65zM194 549l-126 -73c-25 27 -38 62 -38 105c0 95 54 159 113 194l70 -63c-29 -27 -43 -59 -43 -98c0 -27 8 -49 24 -65z" />
    <glyph glyph-name="quotedblright" unicode="&#x201d;" horiz-adv-x="423" 
d="M229 697l126 73c25 -27 38 -62 38 -105c0 -95 -54 -159 -113 -194l-70 63c29 27 43 59 43 98c0 27 -8 49 -24 65zM49 697l126 73c25 -27 38 -62 38 -105c0 -95 -54 -159 -113 -194l-70 63c29 27 43 59 43 98c0 27 -8 49 -24 65z" />
    <glyph glyph-name="quotedblbase" unicode="&#x201e;" horiz-adv-x="423" 
d="M229 32l126 73c25 -27 38 -62 38 -105c0 -95 -54 -159 -113 -194l-70 63c29 27 43 59 43 98c0 27 -8 49 -24 65zM49 32l126 73c25 -27 38 -62 38 -105c0 -95 -54 -159 -113 -194l-70 63c29 27 43 59 43 98c0 27 -8 49 -24 65z" />
    <glyph glyph-name="dagger" unicode="&#x2020;" horiz-adv-x="524" 
d="M192 380h-152v130h152v190h140v-190h152v-130h-152v-480h-140v480z" />
    <glyph glyph-name="daggerdbl" unicode="&#x2021;" horiz-adv-x="524" 
d="M192 380h-152v130h152v190h140v-190h152v-130h-152v-130h152v-130h-152v-220h-140v220h-152v130h152v130z" />
    <glyph glyph-name="bullet" unicode="&#x2022;" horiz-adv-x="340" 
d="M169 416c41 0 77 -15 106 -45c30 -29 45 -64 45 -105s-15 -76 -45 -106c-30 -29 -65 -44 -106 -44s-76 15 -105 44c-29 30 -44 65 -44 106s15 76 44 105c29 30 64 45 105 45z" />
    <glyph glyph-name="ellipsis" unicode="&#x2026;" horiz-adv-x="876" 
d="M640 96c0 48 41 94 102 94c53 0 94 -46 94 -94c0 -55 -39 -102 -94 -102c-61 0 -102 46 -102 102zM340 96c0 48 41 94 102 94c53 0 94 -46 94 -94c0 -55 -39 -102 -94 -102c-61 0 -102 46 -102 102zM40 96c0 48 41 94 102 94c53 0 94 -46 94 -94c0 -55 -39 -102 -94 -102
c-61 0 -102 46 -102 102z" />
    <glyph glyph-name="perthousand" unicode="&#x2030;" horiz-adv-x="1391" 
d="M998 39c-39 35 -59 80 -59 137s20 102 59 135c39 34 90 51 152 51s113 -17 152 -51c39 -33 59 -78 59 -135s-20 -102 -59 -137c-39 -34 -90 -51 -152 -51s-113 17 -152 51zM1079 176c0 -43 30 -68 71 -68c44 0 71 25 71 68c0 40 -28 66 -71 66s-71 -26 -71 -66zM266 -12
l-86 59l497 665l84 -63zM89 389c-39 35 -59 80 -59 137s20 102 59 135c39 34 90 51 152 51s113 -17 152 -51c39 -33 59 -78 59 -135s-20 -102 -59 -137c-39 -34 -90 -51 -152 -51s-113 17 -152 51zM170 526c0 -43 30 -68 71 -68c44 0 71 25 71 68c0 40 -28 66 -71 66
s-71 -26 -71 -66zM552 39c-39 35 -59 80 -59 137s20 102 59 135c39 34 90 51 152 51s113 -17 152 -51c39 -33 59 -78 59 -135s-20 -102 -59 -137c-39 -34 -90 -51 -152 -51s-113 17 -152 51zM633 176c0 -43 30 -68 71 -68c44 0 71 25 71 68c0 40 -28 66 -71 66
s-71 -26 -71 -66z" />
    <glyph glyph-name="guilsinglleft" unicode="&#x2039;" horiz-adv-x="362" 
d="M332 98l-102 -85l-200 235v4l205 235l97 -87l-129 -150z" />
    <glyph glyph-name="guilsinglright" unicode="&#x203a;" horiz-adv-x="362" 
d="M332 252v-4l-200 -235l-102 85l129 152l-129 150l97 87z" />
    <glyph glyph-name="fraction" unicode="&#x2044;" horiz-adv-x="221" 
d="M-94 -12l-86 59l497 665l84 -63z" />
    <glyph glyph-name="uni2070" unicode="&#x2070;" horiz-adv-x="412" 
d="M30 525c0 104 64 179 176 179c55 0 98 -17 129 -52c31 -34 47 -76 47 -127s-15 -94 -46 -128s-74 -51 -129 -51c-113 0 -177 72 -177 179zM170 525c0 -46 12 -69 37 -69s35 14 35 69c0 56 -11 69 -36 69s-36 -16 -36 -69z" />
    <glyph glyph-name="uni2074" unicode="&#x2074;" horiz-adv-x="393" 
d="M321 350h-120v61h-191v87l141 202h123l-134 -189h61v64h120v-64h52v-100h-52v-61z" />
    <glyph glyph-name="uni2075" unicode="&#x2075;" horiz-adv-x="357" 
d="M51 484l19 216h243v-100h-153l-3 -27c11 5 26 8 47 8c76 0 123 -40 123 -108c0 -83 -63 -130 -162 -130c-77 0 -129 19 -155 57l65 70c19 -18 42 -27 67 -27c36 0 46 7 46 24c0 16 -20 24 -60 24c-37 0 -63 -2 -77 -7z" />
    <glyph glyph-name="uni2076" unicode="&#x2076;" horiz-adv-x="410" 
d="M25 487c0 59 26 111 78 154c53 43 119 65 199 66l25 -88c-73 -6 -127 -29 -162 -68c27 13 56 20 87 20c80 0 133 -42 133 -106c0 -73 -72 -122 -173 -122c-120 0 -187 55 -187 144zM165 468c3 -17 19 -25 48 -25c21 0 32 6 32 19s-11 19 -33 19c-16 0 -32 -4 -47 -13z
" />
    <glyph glyph-name="uni2077" unicode="&#x2077;" horiz-adv-x="346" 
d="M186 590h-176v110h326v-79l-148 -271h-142z" />
    <glyph glyph-name="uni2078" unicode="&#x2078;" horiz-adv-x="430" 
d="M214 575h4c21 0 32 5 32 16s-12 16 -36 16c-23 0 -34 -6 -34 -17c0 -10 11 -15 34 -15zM218 485h-4c-29 0 -44 -7 -44 -21s15 -21 45 -21s45 7 45 21s-14 21 -42 21zM215 343c-108 0 -175 38 -175 98c0 42 19 71 57 88v2c-31 16 -47 44 -47 83c0 55 68 93 165 93
s165 -38 165 -93c0 -40 -19 -68 -56 -83v-1c44 -12 66 -38 66 -79c0 -69 -64 -108 -175 -108z" />
    <glyph glyph-name="uni2079" unicode="&#x2079;" horiz-adv-x="410" 
d="M385 546c0 -63 -25 -112 -76 -148s-118 -54 -201 -55l-20 91c99 8 151 30 157 65c-22 -20 -51 -30 -87 -30c-77 0 -133 50 -133 110c0 79 72 128 173 128c121 0 187 -57 187 -161zM245 572c-3 23 -19 35 -48 35c-21 0 -32 -6 -32 -19s13 -29 33 -29c16 0 32 4 47 13z" />
    <glyph glyph-name="uni207A" unicode="&#x207a;" horiz-adv-x="360" 
d="M129 480h-89v100h89v85h100v-85h91v-100h-91v-86h-100v86z" />
    <glyph glyph-name="uni207B" unicode="&#x207b;" horiz-adv-x="360" 
d="M320 480h-280v100h280v-100z" />
    <glyph glyph-name="uni207C" unicode="&#x207c;" horiz-adv-x="360" 
d="M320 400h-280v100h280v-100zM320 560h-280v100h280v-100z" />
    <glyph glyph-name="uni207D" unicode="&#x207d;" horiz-adv-x="257" 
d="M247 383l-76 -76c-100 48 -141 132 -141 216c0 79 45 158 142 215l68 -74c-56 -37 -80 -72 -80 -141c0 -67 35 -105 87 -140z" />
    <glyph glyph-name="uni207E" unicode="&#x207e;" horiz-adv-x="257" 
d="M10 662l76 76c100 -48 141 -132 141 -216c0 -79 -45 -158 -142 -215l-68 74c56 37 80 72 80 141c0 67 -35 105 -87 140z" />
    <glyph glyph-name="uni2080" unicode="&#x2080;" horiz-adv-x="412" 
d="M30 175c0 104 64 179 176 179c55 0 98 -17 129 -52c31 -34 47 -76 47 -127s-15 -94 -46 -128s-74 -51 -129 -51c-113 0 -177 72 -177 179zM170 175c0 -46 12 -69 37 -69s35 14 35 69c0 56 -11 69 -36 69s-36 -16 -36 -69z" />
    <glyph glyph-name="uni2081" unicode="&#x2081;" horiz-adv-x="285" 
d="M57 180l-47 88l121 80h94v-348h-130v200z" />
    <glyph glyph-name="uni2082" unicode="&#x2082;" horiz-adv-x="376" 
d="M351 0h-326v94c81 45 130 76 148 91c16 14 24 26 24 36c0 15 -9 23 -26 23c-20 0 -34 -23 -38 -43l-107 39c12 71 68 114 160 114c96 0 150 -43 150 -114c0 -37 -19 -69 -54 -90c-35 -20 -53 -28 -89 -40h158v-110z" />
    <glyph glyph-name="uni2083" unicode="&#x2083;" horiz-adv-x="372" 
d="M181 -7c-76 0 -142 29 -171 78l74 70c13 -21 43 -43 74 -43c29 0 44 6 44 18c0 10 -15 15 -45 15h-27v90h25c24 0 36 6 36 18c0 9 -10 13 -29 13c-28 0 -55 -12 -80 -36l-61 71c35 47 91 70 168 70c83 0 142 -35 142 -90c0 -44 -27 -71 -80 -81v-1c59 -3 91 -36 91 -81
c0 -33 -16 -60 -48 -81c-31 -20 -69 -30 -113 -30z" />
    <glyph glyph-name="uni2084" unicode="&#x2084;" horiz-adv-x="393" 
d="M321 0h-120v61h-191v87l141 202h123l-134 -189h61v64h120v-64h52v-100h-52v-61z" />
    <glyph glyph-name="uni2085" unicode="&#x2085;" horiz-adv-x="357" 
d="M51 134l19 216h243v-100h-153l-3 -27c11 5 26 8 47 8c76 0 123 -40 123 -108c0 -83 -63 -130 -162 -130c-77 0 -129 19 -155 57l65 70c19 -18 42 -27 67 -27c36 0 46 7 46 24c0 16 -20 24 -60 24c-37 0 -63 -2 -77 -7z" />
    <glyph glyph-name="uni2086" unicode="&#x2086;" horiz-adv-x="410" 
d="M25 137c0 59 26 111 78 154c53 43 119 65 199 66l25 -88c-73 -6 -127 -29 -162 -68c27 13 56 20 87 20c80 0 133 -42 133 -106c0 -73 -72 -122 -173 -122c-120 0 -187 55 -187 144zM165 118c3 -17 19 -25 48 -25c21 0 32 6 32 19s-11 19 -33 19c-16 0 -32 -4 -47 -13z
" />
    <glyph glyph-name="uni2087" unicode="&#x2087;" horiz-adv-x="346" 
d="M186 240h-176v110h326v-79l-148 -271h-142z" />
    <glyph glyph-name="uni2088" unicode="&#x2088;" horiz-adv-x="430" 
d="M214 225h4c21 0 32 5 32 16s-12 16 -36 16c-23 0 -34 -6 -34 -17c0 -10 11 -15 34 -15zM218 135h-4c-29 0 -44 -7 -44 -21s15 -21 45 -21s45 7 45 21s-14 21 -42 21zM215 -7c-108 0 -175 38 -175 98c0 42 19 71 57 88v2c-31 16 -47 44 -47 83c0 55 68 93 165 93
s165 -38 165 -93c0 -40 -19 -68 -56 -83v-1c44 -12 66 -38 66 -79c0 -69 -64 -108 -175 -108z" />
    <glyph glyph-name="uni2089" unicode="&#x2089;" horiz-adv-x="410" 
d="M385 196c0 -63 -25 -112 -76 -148s-118 -54 -201 -55l-20 91c99 8 151 30 157 65c-22 -20 -51 -30 -87 -30c-77 0 -133 50 -133 110c0 79 72 128 173 128c121 0 187 -57 187 -161zM245 222c-3 23 -19 35 -48 35c-21 0 -32 -6 -32 -19s13 -29 33 -29c16 0 32 4 47 13z" />
    <glyph glyph-name="uni208A" unicode="&#x208a;" horiz-adv-x="360" 
d="M129 130h-89v100h89v85h100v-85h91v-100h-91v-86h-100v86z" />
    <glyph glyph-name="uni208B" unicode="&#x208b;" horiz-adv-x="360" 
d="M320 130h-280v100h280v-100z" />
    <glyph glyph-name="uni208C" unicode="&#x208c;" horiz-adv-x="360" 
d="M320 50h-280v100h280v-100zM320 210h-280v100h280v-100z" />
    <glyph glyph-name="uni208D" unicode="&#x208d;" horiz-adv-x="257" 
d="M247 33l-76 -76c-100 48 -141 132 -141 216c0 79 45 158 142 215l68 -74c-56 -37 -80 -72 -80 -141c0 -67 35 -105 87 -140z" />
    <glyph glyph-name="uni208E" unicode="&#x208e;" horiz-adv-x="257" 
d="M10 312l76 76c100 -48 141 -132 141 -216c0 -79 -45 -158 -142 -215l-68 74c56 37 80 72 80 141c0 67 -35 105 -87 140z" />
    <glyph glyph-name="Euro" unicode="&#x20ac;" 
d="M110 385h-93l46 120h74c51 127 164 207 323 207c52 0 95 -9 130 -28l-57 -137c-19 10 -44 15 -75 15c-53 0 -97 -19 -130 -57h194l-45 -120h-196c-1 -15 -2 -26 -2 -35c0 -11 0 -20 1 -25h178l-40 -120h-89c37 -45 86 -67 147 -67c34 0 60 4 77 12l25 -145
c-39 -11 -77 -17 -115 -17c-77 0 -145 19 -204 58c-58 39 -100 92 -125 159h-115l45 120h46c-1 5 -1 14 -1 25c0 15 0 27 1 35z" />
    <glyph glyph-name="uni20B4" unicode="&#x20b4;" 
d="M250 390h-187v120h279c0 36 -13 52 -50 52c-35 0 -68 -12 -98 -37l-76 113c42 49 103 74 184 74c57 0 102 -15 137 -45s53 -69 53 -116c0 -21 -2 -34 -6 -41h51v-120h-123c-32 -37 -50 -57 -54 -60h177v-120h-283c-3 -8 -4 -15 -4 -22c0 -28 24 -50 71 -50
c39 0 78 15 116 46l78 -102c-50 -63 -122 -94 -215 -94c-51 0 -98 16 -139 47s-61 73 -61 126c0 17 3 33 8 49h-45v120h130c14 14 36 42 57 60z" />
    <glyph glyph-name="uni20B6" unicode="&#x20b6;" 
d="M97 287h-90v120h90v293c12 0 46 0 101 1c56 1 94 1 113 1c189 0 283 -71 283 -212c0 -125 -98 -203 -259 -203h-78v-60h154v-120h-154v-107h-160v107h-90v120h90v60zM327 552c-3 0 -26 -1 -70 -2v-143h73c63 0 94 23 94 69c0 57 -34 76 -97 76z" />
    <glyph glyph-name="uni20B6" unicode="&#x20cf;" 
d="M97 287h-90v120h90v293c12 0 46 0 101 1c56 1 94 1 113 1c189 0 283 -71 283 -212c0 -125 -98 -203 -259 -203h-78v-60h154v-120h-154v-107h-160v107h-90v120h90v60zM327 552c-3 0 -26 -1 -70 -2v-143h73c63 0 94 23 94 69c0 57 -34 76 -97 76z" />
    <glyph glyph-name="uni20B6" unicode="&#x20ce;" 
d="M97 287h-90v120h90v293c12 0 46 0 101 1c56 1 94 1 113 1c189 0 283 -71 283 -212c0 -125 -98 -203 -259 -203h-78v-60h154v-120h-154v-107h-160v107h-90v120h90v60zM327 552c-3 0 -26 -1 -70 -2v-143h73c63 0 94 23 94 69c0 57 -34 76 -97 76z" />
    <glyph glyph-name="uni20B6" unicode="&#x20cd;" 
d="M97 287h-90v120h90v293c12 0 46 0 101 1c56 1 94 1 113 1c189 0 283 -71 283 -212c0 -125 -98 -203 -259 -203h-78v-60h154v-120h-154v-107h-160v107h-90v120h90v60zM327 552c-3 0 -26 -1 -70 -2v-143h73c63 0 94 23 94 69c0 57 -34 76 -97 76z" />
    <glyph glyph-name="uni20B6" unicode="&#x20cc;" 
d="M97 287h-90v120h90v293c12 0 46 0 101 1c56 1 94 1 113 1c189 0 283 -71 283 -212c0 -125 -98 -203 -259 -203h-78v-60h154v-120h-154v-107h-160v107h-90v120h90v60zM327 552c-3 0 -26 -1 -70 -2v-143h73c63 0 94 23 94 69c0 57 -34 76 -97 76z" />
    <glyph glyph-name="uni20B6" unicode="&#x20cb;" 
d="M97 287h-90v120h90v293c12 0 46 0 101 1c56 1 94 1 113 1c189 0 283 -71 283 -212c0 -125 -98 -203 -259 -203h-78v-60h154v-120h-154v-107h-160v107h-90v120h90v60zM327 552c-3 0 -26 -1 -70 -2v-143h73c63 0 94 23 94 69c0 57 -34 76 -97 76z" />
    <glyph glyph-name="uni20B6" unicode="&#x20ca;" 
d="M97 287h-90v120h90v293c12 0 46 0 101 1c56 1 94 1 113 1c189 0 283 -71 283 -212c0 -125 -98 -203 -259 -203h-78v-60h154v-120h-154v-107h-160v107h-90v120h90v60zM327 552c-3 0 -26 -1 -70 -2v-143h73c63 0 94 23 94 69c0 57 -34 76 -97 76z" />
    <glyph glyph-name="uni20B6" unicode="&#x20c9;" 
d="M97 287h-90v120h90v293c12 0 46 0 101 1c56 1 94 1 113 1c189 0 283 -71 283 -212c0 -125 -98 -203 -259 -203h-78v-60h154v-120h-154v-107h-160v107h-90v120h90v60zM327 552c-3 0 -26 -1 -70 -2v-143h73c63 0 94 23 94 69c0 57 -34 76 -97 76z" />
    <glyph glyph-name="uni20B6" unicode="&#x20c8;" 
d="M97 287h-90v120h90v293c12 0 46 0 101 1c56 1 94 1 113 1c189 0 283 -71 283 -212c0 -125 -98 -203 -259 -203h-78v-60h154v-120h-154v-107h-160v107h-90v120h90v60zM327 552c-3 0 -26 -1 -70 -2v-143h73c63 0 94 23 94 69c0 57 -34 76 -97 76z" />
    <glyph glyph-name="uni20B6" unicode="&#x20c7;" 
d="M97 287h-90v120h90v293c12 0 46 0 101 1c56 1 94 1 113 1c189 0 283 -71 283 -212c0 -125 -98 -203 -259 -203h-78v-60h154v-120h-154v-107h-160v107h-90v120h90v60zM327 552c-3 0 -26 -1 -70 -2v-143h73c63 0 94 23 94 69c0 57 -34 76 -97 76z" />
    <glyph glyph-name="uni20B6" unicode="&#x20c6;" 
d="M97 287h-90v120h90v293c12 0 46 0 101 1c56 1 94 1 113 1c189 0 283 -71 283 -212c0 -125 -98 -203 -259 -203h-78v-60h154v-120h-154v-107h-160v107h-90v120h90v60zM327 552c-3 0 -26 -1 -70 -2v-143h73c63 0 94 23 94 69c0 57 -34 76 -97 76z" />
    <glyph glyph-name="uni20B6" unicode="&#x20c5;" 
d="M97 287h-90v120h90v293c12 0 46 0 101 1c56 1 94 1 113 1c189 0 283 -71 283 -212c0 -125 -98 -203 -259 -203h-78v-60h154v-120h-154v-107h-160v107h-90v120h90v60zM327 552c-3 0 -26 -1 -70 -2v-143h73c63 0 94 23 94 69c0 57 -34 76 -97 76z" />
    <glyph glyph-name="uni20B6" unicode="&#x20c4;" 
d="M97 287h-90v120h90v293c12 0 46 0 101 1c56 1 94 1 113 1c189 0 283 -71 283 -212c0 -125 -98 -203 -259 -203h-78v-60h154v-120h-154v-107h-160v107h-90v120h90v60zM327 552c-3 0 -26 -1 -70 -2v-143h73c63 0 94 23 94 69c0 57 -34 76 -97 76z" />
    <glyph glyph-name="uni20B6" unicode="&#x20c3;" 
d="M97 287h-90v120h90v293c12 0 46 0 101 1c56 1 94 1 113 1c189 0 283 -71 283 -212c0 -125 -98 -203 -259 -203h-78v-60h154v-120h-154v-107h-160v107h-90v120h90v60zM327 552c-3 0 -26 -1 -70 -2v-143h73c63 0 94 23 94 69c0 57 -34 76 -97 76z" />
    <glyph glyph-name="uni20B6" unicode="&#x20c2;" 
d="M97 287h-90v120h90v293c12 0 46 0 101 1c56 1 94 1 113 1c189 0 283 -71 283 -212c0 -125 -98 -203 -259 -203h-78v-60h154v-120h-154v-107h-160v107h-90v120h90v60zM327 552c-3 0 -26 -1 -70 -2v-143h73c63 0 94 23 94 69c0 57 -34 76 -97 76z" />
    <glyph glyph-name="uni20B6" unicode="&#x20c1;" 
d="M97 287h-90v120h90v293c12 0 46 0 101 1c56 1 94 1 113 1c189 0 283 -71 283 -212c0 -125 -98 -203 -259 -203h-78v-60h154v-120h-154v-107h-160v107h-90v120h90v60zM327 552c-3 0 -26 -1 -70 -2v-143h73c63 0 94 23 94 69c0 57 -34 76 -97 76z" />
    <glyph glyph-name="uni20B6" unicode="&#x20c0;" 
d="M97 287h-90v120h90v293c12 0 46 0 101 1c56 1 94 1 113 1c189 0 283 -71 283 -212c0 -125 -98 -203 -259 -203h-78v-60h154v-120h-154v-107h-160v107h-90v120h90v60zM327 552c-3 0 -26 -1 -70 -2v-143h73c63 0 94 23 94 69c0 57 -34 76 -97 76z" />
    <glyph glyph-name="uni20B6" unicode="&#x20bf;" 
d="M97 287h-90v120h90v293c12 0 46 0 101 1c56 1 94 1 113 1c189 0 283 -71 283 -212c0 -125 -98 -203 -259 -203h-78v-60h154v-120h-154v-107h-160v107h-90v120h90v60zM327 552c-3 0 -26 -1 -70 -2v-143h73c63 0 94 23 94 69c0 57 -34 76 -97 76z" />
    <glyph glyph-name="uni20B6" unicode="&#x20be;" 
d="M97 287h-90v120h90v293c12 0 46 0 101 1c56 1 94 1 113 1c189 0 283 -71 283 -212c0 -125 -98 -203 -259 -203h-78v-60h154v-120h-154v-107h-160v107h-90v120h90v60zM327 552c-3 0 -26 -1 -70 -2v-143h73c63 0 94 23 94 69c0 57 -34 76 -97 76z" />
    <glyph glyph-name="uni20B6" unicode="&#x20bd;" 
d="M97 287h-90v120h90v293c12 0 46 0 101 1c56 1 94 1 113 1c189 0 283 -71 283 -212c0 -125 -98 -203 -259 -203h-78v-60h154v-120h-154v-107h-160v107h-90v120h90v60zM327 552c-3 0 -26 -1 -70 -2v-143h73c63 0 94 23 94 69c0 57 -34 76 -97 76z" />
    <glyph glyph-name="uni20B6" unicode="&#x20bc;" 
d="M97 287h-90v120h90v293c12 0 46 0 101 1c56 1 94 1 113 1c189 0 283 -71 283 -212c0 -125 -98 -203 -259 -203h-78v-60h154v-120h-154v-107h-160v107h-90v120h90v60zM327 552c-3 0 -26 -1 -70 -2v-143h73c63 0 94 23 94 69c0 57 -34 76 -97 76z" />
    <glyph glyph-name="uni20B6" unicode="&#x20bb;" 
d="M97 287h-90v120h90v293c12 0 46 0 101 1c56 1 94 1 113 1c189 0 283 -71 283 -212c0 -125 -98 -203 -259 -203h-78v-60h154v-120h-154v-107h-160v107h-90v120h90v60zM327 552c-3 0 -26 -1 -70 -2v-143h73c63 0 94 23 94 69c0 57 -34 76 -97 76z" />
    <glyph glyph-name="uni20B6" unicode="&#x20ba;" 
d="M97 287h-90v120h90v293c12 0 46 0 101 1c56 1 94 1 113 1c189 0 283 -71 283 -212c0 -125 -98 -203 -259 -203h-78v-60h154v-120h-154v-107h-160v107h-90v120h90v60zM327 552c-3 0 -26 -1 -70 -2v-143h73c63 0 94 23 94 69c0 57 -34 76 -97 76z" />
    <glyph glyph-name="uni20B6" unicode="&#x20b9;" 
d="M97 287h-90v120h90v293c12 0 46 0 101 1c56 1 94 1 113 1c189 0 283 -71 283 -212c0 -125 -98 -203 -259 -203h-78v-60h154v-120h-154v-107h-160v107h-90v120h90v60zM327 552c-3 0 -26 -1 -70 -2v-143h73c63 0 94 23 94 69c0 57 -34 76 -97 76z" />
    <glyph glyph-name="uni20B6" unicode="&#x20b7;" 
d="M97 287h-90v120h90v293c12 0 46 0 101 1c56 1 94 1 113 1c189 0 283 -71 283 -212c0 -125 -98 -203 -259 -203h-78v-60h154v-120h-154v-107h-160v107h-90v120h90v60zM327 552c-3 0 -26 -1 -70 -2v-143h73c63 0 94 23 94 69c0 57 -34 76 -97 76z" />
    <glyph glyph-name="afii61352" unicode="&#x2116;" horiz-adv-x="1202" 
d="M680 700v-700h-128l-312 420v-420h-150v700h128l312 -422v422h150zM779 335c-39 35 -59 80 -59 137s20 102 59 135c39 34 90 51 152 51s113 -17 152 -51c39 -33 59 -78 59 -135s-20 -102 -59 -137c-39 -34 -90 -51 -152 -51s-113 17 -152 51zM860 472
c0 -43 30 -68 71 -68c44 0 71 25 71 68c0 40 -28 66 -71 66s-71 -26 -71 -66zM1102 106h-342v140h342v-140z" />
    <glyph glyph-name="trademark" unicode="&#x2122;" horiz-adv-x="884" 
d="M518 385h-141v315h126l106 -77l98 77h122v-315h-141v139l-82 -62h-2l-86 62v-139zM114 565h-94v135h328v-135h-94v-180h-140v180z" />
    <glyph glyph-name="arrowleft" unicode="&#x2190;" horiz-adv-x="643" 
d="M40 273l283 283l106 -106l-102 -102h276v-150h-276l102 -102l-106 -106z" />
    <glyph glyph-name="arrowup" unicode="&#x2191;" horiz-adv-x="646" 
d="M248 276l-102 -102l-106 106l283 283l283 -283l-106 -106l-102 102v-276h-150v276z" />
    <glyph glyph-name="arrowright" unicode="&#x2192;" horiz-adv-x="643" 
d="M316 348l-102 102l106 106l283 -283l-283 -283l-106 106l102 102h-276v150h276z" />
    <glyph glyph-name="arrowdown" unicode="&#x2193;" horiz-adv-x="646" 
d="M323 -20l-283 283l106 106l102 -102v276h150v-276l102 102l106 -106z" />
    <glyph glyph-name="partialdiff" unicode="&#x2202;" horiz-adv-x="601" 
d="M30 200c0 73 23 134 70 185s109 77 186 77c55 0 97 -13 125 -40c0 111 -75 153 -214 156l22 134c224 0 352 -103 352 -299c0 -126 -26 -228 -79 -307s-130 -118 -231 -118c-71 0 -128 20 -169 61s-62 91 -62 151zM190 213c0 -48 33 -85 88 -85c65 0 108 62 121 158
c-29 24 -65 36 -106 36c-60 0 -103 -48 -103 -109z" />
    <glyph glyph-name="product" unicode="&#x220f;" horiz-adv-x="885" 
d="M795 -200h-160v750h-385v-750h-160v900h705v-900z" />
    <glyph glyph-name="summation" unicode="&#x2211;" horiz-adv-x="650" 
d="M40 -88l267 338l-267 338v112h570v-150h-347l228 -300l-238 -300h357v-150h-570v112z" />
    <glyph glyph-name="minus" unicode="&#x2212;" 
d="M537 295h-474v130h474v-130z" />
    <glyph glyph-name="uni2215" unicode="&#x2215;" horiz-adv-x="382" 
d="M86 -208l-116 43l327 877l115 -43z" />
    <glyph glyph-name="radical" unicode="&#x221a;" horiz-adv-x="643" 
d="M103 300h-93v150h196l135 -197l114 447h308v-150h-177l-144 -550h-133z" />
    <glyph glyph-name="infinity" unicode="&#x221e;" horiz-adv-x="766" 
d="M557 153c-67 0 -126 28 -175 83c-46 -55 -101 -83 -165 -83c-47 0 -89 17 -124 52s-53 81 -53 136c0 52 17 97 50 134s77 56 130 56c59 0 114 -30 163 -89c45 59 102 89 173 89c51 0 92 -18 123 -55c31 -36 47 -82 47 -139c0 -51 -16 -94 -48 -130s-72 -54 -121 -54z
M234 283c29 0 55 16 78 49c-31 47 -51 69 -78 69c-35 0 -54 -24 -54 -60s19 -58 54 -58zM530 401c-24 0 -49 -20 -76 -59c30 -39 58 -59 84 -59c27 0 48 24 48 60c0 31 -21 58 -56 58z" />
    <glyph glyph-name="integral" unicode="&#x222b;" horiz-adv-x="320" 
d="M205 514v-514c0 -140 -33 -208 -142 -208c-15 0 -32 2 -50 5c-33 6 -56 16 -70 29l39 119c15 -9 30 -13 44 -13c34 0 29 40 29 78v513c0 123 61 189 164 189c18 0 36 -2 53 -6c35 -7 61 -20 78 -38l-50 -114c-7 7 -15 11 -24 14c-27 8 -71 8 -71 -54z" />
    <glyph glyph-name="approxequal" unicode="&#x2248;" 
d="M97 169l-64 96c44 53 104 90 157 90c27 0 67 -11 118 -33c52 -22 91 -33 116 -33c29 0 65 21 85 45l58 -103c-51 -48 -99 -72 -144 -72c-28 0 -67 11 -117 33c-49 22 -85 33 -106 33c-31 0 -66 -19 -103 -56zM97 369l-64 96c44 53 104 90 157 90c27 0 67 -11 118 -33
c52 -22 91 -33 116 -33c29 0 65 21 85 45l58 -103c-51 -48 -99 -72 -144 -72c-28 0 -67 11 -117 33c-49 22 -85 33 -106 33c-31 0 -66 -19 -103 -56z" />
    <glyph glyph-name="notequal" unicode="&#x2260;" 
d="M248 395h-185v130h234l70 187l115 -43l-54 -144h109v-130h-158l-26 -70h184v-130h-233l-77 -207l-116 43l61 164h-109v130h158z" />
    <glyph glyph-name="lessequal" unicode="&#x2264;" 
d="M530 -46l-490 276v135l490 -269v-142zM530 316v-162l-490 276v64l490 274v-162l-284 -144z" />
    <glyph glyph-name="greaterequal" unicode="&#x2265;" 
d="M70 96l490 269v-135l-490 -276v142zM560 494v-64l-490 -276v162l284 146l-284 144v162z" />
    <glyph glyph-name="lozenge" unicode="&#x25ca;" horiz-adv-x="498" 
d="M310 0h-123l-167 249l168 266h123l167 -255zM249 371l-78 -121l78 -115l78 125z" />
    <glyph glyph-name="spade" unicode="&#x2660;" horiz-adv-x="632" 
d="M316 510c59 -37 116 -87 172 -151s84 -117 84 -160c0 -56 -41 -104 -117 -104c-53 0 -96 24 -131 72c19 -79 54 -135 107 -167h-230c49 35 84 89 105 164c-34 -46 -77 -69 -129 -69c-77 0 -117 48 -117 105c0 42 28 95 84 159s113 114 172 151z" />
    <glyph glyph-name="club" unicode="&#x2663;" horiz-adv-x="612" 
d="M177 381c0 35 13 66 38 91s56 38 91 38s66 -13 91 -38s38 -56 38 -91c0 -5 -1 -11 -2 -19c33 -3 61 -16 84 -41s35 -54 35 -87c0 -35 -13 -66 -38 -91s-56 -38 -91 -38c-44 0 -79 18 -104 53c21 -77 55 -129 102 -158h-230c42 29 75 81 100 156c-27 -34 -61 -51 -102 -51
c-35 0 -66 13 -91 38s-38 56 -38 91c0 33 11 62 34 87s51 38 84 41c-1 4 -1 10 -1 19z" />
    <glyph glyph-name="heart" unicode="&#x2665;" horiz-adv-x="649" 
d="M325 0c-62 47 -122 107 -179 181c-57 75 -86 138 -86 189c0 71 41 130 121 130c59 0 107 -35 144 -104c36 69 84 104 143 104c79 0 121 -58 121 -129c0 -51 -29 -114 -86 -189c-57 -74 -116 -135 -178 -182z" />
    <glyph glyph-name="diamond" unicode="&#x2666;" horiz-adv-x="583" 
d="M523 249c-73 -73 -150 -162 -232 -268c-69 91 -146 180 -231 268c72 75 149 165 231 269c80 -102 157 -192 232 -269z" />
    <glyph glyph-name="uniF350" unicode="&#xf350;" horiz-adv-x="632" 
d="M161 0h-161l244 525h144l244 -525h-171l-33 75h-234zM362 225l-50 115l-51 -115h101z" />
    <glyph glyph-name="uniF351" unicode="&#xf351;" horiz-adv-x="557" 
d="M72 0v525h397v-150h-237v-35c10 3 36 4 78 4c123 0 199 -59 199 -167c0 -121 -78 -182 -233 -182c-33 0 -73 1 -121 3c-48 1 -76 2 -83 2zM290 195c-28 0 -47 -1 -58 -3v-44c21 -2 42 -3 61 -3c45 0 56 8 56 24c0 19 -14 26 -59 26z" />
    <glyph glyph-name="uniF352" unicode="&#xf352;" horiz-adv-x="555" 
d="M72 2v521c66 4 138 6 217 6c135 0 203 -54 203 -131c0 -57 -22 -97 -66 -120v-1c54 -13 81 -51 81 -112c0 -109 -93 -169 -230 -169c-102 0 -170 2 -205 6zM298 192h-66v-40c7 -4 26 -6 59 -6c37 0 56 8 56 23s-16 23 -49 23zM287 379c-19 0 -38 -1 -55 -4v-43h56
c29 0 44 8 44 23c0 16 -15 24 -45 24z" />
    <glyph glyph-name="uniF353" unicode="&#xf353;" horiz-adv-x="455" 
d="M232 0h-160v525h363v-150h-203v-375z" />
    <glyph glyph-name="uniF354" unicode="&#xf354;" horiz-adv-x="655" 
d="M157 -85h-150v235h64c15 17 32 51 49 102c18 51 29 107 32 168l5 105h403v-375h81v-235h-150v85h-334v-85zM312 375l-11 -67c-5 -33 -13 -65 -24 -96s-21 -51 -30 -62h153v225h-88z" />
    <glyph glyph-name="uniF355" unicode="&#xf355;" horiz-adv-x="508" 
d="M460 0h-388v525h379v-150h-219v-37h194v-150h-194v-38h228v-150z" />
    <glyph glyph-name="uniF356" unicode="&#xf356;" horiz-adv-x="853" 
d="M0 0l198 274l-189 251h194l144 -209v209h160v-209l144 209h193l-188 -248l197 -277h-193l-153 230v-230h-160v230l-153 -230h-194z" />
    <glyph glyph-name="uniF357" unicode="&#xf357;" horiz-adv-x="537" 
d="M261 -12c-120 0 -199 48 -239 103l87 109c44 -41 95 -62 154 -62c44 0 66 8 66 23c0 20 -28 30 -83 30h-79v150h76c42 0 63 6 63 19c0 15 -16 23 -49 23c-57 0 -98 -17 -124 -52l-92 109c40 55 122 93 223 93c58 0 106 -14 144 -41c39 -27 58 -64 58 -113
c0 -51 -20 -86 -60 -105v-3c55 -16 83 -58 83 -126c0 -96 -91 -157 -228 -157z" />
    <glyph glyph-name="uniF358" unicode="&#xf358;" horiz-adv-x="671" 
d="M439 270l-227 -270h-140v525h160v-270l227 270h140v-525h-160v270z" />
    <glyph glyph-name="uniF359" unicode="&#xf359;" horiz-adv-x="671" 
d="M439 270l-227 -270h-140v525h160v-270l227 270h140v-525h-160v270zM156 720h140c0 -27 14 -40 42 -40c25 0 38 13 38 40h140c0 -93 -66 -150 -178 -150c-121 0 -182 54 -182 150z" />
    <glyph glyph-name="uniF35A" unicode="&#xf35a;" horiz-adv-x="617" 
d="M232 0h-160v525h160v-211l159 211h207l-202 -239l221 -286h-217l-168 232v-232z" />
    <glyph glyph-name="uniF35B" unicode="&#xf35b;" horiz-adv-x="625" 
d="M553 0h-160v375h-102l-13 -99c-15 -116 -43 -195 -83 -236s-100 -54 -180 -40l3 154c51 -11 97 11 118 266l9 105h408v-525z" />
    <glyph glyph-name="uniF35C" unicode="&#xf35c;" horiz-adv-x="782" 
d="M232 0h-160v525h161l168 -187l158 187h151v-525h-160v281l-149 -165h-22l-147 162v-278z" />
    <glyph glyph-name="uniF35D" unicode="&#xf35d;" horiz-adv-x="659" 
d="M587 0h-160v193h-195v-193h-160v525h160v-182h195v182h160v-525z" />
    <glyph glyph-name="uniF35E" unicode="&#xf35e;" horiz-adv-x="664" 
d="M31 261c0 78 28 143 83 194c55 52 128 78 218 78c89 0 161 -24 217 -73s84 -115 84 -199c0 -81 -28 -146 -85 -197s-129 -76 -216 -76c-89 0 -162 24 -218 73c-55 49 -83 115 -83 200zM201 261c0 -35 13 -64 38 -88c25 -23 56 -35 93 -35c89 0 131 50 131 123
c0 75 -55 122 -131 122c-79 0 -131 -46 -131 -122z" />
    <glyph glyph-name="uniF35F" unicode="&#xf35f;" horiz-adv-x="659" 
d="M587 0h-160v375h-195v-375h-160v525h515v-525z" />
    <glyph glyph-name="uniF360" unicode="&#xf360;" horiz-adv-x="543" 
d="M232 132v-132h-160v525c9 0 39 0 90 1s85 1 102 1c175 0 248 -77 248 -197c0 -59 -20 -107 -61 -144s-94 -56 -161 -56c-27 0 -46 1 -58 2zM280 377c-8 0 -24 -1 -48 -2v-91c21 -3 39 -4 53 -4c38 0 57 17 57 50c0 35 -19 47 -62 47z" />
    <glyph glyph-name="uniF361" unicode="&#xf361;" horiz-adv-x="557" 
d="M472 170l61 -120c-35 -36 -115 -62 -196 -62c-93 0 -168 25 -223 74c-55 50 -83 116 -83 199c0 77 26 142 77 194c52 52 128 78 229 78c76 0 146 -25 183 -57l-71 -120l-22 8c-12 5 -21 9 -26 10c-11 4 -39 9 -64 9c-83 0 -136 -38 -136 -122c0 -73 58 -123 151 -123
c45 0 85 11 120 32z" />
    <glyph glyph-name="uniF362" unicode="&#xf362;" horiz-adv-x="513" 
d="M176 375h-167v150h495v-150h-168v-375h-160v375z" />
    <glyph glyph-name="uniF363" unicode="&#xf363;" horiz-adv-x="587" 
d="M419 525h164l-197 -393c-43 -88 -106 -132 -188 -132c-32 0 -61 9 -86 26l56 136c14 -8 27 -12 39 -12c13 0 22 4 28 12l8 12l-236 351h201l117 -193z" />
    <glyph glyph-name="uniF364" unicode="&#xf364;" horiz-adv-x="720" 
d="M439 -6h-160v52c-157 3 -257 85 -257 224c0 136 101 219 257 224v37h160v-37c156 -4 259 -83 259 -224c0 -137 -102 -221 -259 -224v-52zM528 270c0 33 -24 74 -89 78v-156c59 3 89 29 89 78zM192 270c0 -41 26 -75 87 -78v156c-61 -4 -87 -45 -87 -78z" />
    <glyph glyph-name="uniF365" unicode="&#xf365;" horiz-adv-x="577" 
d="M377 525h198l-183 -257l191 -268h-198l-98 146l-95 -146h-198l190 268l-181 257h198l91 -139z" />
    <glyph glyph-name="uniF366" unicode="&#xf366;" horiz-adv-x="668" 
d="M504 0h-432v525h160v-375h181v375h160v-375h81v-235h-150v85z" />
    <glyph glyph-name="uniF367" unicode="&#xf367;" horiz-adv-x="604" 
d="M372 525h160v-525h-160v181c-25 -16 -64 -24 -117 -24c-82 0 -194 36 -194 167v201h160v-141c0 -59 25 -77 68 -77c35 0 62 7 83 20v198z" />
    <glyph glyph-name="uniF368" unicode="&#xf368;" horiz-adv-x="852" 
d="M780 0h-708v525h160v-375h114v375h160v-375h114v375h160v-525z" />
    <glyph glyph-name="uniF369" unicode="&#xf369;" horiz-adv-x="875" 
d="M711 0h-639v525h160v-375h114v375h160v-375h114v375h160v-375h81v-235h-150v85z" />
    <glyph glyph-name="uniF36A" unicode="&#xf36a;" horiz-adv-x="578" 
d="M120 375h-110v150h270v-142c11 1 25 2 41 2c152 0 226 -69 226 -188s-94 -199 -259 -199c-24 0 -56 0 -95 1s-64 1 -73 1v375zM307 235c-2 0 -11 -1 -27 -2v-83c9 -1 21 -2 38 -2c39 0 59 15 59 45c0 28 -23 42 -70 42z" />
    <glyph glyph-name="uniF36B" unicode="&#xf36b;" horiz-adv-x="766" 
d="M694 0h-160v525h160v-525zM260 235c-11 0 -20 0 -28 -1v-84c8 -1 17 -2 28 -2c40 0 60 15 60 45c0 28 -20 42 -60 42zM72 525h160v-142c11 1 26 2 43 2c141 0 215 -71 215 -188s-92 -199 -249 -199c-24 0 -56 0 -96 1c-39 1 -64 1 -73 1v525z" />
    <glyph glyph-name="uniF36C" unicode="&#xf36c;" horiz-adv-x="530" 
d="M259 235c-4 0 -19 -1 -27 -1v-84c16 -1 25 -2 26 -2c47 0 71 15 71 45c0 28 -23 42 -70 42zM72 525h160v-142c11 1 25 2 41 2c151 0 226 -71 226 -188c0 -119 -95 -199 -260 -199c-24 0 -56 0 -95 1s-63 1 -72 1v525z" />
    <glyph glyph-name="uniF36D" unicode="&#xf36d;" horiz-adv-x="567" 
d="M362 193h-212v150h201c-24 28 -65 42 -122 42c-66 0 -117 -12 -154 -35l-61 120c58 43 132 65 222 65c86 0 157 -26 214 -77s86 -116 86 -197c0 -173 -123 -271 -323 -271c-42 0 -82 5 -120 16c-37 11 -64 24 -81 39l68 135c37 -27 89 -40 154 -40c67 0 109 18 128 53z
" />
    <glyph glyph-name="uniF36E" unicode="&#xf36e;" horiz-adv-x="884" 
d="M232 0h-160v525h160v-182h56c31 116 127 192 272 192c185 0 293 -100 293 -272c0 -82 -26 -148 -78 -198s-124 -75 -215 -75c-143 0 -248 75 -275 203h-53v-193zM448 263c0 -72 45 -123 117 -123c81 0 118 50 118 123c0 77 -43 122 -118 122c-71 0 -117 -46 -117 -122z
" />
    <glyph glyph-name="uniF36F" unicode="&#xf36f;" horiz-adv-x="584" 
d="M512 0h-160v140h-71l-88 -140h-189l123 179c-50 34 -75 82 -75 144c0 57 21 106 62 146c42 40 106 60 192 60c29 0 69 -1 119 -2s79 -2 87 -2v-525zM268 290h84v85c-7 3 -27 4 -61 4c-46 0 -69 -15 -69 -45c0 -23 15 -38 46 -44z" />
    <glyph glyph-name="uniF371" unicode="&#xf371;" horiz-adv-x="508" 
d="M98 637c0 45 35 75 82 75c39 0 74 -30 74 -75c0 -48 -35 -79 -74 -79c-47 0 -82 30 -82 79zM279 637c0 45 36 75 80 75c41 0 76 -30 76 -75c0 -48 -35 -79 -76 -79c-44 0 -80 30 -80 79zM460 0h-388v525h379v-150h-219v-37h194v-150h-194v-38h228v-150z" />
    <glyph glyph-name="uniF372" unicode="&#xf372;" horiz-adv-x="654" 
d="M623 162c0 -112 -58 -172 -161 -172c-52 0 -103 20 -120 43l51 122c15 -10 31 -15 47 -15c15 0 23 5 23 15c0 15 -17 22 -51 22c-24 0 -49 -6 -76 -17v-160h-160v375h-167v150h495v-150h-168v-60c29 8 64 12 106 12c107 0 181 -52 181 -165z" />
    <glyph glyph-name="uniF373" unicode="&#xf373;" horiz-adv-x="455" 
d="M232 0h-160v525h363v-150h-203v-375zM306 786l92 -115l-162 -110l-71 83z" />
    <glyph glyph-name="uniF374" unicode="&#xf374;" horiz-adv-x="567" 
d="M205 339h213v-150h-207c23 -33 68 -49 137 -49c61 0 111 13 150 40l57 -135c-17 -15 -44 -28 -83 -39c-38 -11 -78 -16 -120 -16c-99 0 -178 24 -235 72c-57 49 -86 116 -86 201c0 82 28 148 85 197c57 50 129 75 216 75c89 0 163 -22 221 -65l-71 -120
c-17 11 -40 20 -69 26c-28 6 -53 9 -76 9c-71 0 -115 -15 -132 -46z" />
    <glyph glyph-name="uniF375" unicode="&#xf375;" horiz-adv-x="516" 
d="M315 160c0 15 -43 26 -96 41c-77 20 -177 65 -176 170c0 95 70 162 231 162c34 0 73 -8 116 -24s75 -35 95 -57l-72 -119c-20 13 -45 25 -74 35s-53 15 -71 15c-37 0 -55 -7 -55 -20c0 -37 272 -22 272 -212c0 -48 -21 -87 -63 -118c-41 -30 -96 -45 -164 -45
c-44 0 -90 9 -137 27s-80 42 -101 71l91 109c15 -14 40 -27 73 -39s62 -18 86 -18c30 0 45 7 45 22z" />
    <glyph glyph-name="uniF376" unicode="&#xf376;" horiz-adv-x="314" 
d="M237 0h-160v525h160v-525z" />
    <glyph glyph-name="uniF377" unicode="&#xf377;" horiz-adv-x="347" 
d="M20 636c0 43 31 71 74 71c36 0 68 -28 68 -71c0 -45 -32 -75 -68 -75c-43 0 -74 28 -74 75zM185 636c0 43 33 71 74 71c37 0 68 -28 68 -71c0 -45 -31 -75 -68 -75c-41 0 -74 28 -74 75zM254 0h-160v525h160v-525z" />
    <glyph glyph-name="uniF378" unicode="&#xf378;" horiz-adv-x="357" 
d="M125 525h160v-390c0 -96 -62 -145 -167 -145c-53 0 -105 22 -121 43l52 122c15 -10 30 -15 46 -15c20 0 30 8 30 24v361z" />
    <glyph glyph-name="uniF379" unicode="&#xf379;" horiz-adv-x="841" 
d="M393 0v375h-98l-15 -99c-18 -117 -47 -195 -87 -236c-39 -40 -99 -53 -178 -40l3 160c31 -5 48 -2 69 30c23 32 38 107 49 230l9 105h408v-142c11 1 25 2 42 2c141 0 215 -71 215 -188c0 -119 -92 -199 -249 -199c-24 0 -56 0 -96 1c-39 1 -63 1 -72 1zM580 235
c-3 0 -12 -1 -27 -2v-82c11 -2 20 -3 27 -3c40 0 60 15 60 45c0 28 -20 42 -60 42z" />
    <glyph glyph-name="uniF37A" unicode="&#xf37a;" horiz-adv-x="868" 
d="M232 0h-160v525h160v-167h187v167h160v-160c11 1 25 2 42 2c140 0 216 -71 216 -178c0 -55 -22 -100 -66 -137c-44 -36 -105 -54 -183 -54c-24 0 -56 0 -96 1c-39 1 -64 1 -73 1v208h-187v-208zM579 215v-64c12 -2 21 -3 28 -3c39 0 60 15 60 36s-25 34 -60 34
c-7 0 -16 -1 -28 -3z" />
    <glyph glyph-name="uniF37B" unicode="&#xf37b;" horiz-adv-x="654" 
d="M176 375h-167v150h495v-150h-168v-74c29 11 62 16 101 16c83 0 186 -35 186 -167v-150h-160v101c0 52 -23 66 -60 66c-29 0 -51 -4 -67 -11v-156h-160v375z" />
    <glyph glyph-name="uniF37C" unicode="&#xf37c;" horiz-adv-x="617" 
d="M232 0h-160v525h160v-211l159 211h207l-202 -239l221 -286h-217l-168 232v-232zM346 786l92 -115l-162 -110l-71 83z" />
    <glyph glyph-name="uniF37E" unicode="&#xf37e;" horiz-adv-x="587" 
d="M419 525h164l-197 -393c-43 -88 -106 -132 -188 -132c-32 0 -61 9 -86 26l56 136c14 -8 27 -12 39 -12c13 0 22 4 28 12l8 12l-236 351h201l117 -193zM115 720h140c0 -27 14 -40 42 -40c25 0 38 13 38 40h140c0 -93 -66 -150 -178 -150c-121 0 -182 54 -182 150z" />
    <glyph glyph-name="uniF37F" unicode="&#xf37f;" horiz-adv-x="651" 
d="M250 0h-178v525h160v-375h187v375h160v-525h-179v-110h-150v110z" />
    <glyph glyph-name="uniF381" unicode="&#xf381;" horiz-adv-x="540" 
d="M82 364h-72v130h72v31h160v-31h115v-130h-115v-21c11 1 25 2 41 2c155 0 226 -53 226 -168s-91 -179 -260 -179c-24 0 -56 0 -95 1s-63 1 -72 1v364zM269 205c-4 0 -19 -1 -27 -1v-64c16 -1 25 -2 26 -2c47 0 71 12 71 35c0 21 -23 32 -70 32z" />
    <glyph glyph-name="uniF389" unicode="&#xf389;" horiz-adv-x="664" 
d="M31 261c0 78 28 143 83 194c55 52 128 78 218 78c89 0 161 -24 217 -73s84 -115 84 -199c0 -81 -28 -146 -85 -197s-129 -76 -216 -76c-89 0 -162 24 -218 73c-55 49 -83 115 -83 200zM261 227c-21 0 -37 -5 -50 -15c19 -44 66 -74 121 -74c29 0 52 4 69 13
c-24 2 -51 15 -80 39c-29 25 -49 37 -60 37zM422 291c12 0 24 3 35 10c-16 52 -64 82 -125 82c-26 0 -50 -5 -71 -16c69 3 122 -79 161 -76z" />
    <glyph glyph-name="uniF38A" unicode="&#xf38a;" horiz-adv-x="556" 
d="M482 340l-138 -338h-124l-233 523h181l120 -306l64 189c19 57 44 93 74 110c31 17 77 20 140 7v-130c-41 3 -65 -8 -84 -55z" />
    <glyph glyph-name="uniF393" unicode="&#xf393;" horiz-adv-x="465" 
d="M232 0h-160v525h223v75h150v-225h-213v-375z" />
    <glyph glyph-name="uniF3CF" unicode="&#xf3cf;" horiz-adv-x="1031" 
d="M582 525v-525h-129l-231 266v-266h-150v525h128l232 -267v267h150zM794 204c-55 0 -101 14 -136 41c-35 28 -52 65 -52 110c0 91 76 149 188 149s189 -58 189 -149s-77 -151 -189 -151zM746 355c0 -21 16 -31 48 -31c33 0 49 10 49 31c0 19 -16 29 -49 29
c-32 0 -48 -10 -48 -29zM947 37h-305v140h305v-140z" />
    <glyph glyph-name="uniF3D0" unicode="&#xf3d0;" horiz-adv-x="480" 
d="M60 720h140c0 -27 14 -40 42 -40c25 0 38 13 38 40h140c0 -93 -66 -150 -178 -150c-121 0 -182 54 -182 150z" />
    <glyph glyph-name="uniF400" unicode="&#xf400;" horiz-adv-x="0" 
d="M-240 738l117 -89l-131 -146l-89 63z" />
    <glyph glyph-name="uniF401" unicode="&#xf401;" horiz-adv-x="0" 
d="M-276 935l56 -129l-249 -78l-41 89z" />
    <glyph glyph-name="uniF406" unicode="&#xf406;" horiz-adv-x="522" 
d="M60 843l64 77c39 -40 86 -60 143 -60s104 20 140 60l55 -78c-37 -63 -115 -112 -195 -112c-44 0 -85 11 -123 34c-37 23 -65 49 -84 79z" />
    <glyph glyph-name="uniF407" unicode="&#xf407;" horiz-adv-x="424" 
d="M60 -157l48 74c17 -17 50 -37 74 -37c15 0 22 4 22 13c0 11 -8 17 -25 17h-6v90h75v-26c77 -6 116 -36 116 -90c0 -56 -54 -94 -145 -94c-67 0 -120 18 -159 53z" />
    <glyph glyph-name="uniF408" unicode="&#xf408;" horiz-adv-x="486" 
d="M112 723l-52 83l178 119h4l184 -117l-58 -85l-128 66z" />
    <glyph glyph-name="uniF409" unicode="&#xf409;" horiz-adv-x="311" 
d="M89 -50l149 29c9 -12 13 -28 13 -48c0 -37 -16 -68 -47 -93c-31 -26 -64 -41 -100 -46l-44 64c27 12 41 31 41 58c0 14 -4 26 -12 36z" />
    <glyph glyph-name="uniF40A" unicode="&#xf40a;" horiz-adv-x="303" 
d="M79 715l126 73c25 -27 38 -62 38 -105c0 -95 -54 -159 -113 -194l-70 63c29 27 43 59 43 98c0 27 -8 49 -24 65z" />
    <glyph glyph-name="uniF40B" unicode="&#xf40b;" horiz-adv-x="317" 
d="M60 845c0 55 45 90 101 90c52 0 96 -37 96 -90c0 -59 -44 -96 -96 -96c-57 0 -101 36 -101 96z" />
    <glyph glyph-name="uniF40C" unicode="&#xf40c;" horiz-adv-x="435" 
d="M60 809c0 79 64 118 155 118c95 0 160 -39 160 -118c0 -77 -67 -121 -160 -121c-89 0 -155 44 -155 121zM170 809c0 -27 16 -41 47 -41c32 0 48 14 48 41c0 25 -16 38 -48 38c-31 0 -47 -13 -47 -38z" />
    <glyph glyph-name="uniF40D" unicode="&#xf40d;" horiz-adv-x="496" 
d="M106 746l-46 94c31 37 81 63 125 63c21 0 44 -5 70 -15s48 -15 65 -15c33 0 59 10 78 30l38 -94c-27 -44 -69 -66 -126 -66c-16 0 -38 5 -67 15c-28 10 -52 15 -71 15c-22 0 -44 -9 -66 -27z" />
    <glyph glyph-name="uniF40E" unicode="&#xf40e;" horiz-adv-x="385" 
d="M280 -70l45 -90c-17 -21 -68 -40 -120 -40c-84 0 -145 32 -145 95c0 29 13 54 40 75c53 40 129 54 209 53v-23c-55 0 -99 -29 -99 -54c0 -17 10 -26 30 -26c13 0 26 3 40 10z" />
    <glyph glyph-name="uniF410" unicode="&#xf410;" horiz-adv-x="0" 
d="M-243 817l-41 -89l-249 78l56 129z" />
    <glyph glyph-name="uniF416" unicode="&#xf416;" horiz-adv-x="311" 
d="M89 -50l149 29c9 -12 13 -28 13 -48c0 -37 -16 -68 -47 -93c-31 -26 -64 -41 -100 -46l-44 64c27 12 41 31 41 58c0 14 -4 26 -12 36z" />
    <glyph glyph-name="uniF418" unicode="&#xf418;" horiz-adv-x="303" 
d="M79 515l126 73c25 -27 38 -62 38 -105c0 -95 -54 -159 -113 -194l-70 63c29 27 43 59 43 98c0 27 -8 49 -24 65z" />
    <glyph glyph-name="uniF447" unicode="&#xf447;" horiz-adv-x="513" 
d="M114 -161l44 69c19 -19 41 -28 68 -28c15 0 22 4 22 13c0 11 -8 17 -25 17h-6v90h-41v375h-167v150h495v-150h-168v-375h-44v-26c71 -6 106 -36 106 -90c0 -57 -52 -94 -151 -94c-53 0 -97 16 -133 49z" />
    <glyph glyph-name="uniF44E" unicode="&#xf44e;" horiz-adv-x="626" 
d="M66 341h383c-19 28 -60 42 -123 42c-29 0 -52 -3 -69 -8c-16 -5 -34 -14 -55 -27l-61 120c17 13 33 23 46 30c27 16 87 35 155 35c85 0 153 -25 204 -76c51 -50 77 -116 77 -198c0 -85 -27 -152 -81 -200c-54 -47 -124 -71 -210 -71c-95 0 -167 31 -218 92
c-51 62 -67 149 -48 261zM330 138c77 0 110 14 125 53h-223c0 -27 41 -53 98 -53z" />
    <glyph glyph-name="uniF639" unicode="&#xf639;" 
d="M58 350c0 112 20 200 61 263s102 95 181 95s139 -32 180 -95s62 -151 62 -263c0 -224 -81 -358 -240 -358c-160 0 -244 135 -244 358zM218 350c0 -145 28 -218 84 -218c57 0 80 57 80 218s-23 218 -82 218c-57 0 -82 -61 -82 -218z" />
    <glyph glyph-name="uniF63A" unicode="&#xf63a;" 
d="M530 0h-452v120c6 5 22 21 49 47c27 27 46 45 55 55s25 27 48 50c23 24 39 43 48 57l33 51c27 41 35 74 35 109c0 46 -21 69 -64 69c-40 0 -60 -27 -77 -75l-125 57c23 103 100 168 220 168c65 0 115 -18 151 -55c37 -37 55 -81 55 -134c0 -133 -78 -259 -234 -379h258
v-140z" />
    <glyph glyph-name="uniF63B" unicode="&#xf63b;" 
d="M295 -12c-111 0 -191 48 -231 116l83 111c45 -51 91 -77 138 -77c57 0 88 29 88 68c0 51 -40 77 -119 77h-44v150h40c56 0 96 25 96 70c0 33 -20 59 -64 59c-47 0 -87 -21 -121 -63l-82 108c43 70 116 105 217 105c62 0 112 -16 151 -49c39 -32 59 -75 59 -130
c0 -81 -33 -132 -104 -164v-3c84 -16 131 -81 131 -166c0 -65 -23 -116 -68 -155c-45 -38 -101 -57 -170 -57z" />
    <glyph glyph-name="uniF63C" unicode="&#xf63c;" 
d="M488 0h-150v150h-318v112l250 438h172l-229 -400h125v150h150v-150h82v-150h-82v-150z" />
    <glyph glyph-name="uniF63D" unicode="&#xf63d;" 
d="M117 308l48 392h346v-150h-214l-14 -89h24c63 0 115 -21 156 -62c42 -41 63 -97 63 -166c0 -76 -24 -136 -72 -180c-48 -43 -109 -65 -183 -65c-39 0 -78 8 -118 25c-39 17 -69 40 -89 69l84 115c28 -33 82 -59 127 -59c53 0 91 36 91 88c0 59 -48 100 -129 100
c-55 0 -95 -6 -120 -18z" />
    <glyph glyph-name="uniF63E" unicode="&#xf63e;" 
d="M40 248c0 123 48 238 117 314c71 76 152 129 231 150l61 -113c-105 -36 -191 -108 -231 -201c27 25 68 38 123 38c52 0 97 -20 135 -60c39 -40 58 -91 58 -153c0 -73 -24 -131 -71 -173c-47 -41 -102 -62 -165 -62c-77 0 -139 25 -187 75c-47 50 -71 112 -71 185z
M200 247c0 -67 36 -109 99 -109c49 0 75 34 75 74c0 49 -30 84 -85 84c-37 0 -66 -16 -89 -49z" />
    <glyph glyph-name="uniF63F" unicode="&#xf63f;" 
d="M361 550h-281v150h460v-102l-237 -598h-164z" />
    <glyph glyph-name="uniF640" unicode="&#xf640;" 
d="M295 435h13c44 0 68 30 68 65c0 41 -26 62 -77 62c-49 0 -74 -26 -74 -62c0 -35 25 -65 70 -65zM308 285h-12c-48 0 -88 -27 -88 -74c0 -43 29 -73 92 -73s94 24 93 73c-1 48 -34 74 -85 74zM301 -12c-74 0 -135 17 -182 52s-71 82 -71 141c0 88 44 150 107 177v3
c-52 28 -90 85 -90 166c0 54 22 98 67 133s101 52 168 52s123 -17 168 -52s68 -79 68 -133c0 -69 -39 -134 -100 -165v-3c65 -17 117 -78 117 -165c0 -65 -23 -115 -70 -152c-47 -36 -107 -54 -182 -54z" />
    <glyph glyph-name="uniF641" unicode="&#xf641;" 
d="M555 442c0 -131 -35 -237 -104 -317s-157 -126 -264 -137l-49 119c126 27 206 89 239 185c-27 -25 -64 -38 -109 -38c-58 0 -108 21 -150 62c-41 41 -62 93 -62 156c0 73 24 132 73 175s105 65 168 65c78 0 140 -25 187 -74s71 -115 71 -196zM395 443
c0 68 -38 119 -99 119c-49 0 -80 -39 -80 -79c0 -49 35 -89 90 -89c37 0 66 16 89 49z" />
    <glyph glyph-name="uniF643" unicode="&#xf643;" 
d="M102 65c-48 52 -72 114 -72 185s24 133 72 184c49 52 115 78 198 78s149 -26 197 -78c49 -51 73 -113 73 -184s-24 -133 -73 -185c-48 -51 -114 -77 -197 -77s-149 26 -198 77zM190 250c0 -65 43 -112 110 -112c72 0 110 45 110 112c0 71 -42 112 -110 112
c-67 0 -110 -43 -110 -112z" />
    <glyph glyph-name="uniF644" unicode="&#xf644;" 
d="M153 288l-48 136l178 84h105v-508h-160v319z" />
    <glyph glyph-name="uniF645" unicode="&#xf645;" 
d="M530 0h-452v110c63 27 103 45 163 80c60 36 95 76 95 113c0 36 -18 60 -51 60c-41 0 -67 -19 -96 -62l-95 98c35 65 114 114 201 114c133 0 201 -73 201 -174c0 -43 -14 -81 -41 -115s-56 -59 -88 -74h163v-150z" />
    <glyph glyph-name="uniF646" unicode="&#xf646;" 
d="M295 -212c-111 0 -191 48 -231 116l83 111c45 -51 91 -77 138 -77c57 0 88 29 88 68c0 51 -40 77 -119 77h-44v150h40c56 0 96 25 96 70c0 33 -20 59 -64 59c-47 0 -87 -21 -121 -63l-82 108c43 70 116 105 217 105c62 0 112 -16 151 -49c39 -32 59 -75 59 -130
c0 -81 -33 -132 -104 -164v-3c84 -16 131 -81 131 -166c0 -65 -23 -116 -68 -154c-45 -39 -101 -58 -170 -58z" />
    <glyph glyph-name="uniF647" unicode="&#xf647;" 
d="M488 -200h-150v200h-318v112l224 388h172l-203 -350h125v150h150v-150h82v-150h-82v-200z" />
    <glyph glyph-name="uniF648" unicode="&#xf648;" 
d="M117 108l48 392h346v-150h-214l-14 -89h24c63 0 115 -21 156 -62c42 -41 63 -97 63 -166c0 -76 -24 -136 -72 -179c-48 -44 -109 -66 -183 -66c-39 0 -78 9 -118 26c-39 17 -69 39 -89 68l84 115c28 -33 82 -59 127 -59c53 0 91 36 91 88c0 59 -48 100 -129 100
c-55 0 -95 -6 -120 -18z" />
    <glyph glyph-name="uniF649" unicode="&#xf649;" 
d="M40 248c0 123 48 238 117 314c71 76 152 129 231 150l61 -113c-105 -36 -191 -108 -231 -201c27 25 68 38 123 38c52 0 97 -20 135 -60c39 -40 58 -91 58 -153c0 -73 -24 -131 -71 -173c-47 -41 -102 -62 -165 -62c-77 0 -139 25 -187 75c-47 50 -71 112 -71 185z
M200 247c0 -67 36 -109 99 -109c49 0 75 34 75 74c0 49 -30 84 -85 84c-37 0 -66 -16 -89 -49z" />
    <glyph glyph-name="uniF64A" unicode="&#xf64a;" 
d="M361 350h-281v150h460v-102l-237 -598h-164z" />
    <glyph glyph-name="uniF64B" unicode="&#xf64b;" 
d="M295 435h13c44 0 68 30 68 65c0 41 -26 62 -77 62c-49 0 -74 -26 -74 -62c0 -35 25 -65 70 -65zM308 285h-12c-48 0 -88 -27 -88 -74c0 -43 29 -73 92 -73s94 24 93 73c-1 48 -34 74 -85 74zM301 -12c-74 0 -135 17 -182 52s-71 82 -71 141c0 88 44 150 107 177v3
c-52 28 -90 85 -90 166c0 54 22 98 67 133s101 52 168 52s123 -17 168 -52s68 -79 68 -133c0 -69 -39 -134 -100 -165v-3c65 -17 117 -78 117 -165c0 -65 -23 -115 -70 -152c-47 -36 -107 -54 -182 -54z" />
    <glyph glyph-name="uniF64C" unicode="&#xf64c;" 
d="M555 242c0 -131 -35 -237 -104 -317s-157 -126 -264 -137l-49 119c126 27 206 89 239 185c-27 -25 -64 -38 -109 -38c-58 0 -108 21 -150 62c-41 41 -62 93 -62 156c0 73 24 132 73 175s105 65 168 65c78 0 140 -25 187 -74s71 -115 71 -196zM395 243
c0 68 -38 119 -99 119c-49 0 -80 -39 -80 -79c0 -49 35 -89 90 -89c37 0 66 16 89 49z" />
    <glyph glyph-name="uniF66D" unicode="&#xf66d;" horiz-adv-x="632" 
d="M161 0h-161l244 525h144l244 -525h-171l-33 75h-234zM362 225l-50 115l-51 -115h101zM150 657l66 75c31 -35 66 -52 105 -52c45 0 82 17 110 50l51 -72c-43 -65 -99 -98 -167 -98c-41 0 -75 10 -103 31s-49 43 -62 66z" />
    <glyph glyph-name="uniF66E" unicode="&#xf66e;" horiz-adv-x="632" 
d="M161 0h-161l244 525h144l244 -525h-171l-33 75h-234zM362 225l-50 115l-51 -115h101zM463 570h-294v120h294v-120z" />
    <glyph glyph-name="uniF66F" unicode="&#xf66f;" horiz-adv-x="632" 
d="M579 -70l45 -90c-17 -21 -68 -40 -120 -40c-84 0 -145 32 -145 95c0 49 34 84 101 106l-32 74h-234l-33 -75h-161l244 525h144l244 -525h-33c-51 -3 -90 -30 -90 -54c0 -17 10 -26 30 -26c13 0 26 3 40 10zM362 225l-50 115l-51 -115h101z" />
    <glyph glyph-name="uniF671" unicode="&#xf671;" horiz-adv-x="557" 
d="M472 170l61 -120c-35 -36 -115 -62 -196 -62c-93 0 -168 25 -223 74c-55 50 -83 116 -83 199c0 77 26 142 77 194c52 52 128 78 229 78c76 0 146 -25 183 -57l-71 -120l-22 8c-12 5 -21 9 -26 10c-11 4 -39 9 -64 9c-83 0 -136 -38 -136 -122c0 -73 58 -123 151 -123
c45 0 85 11 120 32zM366 786l92 -115l-162 -110l-71 83z" />
    <glyph glyph-name="uniF672" unicode="&#xf672;" horiz-adv-x="557" 
d="M472 170l61 -120c-35 -36 -115 -62 -196 -62c-93 0 -168 25 -223 74c-55 50 -83 116 -83 199c0 77 26 142 77 194c52 52 128 78 229 78c76 0 146 -25 183 -57l-71 -120l-22 8c-12 5 -21 9 -26 10c-11 4 -39 9 -64 9c-83 0 -136 -38 -136 -122c0 -73 58 -123 151 -123
c45 0 85 11 120 32zM318 548h-4l-165 126l70 88l98 -71l100 69l67 -87z" />
    <glyph glyph-name="uniF673" unicode="&#xf673;" horiz-adv-x="557" 
d="M472 170l61 -120c-35 -36 -115 -62 -196 -62c-93 0 -168 25 -223 74c-55 50 -83 116 -83 199c0 77 26 142 77 194c52 52 128 78 229 78c76 0 146 -25 183 -57l-71 -120l-22 8c-12 5 -21 9 -26 10c-11 4 -39 9 -64 9c-83 0 -136 -38 -136 -122c0 -73 58 -123 151 -123
c45 0 85 11 120 32zM318 756h4l165 -126l-70 -88l-98 71l-100 -69l-67 87z" />
    <glyph glyph-name="uniF674" unicode="&#xf674;" horiz-adv-x="557" 
d="M472 170l61 -120c-35 -36 -115 -62 -196 -62c-93 0 -168 25 -223 74c-55 50 -83 116 -83 199c0 77 26 142 77 194c52 52 128 78 229 78c76 0 146 -25 183 -57l-71 -120l-22 8c-12 5 -21 9 -26 10c-11 4 -39 9 -64 9c-83 0 -136 -38 -136 -122c0 -73 58 -123 151 -123
c45 0 85 11 120 32zM223 655c0 52 40 85 91 85c45 0 85 -34 85 -85c0 -56 -40 -91 -85 -91c-52 0 -91 34 -91 91z" />
    <glyph glyph-name="uniF675" unicode="&#xf675;" horiz-adv-x="634" 
d="M88 0h-16v525h13c9 0 38 0 89 1s83 1 95 1c228 0 334 -99 334 -262c0 -81 -29 -145 -88 -194c-58 -49 -142 -73 -252 -73c-7 0 -33 0 -76 1s-76 1 -99 1zM268 377c-19 0 -31 -1 -36 -2v-225c7 -1 19 -2 36 -2c110 0 165 39 165 117c0 75 -55 112 -165 112zM288 548h-4
l-165 126l70 88l98 -71l100 69l67 -87z" />
    <glyph glyph-name="uniF676" unicode="&#xf676;" horiz-adv-x="630" 
d="M67 194h-58v140h58v191h13c7 0 37 0 92 1s93 1 114 1c103 0 181 -25 234 -74s79 -112 79 -188c0 -75 -28 -139 -84 -190c-55 -51 -130 -77 -225 -77c-20 0 -55 0 -104 1s-83 1 -102 1h-17v194zM291 377c-32 0 -53 -1 -64 -4v-39h132v-140h-132v-44c13 -1 30 -2 50 -2
c101 0 152 39 152 117c0 79 -57 112 -138 112z" />
    <glyph glyph-name="uniF678" unicode="&#xf678;" horiz-adv-x="508" 
d="M460 0h-388v525h379v-150h-219v-37h194v-150h-194v-38h228v-150zM268 548h-4l-165 126l70 88l98 -71l100 69l67 -87z" />
    <glyph glyph-name="uniF679" unicode="&#xf679;" horiz-adv-x="508" 
d="M173 655c0 52 40 85 91 85c45 0 85 -34 85 -85c0 -56 -40 -91 -85 -91c-52 0 -91 34 -91 91zM460 0h-388v525h379v-150h-219v-37h194v-150h-194v-38h228v-150z" />
    <glyph glyph-name="uniF67A" unicode="&#xf67a;" horiz-adv-x="508" 
d="M460 0h-388v525h379v-150h-219v-37h194v-150h-194v-38h228v-150zM406 570h-294v120h294v-120z" />
    <glyph glyph-name="uniF67C" unicode="&#xf67c;" horiz-adv-x="508" 
d="M308 0h-236v525h379v-150h-219v-37h194v-150h-194v-38h228v-150h-9c-51 -3 -90 -30 -90 -54c0 -17 10 -26 30 -26c13 0 26 3 40 10l45 -90c-17 -21 -68 -40 -120 -40c-84 0 -145 32 -145 95c0 47 32 82 97 105z" />
    <glyph glyph-name="uniF67D" unicode="&#xf67d;" horiz-adv-x="618" 
d="M429 180h-114v140h264v-257c-26 -23 -60 -41 -103 -55c-42 -13 -82 -20 -120 -20c-103 0 -183 25 -240 74s-85 116 -85 199c0 77 28 142 83 194s129 78 222 78c75 0 141 -19 198 -57l-67 -125c-37 21 -74 32 -112 32c-103 0 -154 -41 -154 -122c0 -76 61 -123 157 -123
c27 0 50 4 71 12v30zM159 657l66 75c31 -35 66 -52 105 -52c45 0 82 17 110 50l51 -72c-43 -65 -99 -98 -167 -98c-41 0 -75 10 -103 31s-49 43 -62 66z" />
    <glyph glyph-name="uniF67E" unicode="&#xf67e;" horiz-adv-x="618" 
d="M429 180h-114v140h264v-257c-26 -23 -60 -41 -103 -55c-42 -13 -82 -20 -120 -20c-103 0 -183 25 -240 74s-85 116 -85 199c0 77 28 142 83 194s129 78 222 78c75 0 141 -19 198 -57l-67 -125c-37 21 -74 32 -112 32c-103 0 -154 -41 -154 -122c0 -76 61 -123 157 -123
c27 0 50 4 71 12v30zM328 756h4l165 -126l-70 -88l-98 71l-100 -69l-67 87z" />
    <glyph glyph-name="uniF67F" unicode="&#xf67f;" horiz-adv-x="618" 
d="M429 180h-114v140h264v-257c-26 -23 -60 -41 -103 -55c-42 -13 -82 -20 -120 -20c-103 0 -183 25 -240 74s-85 116 -85 199c0 77 28 142 83 194s129 78 222 78c75 0 141 -19 198 -57l-67 -125c-37 21 -74 32 -112 32c-103 0 -154 -41 -154 -122c0 -76 61 -123 157 -123
c27 0 50 4 71 12v30zM256 -50l149 29c9 -12 13 -28 13 -48c0 -37 -16 -68 -47 -93c-31 -26 -64 -41 -100 -46l-44 64c27 12 41 31 41 58c0 14 -4 26 -12 36z" />
    <glyph glyph-name="uniF680" unicode="&#xf680;" horiz-adv-x="618" 
d="M429 180h-114v140h264v-257c-26 -23 -60 -41 -103 -55c-42 -13 -82 -20 -120 -20c-103 0 -183 25 -240 74s-85 116 -85 199c0 77 28 142 83 194s129 78 222 78c75 0 141 -19 198 -57l-67 -125c-37 21 -74 32 -112 32c-103 0 -154 -41 -154 -122c0 -76 61 -123 157 -123
c27 0 50 4 71 12v30zM243 655c0 52 40 85 91 85c45 0 85 -34 85 -85c0 -56 -40 -91 -85 -91c-52 0 -91 34 -91 91z" />
    <glyph glyph-name="uniF681" unicode="&#xf681;" horiz-adv-x="659" 
d="M72 363h-42v140h42v22h160v-22h195v22h160v-22h42v-140h-42v-363h-160v193h-195v-193h-160v363zM232 363v-20h195v20h-195z" />
    <glyph glyph-name="uniF682" unicode="&#xf682;" horiz-adv-x="659" 
d="M587 0h-160v193h-195v-193h-160v525h160v-182h195v182h160v-525zM328 756h4l165 -126l-70 -88l-98 71l-100 -69l-67 87z" />
    <glyph glyph-name="uniF685" unicode="&#xf685;" horiz-adv-x="314" 
d="M304 570h-294v120h294v-120zM237 0h-160v525h160v-525z" />
    <glyph glyph-name="uniF686" unicode="&#xf686;" horiz-adv-x="314" 
d="M197 -70l45 -90c-17 -21 -68 -40 -120 -40c-84 0 -145 32 -145 95c0 47 33 83 100 106v524h160v-525h-20c-51 -3 -90 -30 -90 -54c0 -17 10 -26 30 -26c13 0 26 3 40 10z" />
    <glyph glyph-name="uniF688" unicode="&#xf688;" horiz-adv-x="357" 
d="M125 525h160v-390c0 -96 -62 -145 -167 -145c-53 0 -105 22 -121 43l52 122c15 -10 30 -15 46 -15c20 0 30 8 30 24v361zM198 756h4l165 -126l-70 -88l-98 71l-100 -69l-67 87z" />
    <glyph glyph-name="uniF689" unicode="&#xf689;" horiz-adv-x="617" 
d="M232 0h-160v525h160v-211l159 211h207l-202 -239l221 -286h-217l-168 232v-232zM206 -50l149 29c9 -12 13 -28 13 -48c0 -37 -16 -68 -47 -93c-31 -26 -64 -41 -100 -46l-44 64c27 12 41 31 41 58c0 14 -4 26 -12 36z" />
    <glyph glyph-name="uniF68A" unicode="&#xf68a;" horiz-adv-x="475" 
d="M455 0h-383v525h160v-365h223v-160zM286 786l92 -115l-162 -110l-71 83z" />
    <glyph glyph-name="uniF68B" unicode="&#xf68b;" horiz-adv-x="475" 
d="M296 525h146c3 -9 5 -19 5 -32c0 -87 -38 -152 -113 -194l-70 63c29 33 43 70 43 113c0 17 -4 33 -11 50zM455 0h-383v525h160v-365h223v-160z" />
    <glyph glyph-name="uniF68C" unicode="&#xf68c;" horiz-adv-x="475" 
d="M196 -50l149 29c9 -12 13 -28 13 -48c0 -37 -16 -68 -47 -93c-31 -26 -64 -41 -100 -46l-44 64c27 12 41 31 41 58c0 14 -4 26 -12 36zM455 0h-383v525h160v-365h223v-160z" />
    <glyph glyph-name="uniF68D" unicode="&#xf68d;" horiz-adv-x="475" 
d="M291 316c0 48 41 94 102 94c53 0 94 -46 94 -94c0 -55 -39 -102 -94 -102c-61 0 -102 46 -102 102zM455 0h-383v525h160v-365h223v-160z" />
    <glyph glyph-name="uniF68E" unicode="&#xf68e;" horiz-adv-x="671" 
d="M599 525v-525h-129l-248 266v-266h-150v525h128l249 -267v267h150zM396 786l92 -115l-162 -110l-71 83z" />
    <glyph glyph-name="uniF68F" unicode="&#xf68f;" horiz-adv-x="671" 
d="M599 525v-525h-129l-248 266v-266h-150v525h128l249 -267v267h150zM337 548h-4l-165 126l70 88l98 -71l100 69l67 -87z" />
    <glyph glyph-name="uniF690" unicode="&#xf690;" horiz-adv-x="671" 
d="M599 525v-525h-129l-248 266v-266h-150v525h128l249 -267v267h150zM256 -50l149 29c9 -12 13 -28 13 -48c0 -37 -16 -68 -47 -93c-31 -26 -64 -41 -100 -46l-44 64c27 12 41 31 41 58c0 14 -4 26 -12 36z" />
    <glyph glyph-name="uniF692" unicode="&#xf692;" horiz-adv-x="664" 
d="M31 261c0 78 28 143 83 194c55 52 128 78 218 78c89 0 161 -24 217 -73s84 -115 84 -199c0 -81 -28 -146 -85 -197s-129 -76 -216 -76c-89 0 -162 24 -218 73c-55 49 -83 115 -83 200zM201 261c0 -35 13 -64 38 -88c25 -23 56 -35 93 -35c89 0 131 50 131 123
c0 75 -55 122 -131 122c-79 0 -131 -46 -131 -122zM462 776l111 -84l-174 -127l-66 54zM271 790l108 -80l-129 -145l-76 51z" />
    <glyph glyph-name="uniF693" unicode="&#xf693;" horiz-adv-x="664" 
d="M31 261c0 78 28 143 83 194c55 52 128 78 218 78c89 0 161 -24 217 -73s84 -115 84 -199c0 -81 -28 -146 -85 -197s-129 -76 -216 -76c-89 0 -162 24 -218 73c-55 49 -83 115 -83 200zM201 261c0 -35 13 -64 38 -88c25 -23 56 -35 93 -35c89 0 131 50 131 123
c0 75 -55 122 -131 122c-79 0 -131 -46 -131 -122zM479 570h-294v120h294v-120z" />
    <glyph glyph-name="uniF695" unicode="&#xf695;" horiz-adv-x="578" 
d="M232 145v-145h-160v525c8 0 37 0 86 1s87 1 114 1c161 0 242 -62 242 -187c0 -41 -12 -78 -21 -98c-4 -9 -11 -19 -21 -29c-9 -10 -15 -16 -18 -18l-16 -11l130 -184h-203l-90 145h-43zM282 377c-20 0 -37 -1 -50 -2v-80h46c44 0 66 14 66 43c0 17 -17 39 -62 39z
M336 786l92 -115l-162 -110l-71 83z" />
    <glyph glyph-name="uniF696" unicode="&#xf696;" horiz-adv-x="578" 
d="M232 145v-145h-160v525c8 0 37 0 86 1s87 1 114 1c161 0 242 -62 242 -187c0 -41 -12 -78 -21 -98c-4 -9 -11 -19 -21 -29c-9 -10 -15 -16 -18 -18l-16 -11l130 -184h-203l-90 145h-43zM282 377c-20 0 -37 -1 -50 -2v-80h46c44 0 66 14 66 43c0 17 -17 39 -62 39z
M278 548h-4l-165 126l70 88l98 -71l100 69l67 -87z" />
    <glyph glyph-name="uniF697" unicode="&#xf697;" horiz-adv-x="578" 
d="M232 145v-145h-160v525c8 0 37 0 86 1s87 1 114 1c161 0 242 -62 242 -187c0 -41 -12 -78 -21 -98c-4 -9 -11 -19 -21 -29c-9 -10 -15 -16 -18 -18l-16 -11l130 -184h-203l-90 145h-43zM282 377c-20 0 -37 -1 -50 -2v-80h46c44 0 66 14 66 43c0 17 -17 39 -62 39z
M196 -50l149 29c9 -12 13 -28 13 -48c0 -37 -16 -68 -47 -93c-31 -26 -64 -41 -100 -46l-44 64c27 12 41 31 41 58c0 14 -4 26 -12 36z" />
    <glyph glyph-name="uniF698" unicode="&#xf698;" horiz-adv-x="516" 
d="M315 160c0 15 -43 26 -96 41c-77 20 -177 65 -176 170c0 95 70 162 231 162c34 0 73 -8 116 -24s75 -35 95 -57l-72 -119c-20 13 -45 25 -74 35s-53 15 -71 15c-37 0 -55 -7 -55 -20c0 -37 272 -22 272 -212c0 -48 -21 -87 -63 -118c-41 -30 -96 -45 -164 -45
c-44 0 -90 9 -137 27s-80 42 -101 71l91 109c15 -14 40 -27 73 -39s62 -18 86 -18c30 0 45 7 45 22zM326 786l92 -115l-162 -110l-71 83z" />
    <glyph glyph-name="uniF699" unicode="&#xf699;" horiz-adv-x="516" 
d="M114 -161l44 69c19 -19 41 -28 68 -28c15 0 22 4 22 13c0 11 -8 17 -25 17h-6v81c-81 9 -162 46 -197 95l91 109c15 -14 40 -27 73 -39s62 -18 86 -18c30 0 45 7 45 22s-43 26 -96 41c-77 20 -177 65 -176 170c0 95 70 162 231 162c34 0 73 -8 116 -24s75 -35 95 -57
l-72 -119c-20 13 -45 25 -74 35s-53 15 -71 15c-37 0 -55 -7 -55 -20c0 -37 272 -22 272 -212c0 -88 -76 -150 -193 -161v-16c71 -6 106 -36 106 -90c0 -57 -52 -94 -151 -94c-53 0 -97 16 -133 49z" />
    <glyph glyph-name="uniF69A" unicode="&#xf69a;" horiz-adv-x="516" 
d="M315 160c0 15 -43 26 -96 41c-77 20 -177 65 -176 170c0 95 70 162 231 162c34 0 73 -8 116 -24s75 -35 95 -57l-72 -119c-20 13 -45 25 -74 35s-53 15 -71 15c-37 0 -55 -7 -55 -20c0 -37 272 -22 272 -212c0 -48 -21 -87 -63 -118c-41 -30 -96 -45 -164 -45
c-44 0 -90 9 -137 27s-80 42 -101 71l91 109c15 -14 40 -27 73 -39s62 -18 86 -18c30 0 45 7 45 22zM258 756h4l165 -126l-70 -88l-98 71l-100 -69l-67 87z" />
    <glyph glyph-name="uniF69B" unicode="&#xf69b;" horiz-adv-x="516" 
d="M315 160c0 15 -43 26 -96 41c-77 20 -177 65 -176 170c0 95 70 162 231 162c34 0 73 -8 116 -24s75 -35 95 -57l-72 -119c-20 13 -45 25 -74 35s-53 15 -71 15c-37 0 -55 -7 -55 -20c0 -37 272 -22 272 -212c0 -48 -21 -87 -63 -118c-41 -30 -96 -45 -164 -45
c-44 0 -90 9 -137 27s-80 42 -101 71l91 109c15 -14 40 -27 73 -39s62 -18 86 -18c30 0 45 7 45 22zM186 -50l149 29c9 -12 13 -28 13 -48c0 -37 -16 -68 -47 -93c-31 -26 -64 -41 -100 -46l-44 64c27 12 41 31 41 58c0 14 -4 26 -12 36z" />
    <glyph glyph-name="uniF69D" unicode="&#xf69d;" horiz-adv-x="513" 
d="M176 375h-167v150h495v-150h-168v-375h-160v375zM258 548h-4l-165 126l70 88l98 -71l100 69l67 -87z" />
    <glyph glyph-name="uniF69E" unicode="&#xf69e;" horiz-adv-x="513" 
d="M176 375h-167v150h495v-150h-168v-375h-160v375zM176 -50l149 29c9 -12 13 -28 13 -48c0 -37 -16 -68 -47 -93c-31 -26 -64 -41 -100 -46l-44 64c27 12 41 31 41 58c0 14 -4 26 -12 36z" />
    <glyph glyph-name="uniF69F" unicode="&#xf69f;" horiz-adv-x="638" 
d="M415 525h160v-310c0 -75 -24 -132 -71 -170c-47 -37 -106 -56 -177 -56c-161 0 -264 82 -264 231v305h160v-270c0 -58 15 -116 104 -116c71 0 88 39 88 108v278zM153 657l66 75c31 -35 66 -52 105 -52c45 0 82 17 110 50l51 -72c-43 -65 -99 -98 -167 -98
c-41 0 -75 10 -103 31s-49 43 -62 66z" />
    <glyph glyph-name="uniF6A0" unicode="&#xf6a0;" horiz-adv-x="638" 
d="M415 525h160v-310c0 -75 -24 -132 -71 -170c-47 -37 -106 -56 -177 -56c-161 0 -264 82 -264 231v305h160v-270c0 -58 15 -116 104 -116c71 0 88 39 88 108v278zM452 776l111 -84l-174 -127l-66 54zM261 790l108 -80l-129 -145l-76 51z" />
    <glyph glyph-name="uniF6A1" unicode="&#xf6a1;" horiz-adv-x="638" 
d="M415 525h160v-310c0 -75 -24 -132 -71 -170c-47 -37 -106 -56 -177 -56c-161 0 -264 82 -264 231v305h160v-270c0 -58 15 -116 104 -116c71 0 88 39 88 108v278zM466 570h-294v120h294v-120z" />
    <glyph glyph-name="uniF6A2" unicode="&#xf6a2;" horiz-adv-x="638" 
d="M415 525h160v-310c0 -101 -43 -169 -130 -205c-37 -23 -55 -45 -55 -64c0 -17 10 -26 30 -26c13 0 26 3 40 10l45 -90c-17 -21 -68 -40 -120 -40c-84 0 -145 32 -145 95c0 44 30 70 86 94c-160 0 -263 82 -263 231v305h160v-270c0 -58 15 -116 104 -116
c71 0 88 39 88 108v278z" />
    <glyph glyph-name="uniF6A3" unicode="&#xf6a3;" horiz-adv-x="638" 
d="M181 652c0 36 13 66 39 91s59 38 98 38c40 0 73 -13 99 -38c27 -25 40 -55 40 -91c0 -35 -13 -65 -40 -90c-26 -25 -59 -37 -99 -37c-39 0 -72 12 -98 37s-39 55 -39 90zM276 654c0 -28 17 -49 44 -49c25 0 42 21 42 49c0 27 -17 47 -42 47c-27 0 -44 -20 -44 -47z
M415 525h160v-310c0 -75 -24 -132 -71 -170c-47 -37 -106 -56 -177 -56c-161 0 -264 82 -264 231v305h160v-270c0 -58 15 -116 104 -116c71 0 88 39 88 108v278z" />
    <glyph glyph-name="uniF6AB" unicode="&#xf6ab;" horiz-adv-x="557" 
d="M282 375h-231v150h464v-113l-249 -262h257v-150h-489v113zM336 786l92 -115l-162 -110l-71 83z" />
    <glyph glyph-name="uniF6AC" unicode="&#xf6ac;" horiz-adv-x="557" 
d="M282 375h-231v150h464v-113l-249 -262h257v-150h-489v113zM190 655c0 52 40 85 91 85c45 0 85 -34 85 -85c0 -56 -40 -91 -85 -91c-52 0 -91 34 -91 91z" />
    <glyph glyph-name="uniF6AD" unicode="&#xf6ad;" horiz-adv-x="314" 
d="M69 655c0 52 40 85 91 85c45 0 85 -34 85 -85c0 -56 -40 -91 -85 -91c-52 0 -91 34 -91 91zM237 0h-160v525h160v-525z" />
    <glyph glyph-name="uniF6BA" unicode="&#xf6ba;" horiz-adv-x="364" 
d="M314 284h-264v140h264v-140z" />
    <glyph glyph-name="uniF6BB" unicode="&#xf6bb;" horiz-adv-x="604" 
d="M524 289h-444v130h444v-130z" />
    <glyph glyph-name="uniF6BC" unicode="&#xf6bc;" horiz-adv-x="824" 
d="M744 289h-664v130h664v-130z" />
    <glyph glyph-name="uniF6C3" unicode="&#xf6c3;" horiz-adv-x="311" 
d="M89 -50l149 29c9 -12 13 -28 13 -48c0 -37 -16 -68 -47 -93c-31 -26 -64 -41 -100 -46l-44 64c27 12 41 31 41 58c0 14 -4 26 -12 36z" />
    <glyph glyph-name="uniF6C9" unicode="&#xf6c9;" horiz-adv-x="410" 
d="M294 935l56 -129l-249 -78l-41 89z" />
    <glyph glyph-name="uniF6CA" unicode="&#xf6ca;" horiz-adv-x="486" 
d="M248 733h-4l-184 117l58 85l128 -76l128 76l52 -83z" />
    <glyph glyph-name="uniF6CB" unicode="&#xf6cb;" horiz-adv-x="540" 
d="M60 837c0 48 42 78 98 78c49 0 91 -31 91 -78c0 -52 -42 -84 -91 -84c-56 0 -98 31 -98 84zM291 837c0 48 43 78 98 78c49 0 91 -31 91 -78c0 -52 -40 -84 -91 -84c-56 0 -98 31 -98 84z" />
    <glyph glyph-name="uniF6CE" unicode="&#xf6ce;" horiz-adv-x="410" 
d="M350 817l-41 -89l-249 78l56 129z" />
    <glyph glyph-name="uniF6CF" unicode="&#xf6cf;" horiz-adv-x="571" 
d="M405 935l106 -94l-204 -113l-61 63zM161 935l130 -65l-167 -142l-64 58z" />
    <glyph glyph-name="uniF6D0" unicode="&#xf6d0;" horiz-adv-x="434" 
d="M374 750h-314v120h314v-120z" />
    <glyph glyph-name="uniF6D1" unicode="&#xf6d1;" horiz-adv-x="541" 
d="M60 880h150c0 -37 17 -50 62 -50c41 0 58 10 58 50h150c1 -48 -18 -87 -57 -116c-38 -29 -88 -44 -151 -44c-133 0 -212 63 -212 160z" />
    <glyph glyph-name="uniF6D4" unicode="&#xf6d4;" horiz-adv-x="460" 
d="M60 670h130c0 -39 14 -58 42 -58c25 0 38 19 38 58h130c0 -99 -60 -170 -168 -170c-117 0 -172 69 -172 170z" />
    <glyph glyph-name="uniF6DC" unicode="&#xf6dc;" 
d="M178 438l-78 124l190 138h108v-700h-150v487z" />
    <glyph glyph-name="uniF6DE" unicode="&#xf6de;" horiz-adv-x="618" 
d="M558 205h-498v130h498v-130z" />
    <glyph glyph-name="uniF6F4" unicode="&#xf6f4;" horiz-adv-x="452" 
d="M60 657l66 75c31 -35 66 -52 105 -52c45 0 82 17 110 50l51 -72c-43 -65 -99 -98 -167 -98c-41 0 -75 10 -103 31s-49 43 -62 66z" />
    <glyph glyph-name="uniF6F5" unicode="&#xf6f5;" horiz-adv-x="455" 
d="M229 548h-4l-165 126l70 88l98 -71l100 69l67 -87z" />
    <glyph glyph-name="uniF6F6" unicode="&#xf6f6;" horiz-adv-x="455" 
d="M226 756h4l165 -126l-70 -88l-98 71l-100 -69l-67 87z" />
    <glyph glyph-name="uniF6F7" unicode="&#xf6f7;" horiz-adv-x="296" 
d="M60 655c0 52 40 85 91 85c45 0 85 -34 85 -85c0 -56 -40 -91 -85 -91c-52 0 -91 34 -91 91z" />
    <glyph glyph-name="uniF6F8" unicode="&#xf6f8;" horiz-adv-x="519" 
d="M348 776l111 -84l-174 -127l-66 54zM157 790l108 -80l-129 -145l-76 51z" />
    <glyph glyph-name="uniF6F9" unicode="&#xf6f9;" horiz-adv-x="475" 
d="M72 152l-52 -23v154l52 23v219h160v-149l90 40v-153l-90 -40v-63h223v-160h-383v152z" />
    <glyph glyph-name="uniF6FA" unicode="&#xf6fa;" horiz-adv-x="875" 
d="M827 0h-388v13c-39 -17 -79 -25 -120 -25c-85 0 -154 25 -208 75c-53 51 -80 117 -80 198c0 79 25 144 75 195c51 51 124 77 219 77c39 0 77 -8 114 -23v15h380v-150h-220v-37h194v-150h-194v-38h228v-150zM332 138c39 0 74 11 107 34v178c-30 22 -64 33 -102 33
c-83 0 -136 -38 -136 -122c0 -71 55 -123 131 -123z" />
    <glyph glyph-name="uniF6FB" unicode="&#xf6fb;" horiz-adv-x="385" 
d="M280 -70l45 -90c-17 -21 -68 -40 -120 -40c-84 0 -145 32 -145 95c0 29 13 54 40 75c53 40 129 54 209 53v-23c-55 0 -99 -29 -99 -54c0 -17 10 -26 30 -26c13 0 26 3 40 10z" />
    <glyph glyph-name="uniF6FC" unicode="&#xf6fc;" horiz-adv-x="396" 
d="M60 652c0 36 13 66 39 91s59 38 98 38c40 0 73 -13 99 -38c27 -25 40 -55 40 -91c0 -35 -13 -65 -40 -90c-26 -25 -59 -37 -99 -37c-39 0 -72 12 -98 37s-39 55 -39 90zM155 654c0 -28 17 -49 44 -49c25 0 42 21 42 49c0 27 -17 47 -42 47c-27 0 -44 -20 -44 -47z" />
    <glyph glyph-name="uniF6FD" unicode="&#xf6fd;" horiz-adv-x="516" 
d="M315 160c0 15 -43 26 -96 41c-77 20 -177 65 -176 170c0 95 70 162 231 162c34 0 73 -8 116 -24s75 -35 95 -57l-72 -119c-20 13 -45 25 -74 35s-53 15 -71 15c-37 0 -55 -7 -55 -20c0 -37 272 -22 272 -212c0 -48 -21 -87 -63 -118c-41 -30 -96 -45 -164 -45
c-44 0 -90 9 -137 27s-80 42 -101 71l91 109c15 -14 40 -27 73 -39s62 -18 86 -18c30 0 45 7 45 22zM258 548h-4l-165 126l70 88l98 -71l100 69l67 -87z" />
    <glyph glyph-name="uniF6FE" unicode="&#xf6fe;" horiz-adv-x="485" 
d="M120 569l-60 67c37 52 81 78 132 78c16 0 36 -7 61 -20s44 -19 57 -19s22 1 31 5c9 2 23 15 35 22l49 -75c-40 -48 -82 -72 -127 -72c-15 0 -34 6 -59 19s-45 20 -60 20c-10 0 -30 -8 -59 -25z" />
    <glyph glyph-name="uniF6FF" unicode="&#xf6ff;" horiz-adv-x="557" 
d="M282 375h-231v150h464v-113l-249 -262h257v-150h-489v113zM278 548h-4l-165 126l70 88l98 -71l100 69l67 -87z" />
    <glyph glyph-name="uniF730" unicode="&#xf730;" horiz-adv-x="620" 
d="M112 65c-48 52 -72 114 -72 185s24 133 72 184c49 52 115 78 198 78s149 -26 197 -78c49 -51 73 -113 73 -184s-24 -133 -73 -185c-48 -51 -114 -77 -197 -77s-149 26 -198 77zM200 250c0 -65 43 -112 110 -112c72 0 110 45 110 112c0 71 -42 112 -110 112
c-67 0 -110 -43 -110 -112z" />
    <glyph glyph-name="uniF731" unicode="&#xf731;" horiz-adv-x="383" 
d="M68 288l-48 136l178 84h105v-508h-160v319z" />
    </font>
</defs>
</svg>
